<svg width="110" height="25" viewBox="0 0 110 25" fill="none" xmlns="http://www.w3.org/2000/svg">
<path d="M108.585 21.3861C93.401 18.5219 73.991 16.7478 71 16M108.585 21.3861L104 23.5M108.585 21.3861L104.721 17.602" stroke="#AAAAAA" stroke-linecap="round"/>
<path d="M11.6646 14.8896C11.6646 14.805 11.6434 14.6357 11.6011 14.3818C11.5672 14.1195 11.5037 13.7725 11.4106 13.3408C10.8774 13.5016 10.45 13.5693 10.1284 13.5439C9.81527 13.5101 9.59521 13.4297 9.46826 13.3027C9.34131 13.1758 9.30745 13.0277 9.3667 12.8584C9.42594 12.6891 9.55713 12.5495 9.76025 12.4395C9.97184 12.321 10.2511 12.2575 10.5981 12.249C10.9536 12.2321 11.3683 12.3083 11.8423 12.4775C11.8761 12.4352 11.9015 12.3464 11.9185 12.2109C11.9438 12.0755 11.9692 11.9189 11.9946 11.7412C12.02 11.5635 12.0454 11.3773 12.0708 11.1826C12.1047 10.988 12.13 10.8102 12.147 10.6494C12.1724 10.4886 12.1935 10.3532 12.2104 10.2432C12.2274 10.1247 12.2485 10.0654 12.2739 10.0654C12.3247 10.0316 12.4051 10.0062 12.5151 9.98926C12.6252 9.97233 12.731 9.95964 12.8325 9.95117C12.9679 9.93424 13.1076 9.92578 13.2515 9.92578L13.4165 12.0078H14.3687C14.3687 11.9909 14.3729 11.9189 14.3813 11.792C14.3898 11.665 14.4025 11.5127 14.4194 11.335C14.4448 11.1488 14.4744 10.9499 14.5083 10.7383C14.5506 10.5267 14.6014 10.3363 14.6606 10.167C14.7199 9.98926 14.7876 9.84115 14.8638 9.72266C14.9484 9.60417 15.05 9.54492 15.1685 9.54492C15.2023 9.54492 15.2531 9.54915 15.3208 9.55762C15.3885 9.55762 15.452 9.56608 15.5112 9.58301C15.5705 9.59993 15.6213 9.62956 15.6636 9.67188C15.7144 9.70573 15.7397 9.76074 15.7397 9.83691V11.7412C15.8328 11.7751 15.9556 11.8089 16.1079 11.8428C16.2687 11.8766 16.4422 11.9105 16.6284 11.9443C16.8231 11.9697 17.0177 11.9993 17.2124 12.0332C17.4071 12.0671 17.5848 12.1051 17.7456 12.1475C17.9064 12.1898 18.0376 12.2406 18.1392 12.2998C18.2407 12.3506 18.2915 12.4098 18.2915 12.4775C18.2323 12.6553 18.1095 12.7865 17.9233 12.8711C17.7456 12.9473 17.5425 13.0107 17.314 13.0615C17.0939 13.1038 16.8696 13.1462 16.6411 13.1885C16.4211 13.2223 16.2391 13.2773 16.0952 13.3535C15.9598 13.4297 15.8794 13.5397 15.854 13.6836C15.8371 13.8275 15.9259 14.0306 16.1206 14.293C16.2137 14.293 16.3322 14.2845 16.4761 14.2676C16.62 14.2507 16.7681 14.2337 16.9204 14.2168C17.0728 14.1999 17.2251 14.1914 17.3774 14.1914C17.5298 14.1914 17.6652 14.2083 17.7837 14.2422C17.9022 14.276 17.9995 14.3353 18.0757 14.4199C18.1519 14.5046 18.1899 14.623 18.1899 14.7754C18.1899 14.9108 18.1053 15.0208 17.936 15.1055C17.7752 15.1901 17.5848 15.262 17.3647 15.3213C17.1447 15.3805 16.9289 15.4271 16.7173 15.4609C16.5142 15.4948 16.366 15.5244 16.2729 15.5498C16.2983 15.7021 16.328 15.8883 16.3618 16.1084C16.3957 16.32 16.4041 16.5273 16.3872 16.7305C16.3787 16.9336 16.328 17.1113 16.2349 17.2637C16.1418 17.416 15.9767 17.4922 15.7397 17.4922C15.562 17.4329 15.4308 17.3441 15.3462 17.2256C15.27 17.0986 15.2065 16.9632 15.1558 16.8193C15.1134 16.667 15.0754 16.5231 15.0415 16.3877C15.0076 16.2438 14.9484 16.1253 14.8638 16.0322C14.7791 15.9391 14.6522 15.8883 14.4829 15.8799C14.3136 15.863 14.0767 15.9053 13.772 16.0068C13.772 16.1592 13.772 16.3369 13.772 16.54C13.772 16.7347 13.7508 16.9251 13.7085 17.1113C13.6746 17.2891 13.6027 17.4414 13.4927 17.5684C13.3826 17.6868 13.2218 17.7461 13.0103 17.7461C12.9341 17.7461 12.8452 17.6826 12.7437 17.5557C12.6506 17.4287 12.549 17.2764 12.439 17.0986C12.3374 16.9124 12.2316 16.7305 12.1216 16.5527C12.0116 16.375 11.9058 16.2311 11.8042 16.1211C11.2964 16.0703 10.9028 16.0153 10.6235 15.9561C10.3527 15.8883 10.1665 15.8206 10.0649 15.7529C9.96338 15.6852 9.93376 15.6175 9.97607 15.5498C10.0184 15.4736 10.0946 15.4017 10.2046 15.334C10.4839 15.1901 10.9705 15.042 11.6646 14.8896ZM13.2769 14.1787C13.2769 14.2549 13.298 14.3141 13.3403 14.3564C13.3826 14.3988 13.4334 14.4326 13.4927 14.458C13.5519 14.4749 13.6112 14.4876 13.6704 14.4961C13.7381 14.4961 13.7931 14.4961 13.8354 14.4961C13.9032 14.4961 13.9836 14.4919 14.0767 14.4834C14.1698 14.4665 14.2586 14.4453 14.3433 14.4199C14.4364 14.3945 14.5125 14.3564 14.5718 14.3057C14.6395 14.2464 14.6733 14.1702 14.6733 14.0771C14.6733 13.891 14.6268 13.7217 14.5337 13.5693C14.4491 13.417 14.3136 13.3408 14.1274 13.3408C14.0259 13.3408 13.9243 13.3662 13.8228 13.417C13.7212 13.4593 13.6281 13.5228 13.5435 13.6074C13.4673 13.6836 13.4038 13.7725 13.353 13.874C13.3022 13.9756 13.2769 14.0771 13.2769 14.1787ZM21.6938 17.4541C21.6938 17.4287 21.6981 17.3822 21.7065 17.3145C21.7235 17.2383 21.7319 17.1917 21.7319 17.1748C21.9435 17.0309 22.1763 16.8447 22.4302 16.6162C22.6841 16.3792 22.9211 16.1253 23.1411 15.8545C23.3612 15.5752 23.5431 15.2832 23.687 14.9785C23.8394 14.6738 23.9155 14.3691 23.9155 14.0645C23.9155 14.0475 23.9113 14.0306 23.9028 14.0137C23.9028 13.9967 23.9028 13.9798 23.9028 13.9629C23.9028 13.9544 23.9028 13.9417 23.9028 13.9248C23.869 13.891 23.814 13.8359 23.7378 13.7598C23.6616 13.6751 23.5812 13.5905 23.4966 13.5059C23.4119 13.4212 23.3273 13.3408 23.2427 13.2646C23.1665 13.1885 23.1157 13.1335 23.0903 13.0996C23.0734 13.0996 23.0522 13.0954 23.0269 13.0869C23.0099 13.0869 22.993 13.0869 22.9761 13.0869C22.9676 13.0785 22.9549 13.0742 22.938 13.0742C22.7772 13.0742 22.591 13.1419 22.3794 13.2773C22.1678 13.4043 21.9604 13.5524 21.7573 13.7217C21.5542 13.8825 21.3722 14.0391 21.2114 14.1914C21.0591 14.3353 20.9575 14.4284 20.9067 14.4707C20.8898 14.4792 20.8687 14.4834 20.8433 14.4834C20.8263 14.4919 20.8009 14.4961 20.7671 14.4961C20.7332 14.4961 20.7121 14.4919 20.7036 14.4834C20.6782 14.4834 20.6571 14.4792 20.6401 14.4707C20.6063 14.4538 20.5513 14.4115 20.4751 14.3438C20.4074 14.2676 20.3693 14.2126 20.3608 14.1787V14.0645V13.9248C20.4285 13.7132 20.5216 13.4466 20.6401 13.125C20.7586 12.8034 20.8771 12.4691 20.9956 12.1221C21.1141 11.7666 21.2157 11.4154 21.3003 11.0684C21.3934 10.7129 21.4399 10.3955 21.4399 10.1162C21.4399 9.91309 21.4315 9.71419 21.4146 9.51953C21.3976 9.31641 21.3553 9.13444 21.2876 8.97363C21.2199 8.81283 21.1226 8.68587 20.9956 8.59277C20.8687 8.49967 20.6951 8.45312 20.4751 8.45312C20.1789 8.45312 19.9165 8.53776 19.688 8.70703C19.4679 8.86784 19.2775 9.0752 19.1167 9.3291C18.9644 9.57454 18.8543 9.84115 18.7866 10.1289C18.7189 10.4082 18.702 10.6706 18.7358 10.916H18.1899C18.1815 10.916 18.1646 10.8737 18.1392 10.7891C18.1138 10.7044 18.0841 10.6071 18.0503 10.4971C18.0249 10.3786 17.9995 10.2601 17.9741 10.1416C17.9487 10.0146 17.9276 9.91309 17.9106 9.83691V9.57031C17.9106 9.27409 17.9953 8.99479 18.1646 8.73242C18.3338 8.46159 18.5454 8.22461 18.7993 8.02148C19.0532 7.81836 19.3241 7.65755 19.6118 7.53906C19.908 7.42057 20.1831 7.36133 20.437 7.36133C20.8263 7.36133 21.1479 7.42904 21.4019 7.56445C21.6642 7.69987 21.8758 7.88184 22.0366 8.11035C22.2059 8.33887 22.3286 8.60124 22.4048 8.89746C22.4894 9.19368 22.5444 9.5026 22.5698 9.82422C22.5952 10.1458 22.5994 10.4759 22.5825 10.8145C22.5656 11.1445 22.5487 11.4535 22.5317 11.7412C22.8787 11.8005 23.2004 11.8851 23.4966 11.9951C23.8013 12.1051 24.0636 12.2533 24.2837 12.4395C24.5122 12.6172 24.6899 12.8415 24.8169 13.1123C24.9523 13.3747 25.02 13.6963 25.02 14.0771C25.02 14.2887 24.9819 14.5299 24.9058 14.8008C24.8296 15.0716 24.7196 15.3551 24.5757 15.6514C24.4403 15.9391 24.2795 16.2227 24.0933 16.502C23.9155 16.7812 23.7209 17.0352 23.5093 17.2637C23.2977 17.4837 23.0734 17.6615 22.8364 17.7969C22.5994 17.9323 22.3625 18 22.1255 18C21.9647 18 21.8504 17.945 21.7827 17.835C21.7235 17.7165 21.6938 17.5895 21.6938 17.4541ZM29.0444 17.4541C29.0444 17.4287 29.0487 17.3822 29.0571 17.3145C29.0741 17.2383 29.0825 17.1917 29.0825 17.1748C29.2941 17.0309 29.5269 16.8447 29.7808 16.6162C30.0347 16.3792 30.2716 16.1253 30.4917 15.8545C30.7118 15.5752 30.8937 15.2832 31.0376 14.9785C31.1899 14.6738 31.2661 14.3691 31.2661 14.0645C31.2661 14.0475 31.2619 14.0306 31.2534 14.0137C31.2534 13.9967 31.2534 13.9798 31.2534 13.9629C31.2534 13.9544 31.2534 13.9417 31.2534 13.9248C31.2196 13.891 31.1646 13.8359 31.0884 13.7598C31.0122 13.6751 30.9318 13.5905 30.8472 13.5059C30.7625 13.4212 30.6779 13.3408 30.5933 13.2646C30.5171 13.1885 30.4663 13.1335 30.4409 13.0996C30.424 13.0996 30.4028 13.0954 30.3774 13.0869C30.3605 13.0869 30.3436 13.0869 30.3267 13.0869C30.3182 13.0785 30.3055 13.0742 30.2886 13.0742C30.1278 13.0742 29.9416 13.1419 29.73 13.2773C29.5184 13.4043 29.311 13.5524 29.1079 13.7217C28.9048 13.8825 28.7228 14.0391 28.562 14.1914C28.4097 14.3353 28.3081 14.4284 28.2573 14.4707C28.2404 14.4792 28.2192 14.4834 28.1938 14.4834C28.1769 14.4919 28.1515 14.4961 28.1177 14.4961C28.0838 14.4961 28.0627 14.4919 28.0542 14.4834C28.0288 14.4834 28.0076 14.4792 27.9907 14.4707C27.9569 14.4538 27.9019 14.4115 27.8257 14.3438C27.758 14.2676 27.7199 14.2126 27.7114 14.1787V14.0645V13.9248C27.7791 13.7132 27.8722 13.4466 27.9907 13.125C28.1092 12.8034 28.2277 12.4691 28.3462 12.1221C28.4647 11.7666 28.5662 11.4154 28.6509 11.0684C28.744 10.7129 28.7905 10.3955 28.7905 10.1162C28.7905 9.91309 28.7821 9.71419 28.7651 9.51953C28.7482 9.31641 28.7059 9.13444 28.6382 8.97363C28.5705 8.81283 28.4731 8.68587 28.3462 8.59277C28.2192 8.49967 28.0457 8.45312 27.8257 8.45312C27.5295 8.45312 27.2671 8.53776 27.0386 8.70703C26.8185 8.86784 26.6281 9.0752 26.4673 9.3291C26.3149 9.57454 26.2049 9.84115 26.1372 10.1289C26.0695 10.4082 26.0526 10.6706 26.0864 10.916H25.5405C25.5321 10.916 25.5151 10.8737 25.4897 10.7891C25.4644 10.7044 25.4347 10.6071 25.4009 10.4971C25.3755 10.3786 25.3501 10.2601 25.3247 10.1416C25.2993 10.0146 25.2782 9.91309 25.2612 9.83691V9.57031C25.2612 9.27409 25.3459 8.99479 25.5151 8.73242C25.6844 8.46159 25.896 8.22461 26.1499 8.02148C26.4038 7.81836 26.6746 7.65755 26.9624 7.53906C27.2586 7.42057 27.5337 7.36133 27.7876 7.36133C28.1769 7.36133 28.4985 7.42904 28.7524 7.56445C29.0148 7.69987 29.2264 7.88184 29.3872 8.11035C29.5565 8.33887 29.6792 8.60124 29.7554 8.89746C29.84 9.19368 29.895 9.5026 29.9204 9.82422C29.9458 10.1458 29.95 10.4759 29.9331 10.8145C29.9162 11.1445 29.8993 11.4535 29.8823 11.7412C30.2293 11.8005 30.5509 11.8851 30.8472 11.9951C31.1519 12.1051 31.4142 12.2533 31.6343 12.4395C31.8628 12.6172 32.0405 12.8415 32.1675 13.1123C32.3029 13.3747 32.3706 13.6963 32.3706 14.0771C32.3706 14.2887 32.3325 14.5299 32.2563 14.8008C32.1802 15.0716 32.0701 15.3551 31.9263 15.6514C31.7909 15.9391 31.63 16.2227 31.4438 16.502C31.2661 16.7812 31.0715 17.0352 30.8599 17.2637C30.6483 17.4837 30.424 17.6615 30.187 17.7969C29.95 17.9323 29.7131 18 29.4761 18C29.3153 18 29.201 17.945 29.1333 17.835C29.0741 17.7165 29.0444 17.5895 29.0444 17.4541ZM36.395 17.4541C36.395 17.4287 36.3993 17.3822 36.4077 17.3145C36.4246 17.2383 36.4331 17.1917 36.4331 17.1748C36.6447 17.0309 36.8774 16.8447 37.1313 16.6162C37.3853 16.3792 37.6222 16.1253 37.8423 15.8545C38.0623 15.5752 38.2443 15.2832 38.3882 14.9785C38.5405 14.6738 38.6167 14.3691 38.6167 14.0645C38.6167 14.0475 38.6125 14.0306 38.604 14.0137C38.604 13.9967 38.604 13.9798 38.604 13.9629C38.604 13.9544 38.604 13.9417 38.604 13.9248C38.5701 13.891 38.5151 13.8359 38.439 13.7598C38.3628 13.6751 38.2824 13.5905 38.1978 13.5059C38.1131 13.4212 38.0285 13.3408 37.9438 13.2646C37.8677 13.1885 37.8169 13.1335 37.7915 13.0996C37.7746 13.0996 37.7534 13.0954 37.728 13.0869C37.7111 13.0869 37.6942 13.0869 37.6772 13.0869C37.6688 13.0785 37.6561 13.0742 37.6392 13.0742C37.4784 13.0742 37.2922 13.1419 37.0806 13.2773C36.869 13.4043 36.6616 13.5524 36.4585 13.7217C36.2554 13.8825 36.0734 14.0391 35.9126 14.1914C35.7603 14.3353 35.6587 14.4284 35.6079 14.4707C35.591 14.4792 35.5698 14.4834 35.5444 14.4834C35.5275 14.4919 35.5021 14.4961 35.4683 14.4961C35.4344 14.4961 35.4132 14.4919 35.4048 14.4834C35.3794 14.4834 35.3582 14.4792 35.3413 14.4707C35.3075 14.4538 35.2524 14.4115 35.1763 14.3438C35.1086 14.2676 35.0705 14.2126 35.062 14.1787V14.0645V13.9248C35.1297 13.7132 35.2228 13.4466 35.3413 13.125C35.4598 12.8034 35.5783 12.4691 35.6968 12.1221C35.8153 11.7666 35.9168 11.4154 36.0015 11.0684C36.0946 10.7129 36.1411 10.3955 36.1411 10.1162C36.1411 9.91309 36.1326 9.71419 36.1157 9.51953C36.0988 9.31641 36.0565 9.13444 35.9888 8.97363C35.9211 8.81283 35.8237 8.68587 35.6968 8.59277C35.5698 8.49967 35.3963 8.45312 35.1763 8.45312C34.88 8.45312 34.6177 8.53776 34.3892 8.70703C34.1691 8.86784 33.9787 9.0752 33.8179 9.3291C33.6655 9.57454 33.5555 9.84115 33.4878 10.1289C33.4201 10.4082 33.4032 10.6706 33.437 10.916H32.8911C32.8826 10.916 32.8657 10.8737 32.8403 10.7891C32.8149 10.7044 32.7853 10.6071 32.7515 10.4971C32.7261 10.3786 32.7007 10.2601 32.6753 10.1416C32.6499 10.0146 32.6287 9.91309 32.6118 9.83691V9.57031C32.6118 9.27409 32.6965 8.99479 32.8657 8.73242C33.035 8.46159 33.2466 8.22461 33.5005 8.02148C33.7544 7.81836 34.0252 7.65755 34.313 7.53906C34.6092 7.42057 34.8843 7.36133 35.1382 7.36133C35.5275 7.36133 35.8491 7.42904 36.103 7.56445C36.3654 7.69987 36.577 7.88184 36.7378 8.11035C36.9071 8.33887 37.0298 8.60124 37.106 8.89746C37.1906 9.19368 37.2456 9.5026 37.271 9.82422C37.2964 10.1458 37.3006 10.4759 37.2837 10.8145C37.2668 11.1445 37.2498 11.4535 37.2329 11.7412C37.5799 11.8005 37.9015 11.8851 38.1978 11.9951C38.5024 12.1051 38.7648 12.2533 38.9849 12.4395C39.2134 12.6172 39.3911 12.8415 39.5181 13.1123C39.6535 13.3747 39.7212 13.6963 39.7212 14.0771C39.7212 14.2887 39.6831 14.5299 39.6069 14.8008C39.5308 15.0716 39.4207 15.3551 39.2769 15.6514C39.1414 15.9391 38.9806 16.2227 38.7944 16.502C38.6167 16.7812 38.422 17.0352 38.2104 17.2637C37.9989 17.4837 37.7746 17.6615 37.5376 17.7969C37.3006 17.9323 37.0636 18 36.8267 18C36.6659 18 36.5516 17.945 36.4839 17.835C36.4246 17.7165 36.395 17.5895 36.395 17.4541ZM43.7456 17.4541C43.7456 17.4287 43.7498 17.3822 43.7583 17.3145C43.7752 17.2383 43.7837 17.1917 43.7837 17.1748C43.9953 17.0309 44.228 16.8447 44.4819 16.6162C44.7358 16.3792 44.9728 16.1253 45.1929 15.8545C45.4129 15.5752 45.5949 15.2832 45.7388 14.9785C45.8911 14.6738 45.9673 14.3691 45.9673 14.0645C45.9673 14.0475 45.9631 14.0306 45.9546 14.0137C45.9546 13.9967 45.9546 13.9798 45.9546 13.9629C45.9546 13.9544 45.9546 13.9417 45.9546 13.9248C45.9207 13.891 45.8657 13.8359 45.7896 13.7598C45.7134 13.6751 45.633 13.5905 45.5483 13.5059C45.4637 13.4212 45.3791 13.3408 45.2944 13.2646C45.2183 13.1885 45.1675 13.1335 45.1421 13.0996C45.1252 13.0996 45.104 13.0954 45.0786 13.0869C45.0617 13.0869 45.0448 13.0869 45.0278 13.0869C45.0194 13.0785 45.0067 13.0742 44.9897 13.0742C44.8289 13.0742 44.6427 13.1419 44.4312 13.2773C44.2196 13.4043 44.0122 13.5524 43.8091 13.7217C43.606 13.8825 43.424 14.0391 43.2632 14.1914C43.1108 14.3353 43.0093 14.4284 42.9585 14.4707C42.9416 14.4792 42.9204 14.4834 42.895 14.4834C42.8781 14.4919 42.8527 14.4961 42.8188 14.4961C42.785 14.4961 42.7638 14.4919 42.7554 14.4834C42.73 14.4834 42.7088 14.4792 42.6919 14.4707C42.658 14.4538 42.603 14.4115 42.5269 14.3438C42.4591 14.2676 42.4211 14.2126 42.4126 14.1787V14.0645V13.9248C42.4803 13.7132 42.5734 13.4466 42.6919 13.125C42.8104 12.8034 42.9289 12.4691 43.0474 12.1221C43.1659 11.7666 43.2674 11.4154 43.3521 11.0684C43.4451 10.7129 43.4917 10.3955 43.4917 10.1162C43.4917 9.91309 43.4832 9.71419 43.4663 9.51953C43.4494 9.31641 43.4071 9.13444 43.3394 8.97363C43.2716 8.81283 43.1743 8.68587 43.0474 8.59277C42.9204 8.49967 42.7469 8.45312 42.5269 8.45312C42.2306 8.45312 41.9683 8.53776 41.7397 8.70703C41.5197 8.86784 41.3293 9.0752 41.1685 9.3291C41.0161 9.57454 40.9061 9.84115 40.8384 10.1289C40.7707 10.4082 40.7537 10.6706 40.7876 10.916H40.2417C40.2332 10.916 40.2163 10.8737 40.1909 10.7891C40.1655 10.7044 40.1359 10.6071 40.1021 10.4971C40.0767 10.3786 40.0513 10.2601 40.0259 10.1416C40.0005 10.0146 39.9793 9.91309 39.9624 9.83691V9.57031C39.9624 9.27409 40.047 8.99479 40.2163 8.73242C40.3856 8.46159 40.5972 8.22461 40.8511 8.02148C41.105 7.81836 41.3758 7.65755 41.6636 7.53906C41.9598 7.42057 42.2349 7.36133 42.4888 7.36133C42.8781 7.36133 43.1997 7.42904 43.4536 7.56445C43.716 7.69987 43.9276 7.88184 44.0884 8.11035C44.2576 8.33887 44.3804 8.60124 44.4565 8.89746C44.5412 9.19368 44.5962 9.5026 44.6216 9.82422C44.647 10.1458 44.6512 10.4759 44.6343 10.8145C44.6174 11.1445 44.6004 11.4535 44.5835 11.7412C44.9305 11.8005 45.2521 11.8851 45.5483 11.9951C45.853 12.1051 46.1154 12.2533 46.3354 12.4395C46.564 12.6172 46.7417 12.8415 46.8687 13.1123C47.0041 13.3747 47.0718 13.6963 47.0718 14.0771C47.0718 14.2887 47.0337 14.5299 46.9575 14.8008C46.8813 15.0716 46.7713 15.3551 46.6274 15.6514C46.492 15.9391 46.3312 16.2227 46.145 16.502C45.9673 16.7812 45.7726 17.0352 45.561 17.2637C45.3494 17.4837 45.1252 17.6615 44.8882 17.7969C44.6512 17.9323 44.4142 18 44.1772 18C44.0164 18 43.9022 17.945 43.8345 17.835C43.7752 17.7165 43.7456 17.5895 43.7456 17.4541ZM51.0962 17.4541C51.0962 17.4287 51.1004 17.3822 51.1089 17.3145C51.1258 17.2383 51.1343 17.1917 51.1343 17.1748C51.3459 17.0309 51.5786 16.8447 51.8325 16.6162C52.0864 16.3792 52.3234 16.1253 52.5435 15.8545C52.7635 15.5752 52.9455 15.2832 53.0894 14.9785C53.2417 14.6738 53.3179 14.3691 53.3179 14.0645C53.3179 14.0475 53.3136 14.0306 53.3052 14.0137C53.3052 13.9967 53.3052 13.9798 53.3052 13.9629C53.3052 13.9544 53.3052 13.9417 53.3052 13.9248C53.2713 13.891 53.2163 13.8359 53.1401 13.7598C53.064 13.6751 52.9836 13.5905 52.8989 13.5059C52.8143 13.4212 52.7297 13.3408 52.645 13.2646C52.5688 13.1885 52.5181 13.1335 52.4927 13.0996C52.4757 13.0996 52.4546 13.0954 52.4292 13.0869C52.4123 13.0869 52.3953 13.0869 52.3784 13.0869C52.37 13.0785 52.3573 13.0742 52.3403 13.0742C52.1795 13.0742 51.9933 13.1419 51.7817 13.2773C51.5701 13.4043 51.3628 13.5524 51.1597 13.7217C50.9565 13.8825 50.7746 14.0391 50.6138 14.1914C50.4614 14.3353 50.3599 14.4284 50.3091 14.4707C50.2922 14.4792 50.271 14.4834 50.2456 14.4834C50.2287 14.4919 50.2033 14.4961 50.1694 14.4961C50.1356 14.4961 50.1144 14.4919 50.106 14.4834C50.0806 14.4834 50.0594 14.4792 50.0425 14.4707C50.0086 14.4538 49.9536 14.4115 49.8774 14.3438C49.8097 14.2676 49.7716 14.2126 49.7632 14.1787V14.0645V13.9248C49.8309 13.7132 49.924 13.4466 50.0425 13.125C50.161 12.8034 50.2795 12.4691 50.3979 12.1221C50.5164 11.7666 50.618 11.4154 50.7026 11.0684C50.7957 10.7129 50.8423 10.3955 50.8423 10.1162C50.8423 9.91309 50.8338 9.71419 50.8169 9.51953C50.8 9.31641 50.7576 9.13444 50.6899 8.97363C50.6222 8.81283 50.5249 8.68587 50.3979 8.59277C50.271 8.49967 50.0975 8.45312 49.8774 8.45312C49.5812 8.45312 49.3188 8.53776 49.0903 8.70703C48.8703 8.86784 48.6799 9.0752 48.519 9.3291C48.3667 9.57454 48.2567 9.84115 48.189 10.1289C48.1213 10.4082 48.1043 10.6706 48.1382 10.916H47.5923C47.5838 10.916 47.5669 10.8737 47.5415 10.7891C47.5161 10.7044 47.4865 10.6071 47.4526 10.4971C47.4272 10.3786 47.4019 10.2601 47.3765 10.1416C47.3511 10.0146 47.3299 9.91309 47.313 9.83691V9.57031C47.313 9.27409 47.3976 8.99479 47.5669 8.73242C47.7362 8.46159 47.9478 8.22461 48.2017 8.02148C48.4556 7.81836 48.7264 7.65755 49.0142 7.53906C49.3104 7.42057 49.5854 7.36133 49.8394 7.36133C50.2287 7.36133 50.5503 7.42904 50.8042 7.56445C51.0666 7.69987 51.2782 7.88184 51.439 8.11035C51.6082 8.33887 51.731 8.60124 51.8071 8.89746C51.8918 9.19368 51.9468 9.5026 51.9722 9.82422C51.9976 10.1458 52.0018 10.4759 51.9849 10.8145C51.9679 11.1445 51.951 11.4535 51.9341 11.7412C52.2811 11.8005 52.6027 11.8851 52.8989 11.9951C53.2036 12.1051 53.466 12.2533 53.686 12.4395C53.9146 12.6172 54.0923 12.8415 54.2192 13.1123C54.3547 13.3747 54.4224 13.6963 54.4224 14.0771C54.4224 14.2887 54.3843 14.5299 54.3081 14.8008C54.2319 15.0716 54.1219 15.3551 53.978 15.6514C53.8426 15.9391 53.6818 16.2227 53.4956 16.502C53.3179 16.7812 53.1232 17.0352 52.9116 17.2637C52.7 17.4837 52.4757 17.6615 52.2388 17.7969C52.0018 17.9323 51.7648 18 51.5278 18C51.367 18 51.2528 17.945 51.1851 17.835C51.1258 17.7165 51.0962 17.5895 51.0962 17.4541ZM58.4468 17.4541C58.4468 17.4287 58.451 17.3822 58.4595 17.3145C58.4764 17.2383 58.4849 17.1917 58.4849 17.1748C58.6965 17.0309 58.9292 16.8447 59.1831 16.6162C59.437 16.3792 59.674 16.1253 59.894 15.8545C60.1141 15.5752 60.2961 15.2832 60.4399 14.9785C60.5923 14.6738 60.6685 14.3691 60.6685 14.0645C60.6685 14.0475 60.6642 14.0306 60.6558 14.0137C60.6558 13.9967 60.6558 13.9798 60.6558 13.9629C60.6558 13.9544 60.6558 13.9417 60.6558 13.9248C60.6219 13.891 60.5669 13.8359 60.4907 13.7598C60.4146 13.6751 60.3341 13.5905 60.2495 13.5059C60.1649 13.4212 60.0802 13.3408 59.9956 13.2646C59.9194 13.1885 59.8687 13.1335 59.8433 13.0996C59.8263 13.0996 59.8052 13.0954 59.7798 13.0869C59.7629 13.0869 59.7459 13.0869 59.729 13.0869C59.7205 13.0785 59.7078 13.0742 59.6909 13.0742C59.5301 13.0742 59.3439 13.1419 59.1323 13.2773C58.9207 13.4043 58.7134 13.5524 58.5103 13.7217C58.3071 13.8825 58.1252 14.0391 57.9644 14.1914C57.812 14.3353 57.7104 14.4284 57.6597 14.4707C57.6427 14.4792 57.6216 14.4834 57.5962 14.4834C57.5793 14.4919 57.5539 14.4961 57.52 14.4961C57.4862 14.4961 57.465 14.4919 57.4565 14.4834C57.4312 14.4834 57.41 14.4792 57.3931 14.4707C57.3592 14.4538 57.3042 14.4115 57.228 14.3438C57.1603 14.2676 57.1222 14.2126 57.1138 14.1787V14.0645V13.9248C57.1815 13.7132 57.2746 13.4466 57.3931 13.125C57.5116 12.8034 57.63 12.4691 57.7485 12.1221C57.867 11.7666 57.9686 11.4154 58.0532 11.0684C58.1463 10.7129 58.1929 10.3955 58.1929 10.1162C58.1929 9.91309 58.1844 9.71419 58.1675 9.51953C58.1506 9.31641 58.1082 9.13444 58.0405 8.97363C57.9728 8.81283 57.8755 8.68587 57.7485 8.59277C57.6216 8.49967 57.4481 8.45312 57.228 8.45312C56.9318 8.45312 56.6694 8.53776 56.4409 8.70703C56.2209 8.86784 56.0304 9.0752 55.8696 9.3291C55.7173 9.57454 55.6073 9.84115 55.5396 10.1289C55.4718 10.4082 55.4549 10.6706 55.4888 10.916H54.9429C54.9344 10.916 54.9175 10.8737 54.8921 10.7891C54.8667 10.7044 54.8371 10.6071 54.8032 10.4971C54.7778 10.3786 54.7524 10.2601 54.7271 10.1416C54.7017 10.0146 54.6805 9.91309 54.6636 9.83691V9.57031C54.6636 9.27409 54.7482 8.99479 54.9175 8.73242C55.0868 8.46159 55.2983 8.22461 55.5522 8.02148C55.8062 7.81836 56.077 7.65755 56.3647 7.53906C56.661 7.42057 56.936 7.36133 57.1899 7.36133C57.5793 7.36133 57.9009 7.42904 58.1548 7.56445C58.4172 7.69987 58.6287 7.88184 58.7896 8.11035C58.9588 8.33887 59.0815 8.60124 59.1577 8.89746C59.2424 9.19368 59.2974 9.5026 59.3228 9.82422C59.3481 10.1458 59.3524 10.4759 59.3354 10.8145C59.3185 11.1445 59.3016 11.4535 59.2847 11.7412C59.6317 11.8005 59.9533 11.8851 60.2495 11.9951C60.5542 12.1051 60.8166 12.2533 61.0366 12.4395C61.2651 12.6172 61.4429 12.8415 61.5698 13.1123C61.7052 13.3747 61.7729 13.6963 61.7729 14.0771C61.7729 14.2887 61.7349 14.5299 61.6587 14.8008C61.5825 15.0716 61.4725 15.3551 61.3286 15.6514C61.1932 15.9391 61.0324 16.2227 60.8462 16.502C60.6685 16.7812 60.4738 17.0352 60.2622 17.2637C60.0506 17.4837 59.8263 17.6615 59.5894 17.7969C59.3524 17.9323 59.1154 18 58.8784 18C58.7176 18 58.6034 17.945 58.5356 17.835C58.4764 17.7165 58.4468 17.5895 58.4468 17.4541Z" fill="#AAAAAA"/>
</svg>
