<svg width="121" height="24" viewBox="0 0 121 24" fill="none" xmlns="http://www.w3.org/2000/svg">
<path d="M2 18.1547C22.3605 14.1392 33 15 37 14M2 18.1547L5.68656 22.3093M2 18.1547L5.68656 14" stroke="#AAAAAA" stroke-width="2" stroke-linecap="round"/>
<path d="M45.4692 14.7373C45.4692 14.458 45.5539 14.1787 45.7231 13.8994C45.8924 13.6201 46.1167 13.3493 46.396 13.0869C46.6753 12.8161 46.9927 12.5664 47.3481 12.3379C47.7036 12.1009 48.0633 11.8936 48.4272 11.7158C48.7996 11.5381 49.1593 11.3984 49.5063 11.2969C49.8618 11.1953 50.1707 11.1445 50.4331 11.1445C50.4331 11.39 50.3696 11.6143 50.2427 11.8174C50.1242 12.0205 49.9634 12.2109 49.7603 12.3887C49.5571 12.5664 49.3286 12.7399 49.0747 12.9092C48.8293 13.07 48.5838 13.2308 48.3384 13.3916C48.1014 13.5524 47.8729 13.7217 47.6528 13.8994C47.4328 14.0771 47.255 14.2676 47.1196 14.4707C47.1112 14.4961 47.1027 14.513 47.0942 14.5215C47.0942 14.5469 47.0942 14.5723 47.0942 14.5977C47.0942 14.623 47.0942 14.6484 47.0942 14.6738C47.1027 14.6992 47.1112 14.7204 47.1196 14.7373C47.1366 14.7458 47.1746 14.7881 47.2339 14.8643C47.3016 14.9404 47.3524 14.987 47.3862 15.0039C47.4285 15.0378 47.5259 15.1012 47.6782 15.1943C47.839 15.2874 48.021 15.4017 48.2241 15.5371C48.4357 15.6725 48.6558 15.8122 48.8843 15.9561C49.1213 16.0999 49.3413 16.2396 49.5444 16.375C49.7476 16.5104 49.9253 16.6289 50.0776 16.7305C50.23 16.8236 50.3358 16.887 50.395 16.9209C50.4119 16.9294 50.4543 16.9717 50.522 17.0479C50.5981 17.1156 50.6405 17.1579 50.6489 17.1748C50.6489 17.2002 50.6532 17.2256 50.6616 17.251C50.6616 17.2594 50.6616 17.2721 50.6616 17.2891C50.6701 17.306 50.6743 17.3187 50.6743 17.3271C50.6743 17.3356 50.6701 17.3483 50.6616 17.3652C50.6616 17.3737 50.6616 17.3822 50.6616 17.3906C50.6532 17.416 50.6489 17.4372 50.6489 17.4541C50.632 17.488 50.5939 17.5387 50.5347 17.6064C50.4754 17.6742 50.4162 17.7376 50.3569 17.7969C50.3061 17.8477 50.2554 17.8942 50.2046 17.9365C50.1538 17.9788 50.12 18 50.103 18C49.9676 18 49.756 17.9492 49.4683 17.8477C49.189 17.7376 48.8758 17.5938 48.5288 17.416C48.1903 17.2383 47.839 17.0352 47.4751 16.8066C47.1196 16.5781 46.7895 16.3411 46.4849 16.0957C46.1886 15.8503 45.9432 15.609 45.7485 15.3721C45.5623 15.1351 45.4692 14.9235 45.4692 14.7373ZM51.0806 8.5293C51.1821 8.01302 51.3683 7.60677 51.6392 7.31055C51.91 7.00586 52.2189 6.7985 52.5659 6.68848C52.9214 6.57845 53.298 6.55306 53.6958 6.6123C54.102 6.66309 54.4829 6.78581 54.8384 6.98047C55.2023 7.17513 55.5197 7.42904 55.7905 7.74219C56.0614 8.04688 56.2518 8.39811 56.3618 8.7959C56.4718 9.18522 56.4718 9.6084 56.3618 10.0654C56.2518 10.5225 56.0021 10.9922 55.6128 11.4746C55.9175 11.5846 56.201 11.6947 56.4634 11.8047C56.7257 11.9147 56.9458 12.0501 57.1235 12.2109C57.3097 12.3717 57.4536 12.5664 57.5552 12.7949C57.6567 13.0234 57.7075 13.307 57.7075 13.6455C57.7075 13.9248 57.6567 14.221 57.5552 14.5342C57.4536 14.8473 57.3097 15.1562 57.1235 15.4609C56.9458 15.7656 56.7342 16.0576 56.4888 16.3369C56.2518 16.6077 55.9936 16.849 55.7144 17.0605C55.4351 17.2721 55.1473 17.4414 54.8511 17.5684C54.5633 17.6868 54.2798 17.7461 54.0005 17.7461C53.8143 17.7461 53.6323 17.6276 53.4546 17.3906C53.2769 17.1536 53.1033 16.8405 52.9341 16.4512C52.7648 16.0618 52.5998 15.6133 52.439 15.1055C52.2782 14.5977 52.13 14.0729 51.9946 13.5312C51.8592 12.9811 51.7365 12.4395 51.6265 11.9062C51.5164 11.3646 51.4191 10.8652 51.3345 10.4082C51.2583 9.95117 51.1948 9.55762 51.144 9.22754C51.1017 8.889 51.0806 8.65625 51.0806 8.5293ZM53.3403 14.0264C53.3403 14.1702 53.3742 14.3607 53.4419 14.5977C53.5096 14.8346 53.5942 15.0716 53.6958 15.3086C53.8058 15.5456 53.9243 15.7656 54.0513 15.9688C54.1782 16.1634 54.3136 16.2946 54.4575 16.3623C54.576 16.43 54.7157 16.4258 54.8765 16.3496C55.0373 16.265 55.1981 16.138 55.3589 15.9688C55.5282 15.791 55.689 15.5921 55.8413 15.3721C55.9936 15.1436 56.1291 14.9193 56.2476 14.6992C56.3745 14.4792 56.4718 14.276 56.5395 14.0898C56.6157 13.8952 56.6538 13.7471 56.6538 13.6455C56.6538 13.4255 56.6242 13.2477 56.5649 13.1123C56.5057 12.9684 56.4168 12.8542 56.2983 12.7695C56.1883 12.6849 56.0529 12.6257 55.8921 12.5918C55.7397 12.5579 55.5705 12.541 55.3843 12.541C55.1727 12.541 54.9484 12.5749 54.7114 12.6426C54.4744 12.7103 54.2544 12.8076 54.0513 12.9346C53.8566 13.0615 53.6873 13.2181 53.5435 13.4043C53.408 13.5905 53.3403 13.7979 53.3403 14.0264ZM52.5278 9.70996C52.5278 9.8623 52.5236 10.0527 52.5151 10.2812C52.5067 10.5013 52.5067 10.7298 52.5151 10.9668C52.5236 11.2038 52.549 11.4408 52.5913 11.6777C52.6336 11.9147 52.7098 12.1178 52.8198 12.2871C53.2345 12.2109 53.5942 12.0671 53.8989 11.8555C54.2121 11.6439 54.4617 11.3984 54.6479 11.1191C54.8426 10.8314 54.9823 10.5267 55.0669 10.2051C55.1515 9.88346 55.1811 9.57031 55.1558 9.26562C55.1388 8.96094 55.0669 8.68164 54.9399 8.42773C54.8214 8.17383 54.6522 7.97917 54.4321 7.84375C54.2121 7.69987 53.9455 7.62793 53.6323 7.62793C53.3192 7.62793 52.9595 7.72949 52.5532 7.93262C52.5532 8.00033 52.549 8.11882 52.5405 8.28809C52.5405 8.45736 52.5363 8.63509 52.5278 8.82129C52.5278 9.00749 52.5278 9.18522 52.5278 9.35449C52.5278 9.52376 52.5278 9.64225 52.5278 9.70996ZM58.52 12.8203C58.52 12.7695 58.52 12.6807 58.52 12.5537C58.5285 12.4183 58.5327 12.2786 58.5327 12.1348C58.5327 11.9909 58.5327 11.8597 58.5327 11.7412C58.5412 11.6143 58.5454 11.5254 58.5454 11.4746C58.6047 11.373 58.6724 11.2757 58.7485 11.1826C58.8332 11.0811 58.9178 11.0133 59.0024 10.9795C59.0955 10.9372 59.1929 10.9287 59.2944 10.9541C59.4045 10.9795 59.5145 11.0641 59.6245 11.208V11.3096V11.4746C59.616 11.5169 59.5991 11.6185 59.5737 11.7793C59.5483 11.9316 59.5187 12.1009 59.4849 12.2871C59.451 12.4733 59.4172 12.6468 59.3833 12.8076C59.3579 12.96 59.3452 13.0573 59.3452 13.0996C59.3452 13.2604 59.3621 13.4635 59.396 13.709C59.4298 13.946 59.4764 14.1956 59.5356 14.458C59.6033 14.7204 59.6838 14.9827 59.7769 15.2451C59.8784 15.5075 59.9969 15.7445 60.1323 15.9561C60.2677 16.1592 60.4158 16.3285 60.5767 16.4639C60.7459 16.5993 60.9406 16.667 61.1606 16.667C61.4315 16.667 61.6685 16.5951 61.8716 16.4512C62.0832 16.3073 62.2651 16.1211 62.4175 15.8926C62.5698 15.6641 62.6925 15.4059 62.7856 15.1182C62.8872 14.8304 62.9676 14.5426 63.0269 14.2549C63.0861 13.9587 63.1284 13.6751 63.1538 13.4043C63.1792 13.1335 63.1919 12.8965 63.1919 12.6934C63.1919 12.4902 63.175 12.2998 63.1411 12.1221C63.1157 11.9359 63.0819 11.7539 63.0395 11.5762C62.9972 11.3984 62.9591 11.2249 62.9253 11.0557C62.8999 10.8779 62.8872 10.7002 62.8872 10.5225C62.8872 10.3617 62.9422 10.2474 63.0522 10.1797C63.1707 10.112 63.3019 10.0781 63.4458 10.0781C63.6235 10.0781 63.7674 10.1331 63.8774 10.2432C63.9875 10.3447 64.0721 10.4759 64.1313 10.6367C64.1991 10.7975 64.2414 10.9837 64.2583 11.1953C64.2837 11.3984 64.2964 11.6016 64.2964 11.8047C64.2964 12.0078 64.2922 12.2025 64.2837 12.3887C64.2752 12.5664 64.271 12.7103 64.271 12.8203C64.271 13.1081 64.2498 13.4339 64.2075 13.7979C64.1652 14.1618 64.089 14.5384 63.979 14.9277C63.8774 15.3086 63.7463 15.6852 63.5854 16.0576C63.4331 16.43 63.2427 16.7643 63.0142 17.0605C62.7941 17.3483 62.536 17.5811 62.2397 17.7588C61.952 17.9365 61.6261 18.0254 61.2622 18.0254C60.8813 18.0254 60.547 17.9365 60.2593 17.7588C59.9715 17.5726 59.7261 17.3314 59.5229 17.0352C59.3283 16.7305 59.1632 16.3877 59.0278 16.0068C58.8924 15.626 58.7866 15.2451 58.7104 14.8643C58.6427 14.4834 58.592 14.1152 58.5581 13.7598C58.5327 13.3958 58.52 13.0827 58.52 12.8203ZM64.7661 11.6016C64.7661 11.5762 64.7703 11.555 64.7788 11.5381C64.7788 11.5212 64.783 11.5 64.7915 11.4746C64.8254 11.4323 64.8761 11.3773 64.9438 11.3096C65.0116 11.2419 65.0539 11.208 65.0708 11.208H67.6226C67.6226 11.1149 67.6099 10.9668 67.5845 10.7637C67.5591 10.5605 67.5337 10.3363 67.5083 10.0908C67.4914 9.84538 67.4871 9.59147 67.4956 9.3291C67.5041 9.05827 67.5379 8.81706 67.5972 8.60547C67.6649 8.38542 67.7664 8.20768 67.9019 8.07227C68.0457 7.92839 68.2446 7.85645 68.4985 7.85645C68.4985 8.71126 68.5578 9.39681 68.6763 9.91309C68.7948 10.4294 68.9513 10.8271 69.146 11.1064C69.3491 11.3857 69.5776 11.5677 69.8315 11.6523C70.0854 11.737 70.3436 11.7751 70.606 11.7666C70.8768 11.7497 71.1392 11.7074 71.3931 11.6396C71.647 11.5719 71.8713 11.5254 72.0659 11.5C72.269 11.4746 72.4298 11.4958 72.5483 11.5635C72.6668 11.6227 72.7261 11.7708 72.7261 12.0078C72.7261 12.1855 72.6838 12.3125 72.5991 12.3887C72.5229 12.4648 72.3706 12.5241 72.1421 12.5664C72.0744 12.5749 71.9601 12.5918 71.7993 12.6172C71.647 12.6341 71.4735 12.651 71.2788 12.668C71.0841 12.6849 70.8768 12.7061 70.6567 12.7314C70.4367 12.7484 70.2293 12.7653 70.0347 12.7822C69.84 12.7992 69.6623 12.8118 69.5015 12.8203C69.3407 12.8203 69.2222 12.8203 69.146 12.8203C69.146 12.8626 69.1418 12.9346 69.1333 13.0361C69.1248 13.1377 69.1206 13.2054 69.1206 13.2393C69.1206 13.6117 69.1798 13.9756 69.2983 14.3311C69.4168 14.6781 69.5438 15.0251 69.6792 15.3721C69.8231 15.7191 69.9543 16.0661 70.0728 16.4131C70.1912 16.7601 70.2505 17.1198 70.2505 17.4922C70.2505 17.5599 70.242 17.6318 70.2251 17.708C70.2166 17.7757 70.1912 17.8392 70.1489 17.8984C70.1151 17.9492 70.0601 17.9873 69.9839 18.0127C69.9162 18.0465 69.8188 18.0423 69.6919 18C69.3703 17.9154 69.1291 17.7334 68.9683 17.4541C68.8159 17.1748 68.7017 16.8447 68.6255 16.4639C68.5493 16.0745 68.4985 15.6641 68.4731 15.2324C68.4478 14.8008 68.4054 14.3988 68.3462 14.0264C68.2954 13.6455 68.2108 13.3239 68.0923 13.0615C67.9738 12.7907 67.7834 12.6257 67.521 12.5664L65.0708 12.0078C65.0369 12.0078 64.9862 11.974 64.9185 11.9062C64.8507 11.8301 64.8084 11.7751 64.7915 11.7412C64.783 11.7243 64.7788 11.7031 64.7788 11.6777C64.7703 11.6608 64.7661 11.6354 64.7661 11.6016ZM72.9292 11.6016C72.9292 11.5762 72.9334 11.555 72.9419 11.5381C72.9419 11.5212 72.9461 11.5 72.9546 11.4746C72.9884 11.4323 73.0392 11.3773 73.1069 11.3096C73.1746 11.2419 73.217 11.208 73.2339 11.208H75.7856C75.7856 11.1149 75.7729 10.9668 75.7476 10.7637C75.7222 10.5605 75.6968 10.3363 75.6714 10.0908C75.6545 9.84538 75.6502 9.59147 75.6587 9.3291C75.6672 9.05827 75.701 8.81706 75.7603 8.60547C75.828 8.38542 75.9295 8.20768 76.0649 8.07227C76.2088 7.92839 76.4077 7.85645 76.6616 7.85645C76.6616 8.71126 76.7209 9.39681 76.8394 9.91309C76.9578 10.4294 77.1144 10.8271 77.3091 11.1064C77.5122 11.3857 77.7407 11.5677 77.9946 11.6523C78.2485 11.737 78.5067 11.7751 78.769 11.7666C79.0399 11.7497 79.3022 11.7074 79.5561 11.6396C79.8101 11.5719 80.0343 11.5254 80.229 11.5C80.4321 11.4746 80.5929 11.4958 80.7114 11.5635C80.8299 11.6227 80.8892 11.7708 80.8892 12.0078C80.8892 12.1855 80.8468 12.3125 80.7622 12.3887C80.686 12.4648 80.5337 12.5241 80.3052 12.5664C80.2375 12.5749 80.1232 12.5918 79.9624 12.6172C79.8101 12.6341 79.6366 12.651 79.4419 12.668C79.2472 12.6849 79.0399 12.7061 78.8198 12.7314C78.5998 12.7484 78.3924 12.7653 78.1978 12.7822C78.0031 12.7992 77.8254 12.8118 77.6645 12.8203C77.5037 12.8203 77.3853 12.8203 77.3091 12.8203C77.3091 12.8626 77.3048 12.9346 77.2964 13.0361C77.2879 13.1377 77.2837 13.2054 77.2837 13.2393C77.2837 13.6117 77.3429 13.9756 77.4614 14.3311C77.5799 14.6781 77.7069 15.0251 77.8423 15.3721C77.9862 15.7191 78.1173 16.0661 78.2358 16.4131C78.3543 16.7601 78.4136 17.1198 78.4136 17.4922C78.4136 17.5599 78.4051 17.6318 78.3882 17.708C78.3797 17.7757 78.3543 17.8392 78.312 17.8984C78.2782 17.9492 78.2231 17.9873 78.147 18.0127C78.0793 18.0465 77.9819 18.0423 77.855 18C77.5334 17.9154 77.2922 17.7334 77.1313 17.4541C76.979 17.1748 76.8647 16.8447 76.7886 16.4639C76.7124 16.0745 76.6616 15.6641 76.6362 15.2324C76.6108 14.8008 76.5685 14.3988 76.5093 14.0264C76.4585 13.6455 76.3739 13.3239 76.2554 13.0615C76.1369 12.7907 75.9464 12.6257 75.6841 12.5664L73.2339 12.0078C73.2 12.0078 73.1492 11.974 73.0815 11.9062C73.0138 11.8301 72.9715 11.7751 72.9546 11.7412C72.9461 11.7243 72.9419 11.7031 72.9419 11.6777C72.9334 11.6608 72.9292 11.6354 72.9292 11.6016ZM81.3716 15.4229C81.3716 14.8981 81.4943 14.4115 81.7397 13.9629C81.9852 13.5059 82.3068 13.1165 82.7046 12.7949C83.1108 12.4648 83.5636 12.2067 84.063 12.0205C84.5708 11.8343 85.0828 11.7412 85.5991 11.7412C85.8869 11.7412 86.1408 11.8343 86.3608 12.0205C86.5894 12.2067 86.7798 12.4352 86.9321 12.7061C87.0845 12.9684 87.1987 13.2477 87.2749 13.5439C87.3595 13.8402 87.4019 14.0983 87.4019 14.3184C87.4019 14.7923 87.2876 15.2536 87.0591 15.7021C86.8306 16.1423 86.5343 16.5358 86.1704 16.8828C85.8065 17.2214 85.396 17.4964 84.939 17.708C84.4819 17.9196 84.0249 18.0254 83.5679 18.0254C83.1616 18.0254 82.8188 17.9577 82.5395 17.8223C82.2603 17.6784 82.036 17.4922 81.8667 17.2637C81.6974 17.0267 81.5705 16.7516 81.4858 16.4385C81.4097 16.1169 81.3716 15.7783 81.3716 15.4229ZM82.4507 15.5498C82.4507 15.7699 82.4676 15.9645 82.5015 16.1338C82.5438 16.2946 82.6115 16.4342 82.7046 16.5527C82.8061 16.6712 82.9373 16.7643 83.0981 16.832C83.2589 16.8913 83.4578 16.9209 83.6948 16.9209C84.008 16.9209 84.3211 16.8363 84.6343 16.667C84.9474 16.4893 85.2267 16.2692 85.4722 16.0068C85.7261 15.736 85.9292 15.4398 86.0815 15.1182C86.2339 14.7965 86.3101 14.4834 86.3101 14.1787C86.3101 14.0433 86.2974 13.8952 86.272 13.7344C86.2466 13.5736 86.2043 13.4255 86.145 13.29C86.0858 13.1546 86.0011 13.0404 85.8911 12.9473C85.7811 12.8542 85.6414 12.8076 85.4722 12.8076C85.3198 12.8076 85.1379 12.8584 84.9263 12.96C84.7231 13.0615 84.5073 13.1927 84.2788 13.3535C84.0588 13.5143 83.8387 13.6963 83.6186 13.8994C83.4071 14.1025 83.2124 14.3057 83.0347 14.5088C82.8569 14.7119 82.713 14.9066 82.603 15.0928C82.5015 15.279 82.4507 15.4313 82.4507 15.5498ZM87.897 13.7217C87.897 13.5016 87.952 13.3451 88.062 13.252C88.172 13.1504 88.3498 13.0996 88.5952 13.0996H88.7222C88.7476 13.235 88.7772 13.3916 88.811 13.5693C88.8449 13.7471 88.8957 13.929 88.9634 14.1152C89.0311 14.3014 89.1115 14.4749 89.2046 14.6357C89.2977 14.7881 89.4119 14.9108 89.5474 15.0039C89.5558 14.7077 89.6278 14.4242 89.7632 14.1533C89.9071 13.874 90.0806 13.6286 90.2837 13.417C90.4953 13.1969 90.7238 13.015 90.9692 12.8711C91.2231 12.7188 91.4728 12.6172 91.7183 12.5664H91.9976C92.4038 12.5664 92.7508 12.6595 93.0386 12.8457C93.3263 13.0234 93.5633 13.2604 93.7495 13.5566C93.9442 13.8444 94.0923 14.1745 94.1938 14.5469C94.2954 14.9193 94.3716 15.3001 94.4224 15.6895C94.4816 16.0703 94.5155 16.4427 94.5239 16.8066C94.5408 17.1621 94.5493 17.4668 94.5493 17.7207H93.6226C93.5718 17.2129 93.5083 16.7262 93.4321 16.2607C93.4067 16.0745 93.3729 15.8799 93.3306 15.6768C93.2882 15.4652 93.2417 15.2705 93.1909 15.0928C93.1401 14.9066 93.0851 14.7373 93.0259 14.585C92.9666 14.4242 92.8989 14.2887 92.8228 14.1787C92.7889 14.1449 92.7423 14.0983 92.6831 14.0391C92.6323 13.9798 92.5773 13.9206 92.5181 13.8613C92.4588 13.8021 92.4038 13.7513 92.353 13.709C92.3022 13.6667 92.2726 13.6455 92.2642 13.6455C92.0103 13.5778 91.7902 13.6286 91.604 13.7979C91.4178 13.9587 91.2528 14.1787 91.1089 14.458C90.965 14.7373 90.8465 15.0547 90.7534 15.4102C90.6688 15.7656 90.5968 16.1084 90.5376 16.4385C90.4783 16.7601 90.436 17.0436 90.4106 17.2891C90.3853 17.526 90.3683 17.6699 90.3599 17.7207C90.1483 17.873 89.9494 17.9196 89.7632 17.8604C89.577 17.7926 89.3992 17.6572 89.23 17.4541C89.0692 17.251 88.9211 16.9971 88.7856 16.6924C88.6587 16.3877 88.5402 16.0661 88.4302 15.7275C88.3201 15.3805 88.2186 15.0335 88.1255 14.6865C88.0408 14.3395 87.9647 14.0179 87.897 13.7217ZM95.5142 16.9971C95.5311 16.9378 95.5565 16.832 95.5903 16.6797C95.6326 16.5273 95.6707 16.3665 95.7046 16.1973C95.7469 16.0195 95.785 15.8587 95.8188 15.7148C95.8527 15.5625 95.8781 15.4567 95.895 15.3975C95.9543 15.1605 96.0431 14.8346 96.1616 14.4199C96.2801 13.9967 96.424 13.5482 96.5933 13.0742C96.771 12.5918 96.9699 12.1094 97.1899 11.627C97.4185 11.1361 97.6681 10.7087 97.939 10.3447C98.2183 9.97233 98.5187 9.6888 98.8403 9.49414C99.1619 9.29948 99.5089 9.25293 99.8813 9.35449C99.7629 9.82845 99.6105 10.277 99.4243 10.7002C99.2466 11.1149 99.0519 11.5254 98.8403 11.9316C98.6372 12.3294 98.4256 12.7272 98.2056 13.125C97.994 13.5143 97.7866 13.9121 97.5835 14.3184C97.3804 14.7246 97.1942 15.1478 97.0249 15.5879C96.8641 16.028 96.7371 16.4977 96.644 16.9971C96.6017 17.2425 96.5213 17.3864 96.4028 17.4287C96.2843 17.4626 96.1489 17.4583 95.9966 17.416C95.8866 17.3906 95.785 17.3525 95.6919 17.3018C95.5988 17.251 95.5395 17.1494 95.5142 16.9971ZM101.151 17.4541C101.151 17.3187 101.21 17.141 101.329 16.9209C101.447 16.7008 101.599 16.4681 101.786 16.2227C101.972 15.9688 102.171 15.7106 102.382 15.4482C102.602 15.1774 102.814 14.9235 103.017 14.6865C103.22 14.4411 103.398 14.2295 103.55 14.0518C103.703 13.8656 103.813 13.7301 103.88 13.6455C103.88 13.6286 103.885 13.6074 103.893 13.582C103.902 13.5482 103.906 13.5228 103.906 13.5059C103.906 13.5059 103.902 13.4847 103.893 13.4424C103.885 13.4255 103.88 13.4043 103.88 13.3789C103.863 13.3451 103.821 13.2943 103.753 13.2266C103.686 13.1589 103.635 13.1165 103.601 13.0996C103.55 13.0658 103.449 13.0023 103.296 12.9092C103.144 12.8161 102.966 12.7018 102.763 12.5664C102.56 12.431 102.34 12.2913 102.103 12.1475C101.875 12.0036 101.659 11.8682 101.456 11.7412C101.252 11.6058 101.075 11.4915 100.922 11.3984C100.77 11.2969 100.664 11.2334 100.605 11.208C100.478 11.1234 100.389 11.0345 100.338 10.9414C100.296 10.8483 100.275 10.7256 100.275 10.5732C100.503 10.5732 100.8 10.6113 101.164 10.6875C101.536 10.7552 101.925 10.8525 102.332 10.9795C102.738 11.098 103.148 11.2419 103.563 11.4111C103.978 11.5804 104.35 11.7666 104.68 11.9697C105.01 12.1644 105.281 12.3717 105.493 12.5918C105.704 12.8118 105.81 13.0277 105.81 13.2393C105.81 13.2562 105.806 13.2816 105.797 13.3154C105.789 13.3408 105.785 13.362 105.785 13.3789C105.708 13.472 105.594 13.6117 105.442 13.7979C105.29 13.9756 105.116 14.1829 104.921 14.4199C104.727 14.6569 104.519 14.9066 104.299 15.1689C104.088 15.4229 103.88 15.6641 103.677 15.8926C103.483 16.1211 103.305 16.3285 103.144 16.5146C102.983 16.7008 102.865 16.8363 102.789 16.9209C102.662 17.0648 102.56 17.1875 102.484 17.2891C102.408 17.3906 102.336 17.4753 102.268 17.543C102.209 17.6107 102.137 17.6615 102.052 17.6953C101.976 17.7292 101.866 17.7461 101.722 17.7461C101.688 17.7461 101.638 17.7461 101.57 17.7461C101.511 17.7376 101.447 17.7249 101.379 17.708C101.32 17.6911 101.265 17.6657 101.214 17.6318C101.172 17.5895 101.151 17.5303 101.151 17.4541Z" fill="#AAAAAA"/>
</svg>
