<svg width="109" height="44" viewBox="0 0 109 44" fill="none" xmlns="http://www.w3.org/2000/svg">
<path d="M80 40L77.5 37.5M80 40L82 36.5M80 40C79.7834 33.049 74 30 68 30C62 30 57.1003 24.0437 57 21.5" stroke="#AAAAAA" stroke-linecap="round" stroke-linejoin="round"/>
<path d="M33.9453 13.7422C33.9453 13.3203 33.9961 12.8984 34.0977 12.4766C34.1992 12.0547 34.3594 11.6758 34.5781 11.3398C34.8047 11.0039 35.0938 10.7305 35.4453 10.5195C35.8047 10.3086 36.2383 10.2031 36.7461 10.2031C37.0352 10.2031 37.2891 10.2578 37.5078 10.3672C37.7266 10.4688 37.9102 10.6055 38.0586 10.7773C38.207 10.9492 38.3164 11.1523 38.3867 11.3867C38.4648 11.6133 38.5039 11.8516 38.5039 12.1016C38.5039 12.5 38.4102 12.8867 38.2227 13.2617C38.043 13.6367 37.7969 13.9688 37.4844 14.2578C37.1797 14.5391 36.8281 14.7539 36.4297 14.9023C36.0312 15.043 35.625 15.0742 35.2109 14.9961C35.2188 15.2227 35.293 15.4062 35.4336 15.5469C35.582 15.6797 35.7578 15.7812 35.9609 15.8516C36.1641 15.9219 36.375 15.9688 36.5938 15.9922C36.8125 16.0078 37.0078 16.0156 37.1797 16.0156C37.3594 16.0156 37.5273 16 37.6836 15.9688C37.8398 15.9375 37.9961 15.9023 38.1523 15.8633C38.3086 15.8242 38.4648 15.7891 38.6211 15.7578C38.7852 15.7266 38.957 15.7109 39.1367 15.7109C39.207 15.7109 39.2773 15.7148 39.3477 15.7227C39.418 15.7305 39.4844 15.75 39.5469 15.7812C39.6094 15.8047 39.6602 15.8477 39.6992 15.9102C39.7383 15.9648 39.7578 16.0352 39.7578 16.1211C39.7578 16.2695 39.7031 16.3945 39.5938 16.4961C39.4844 16.5898 39.3438 16.6719 39.1719 16.7422C39.0078 16.8125 38.8242 16.8672 38.6211 16.9062C38.418 16.9375 38.2188 16.9648 38.0234 16.9883C37.8359 17.0039 37.6602 17.0117 37.4961 17.0117C37.3398 17.0195 37.2227 17.0234 37.1445 17.0234C36.6445 17.0234 36.1953 16.9453 35.7969 16.7891C35.3984 16.625 35.0625 16.4023 34.7891 16.1211C34.5156 15.832 34.3047 15.4883 34.1562 15.0898C34.0156 14.6836 33.9453 14.2344 33.9453 13.7422ZM35.1875 12.9805C35.1875 13.2539 35.2227 13.4531 35.293 13.5781C35.3711 13.7031 35.5547 13.7656 35.8438 13.7656C36.0469 13.7656 36.2461 13.7305 36.4414 13.6602C36.6367 13.582 36.8125 13.4766 36.9688 13.3438C37.1328 13.2109 37.2617 13.0547 37.3555 12.875C37.4492 12.6953 37.4961 12.5 37.4961 12.2891C37.4961 12.1719 37.4844 12.0508 37.4609 11.9258C37.4453 11.8008 37.4062 11.6875 37.3438 11.5859C37.2812 11.4766 37.1992 11.3906 37.0977 11.3281C37.0039 11.2578 36.8789 11.2227 36.7227 11.2227C36.4883 11.2227 36.2734 11.2773 36.0781 11.3867C35.8906 11.4883 35.7305 11.625 35.5977 11.7969C35.4648 11.9609 35.3633 12.1484 35.293 12.3594C35.2227 12.5625 35.1875 12.7695 35.1875 12.9805ZM40.2266 12.0781C40.2266 11.8828 40.2578 11.7305 40.3203 11.6211C40.3906 11.5117 40.5352 11.457 40.7539 11.457C40.7773 11.457 40.8203 11.4609 40.8828 11.4688C40.9531 11.4688 40.9961 11.4688 41.0117 11.4688C41.0664 11.7109 41.1211 11.9766 41.1758 12.2656C41.2383 12.5469 41.3086 12.832 41.3867 13.1211C41.4648 13.4102 41.5508 13.6953 41.6445 13.9766C41.7461 14.2578 41.8672 14.5117 42.0078 14.7383C42.1484 14.5898 42.25 14.4141 42.3125 14.2109C42.375 14.0078 42.4219 13.8047 42.4531 13.6016C42.4844 13.3906 42.5117 13.1914 42.5352 13.0039C42.5664 12.8086 42.625 12.6445 42.7109 12.5117C42.7969 12.3711 42.9219 12.2695 43.0859 12.207C43.2578 12.1445 43.4922 12.1445 43.7891 12.207C44.1172 12.207 44.3789 12.2695 44.5742 12.3945C44.7695 12.5117 44.9375 12.6641 45.0781 12.8516C45.2266 13.0312 45.3672 13.2266 45.5 13.4375C45.6406 13.6406 45.8164 13.8242 46.0273 13.9883C46.0742 13.8867 46.1328 13.7617 46.2031 13.6133C46.2734 13.457 46.3594 13.2969 46.4609 13.1328C46.5703 12.9609 46.6836 12.793 46.8008 12.6289C46.9258 12.457 47.0547 12.3047 47.1875 12.1719C47.3203 12.0312 47.457 11.918 47.5977 11.832C47.7383 11.7383 47.875 11.6914 48.0078 11.6914C48.3281 11.6914 48.6055 11.793 48.8398 11.9961C49.0742 12.1914 49.2734 12.4414 49.4375 12.7461C49.6094 13.043 49.75 13.3789 49.8594 13.7539C49.9688 14.1211 50.0547 14.4766 50.1172 14.8203C50.1797 15.1641 50.2227 15.4805 50.2461 15.7695C50.2773 16.0508 50.293 16.2539 50.293 16.3789C50.293 16.4805 50.2695 16.5586 50.2227 16.6133C50.1758 16.668 50.1172 16.7109 50.0469 16.7422C49.9766 16.7656 49.8984 16.7812 49.8125 16.7891C49.7344 16.7969 49.6602 16.8008 49.5898 16.8008C49.5742 16.8008 49.5508 16.8008 49.5195 16.8008C49.4883 16.793 49.4531 16.7852 49.4141 16.7773C49.3828 16.7695 49.3398 16.7578 49.2852 16.7422L48.5234 13.2383C48.5234 13.2148 48.4922 13.1719 48.4297 13.1094C48.3672 13.0391 48.3203 12.9961 48.2891 12.9805C48.2656 12.9805 48.2461 12.9766 48.2305 12.9688C48.2148 12.9688 48.2031 12.9688 48.1953 12.9688C48.1875 12.9609 48.1797 12.957 48.1719 12.957C48.0078 12.957 47.8516 13.0234 47.7031 13.1562C47.5625 13.2891 47.4297 13.457 47.3047 13.6602C47.1797 13.8633 47.0625 14.0898 46.9531 14.3398C46.8438 14.5898 46.7461 14.8398 46.6602 15.0898C46.5742 15.332 46.4961 15.5586 46.4258 15.7695C46.3633 15.9727 46.3125 16.1289 46.2734 16.2383C46.2422 16.2539 46.1797 16.2695 46.0859 16.2852C45.9922 16.293 45.9297 16.2969 45.8984 16.2969C45.6797 16.2969 45.5117 16.2227 45.3945 16.0742C45.2773 15.918 45.1797 15.7266 45.1016 15.5C45.0312 15.2734 44.9688 15.0273 44.9141 14.7617C44.8672 14.4883 44.8047 14.2383 44.7266 14.0117C44.6562 13.7852 44.5547 13.5977 44.4219 13.4492C44.2969 13.293 44.1172 13.2148 43.8828 13.2148C43.7969 13.2148 43.7148 13.3008 43.6367 13.4727C43.5586 13.6445 43.4883 13.8633 43.4258 14.1289C43.3633 14.3867 43.3047 14.668 43.25 14.9727C43.1953 15.2695 43.1484 15.5508 43.1094 15.8164C43.0781 16.0742 43.0547 16.293 43.0391 16.4727C43.0234 16.6523 43.0156 16.7422 43.0156 16.7422C43 16.7656 42.9688 16.793 42.9219 16.8242C42.875 16.8477 42.8242 16.875 42.7695 16.9062C42.7227 16.9375 42.6719 16.9609 42.6172 16.9766C42.5703 16.9922 42.5352 17 42.5117 17C42.293 17 42.082 16.9023 41.8789 16.707C41.6758 16.5039 41.4883 16.2461 41.3164 15.9336C41.1523 15.6133 41 15.2617 40.8594 14.8789C40.7266 14.4961 40.6133 14.1211 40.5195 13.7539C40.4258 13.3867 40.3516 13.0547 40.2969 12.7578C40.25 12.4609 40.2266 12.2344 40.2266 12.0781ZM55.8125 15.4883C55.5156 15.6914 55.2578 15.875 55.0391 16.0391C54.8281 16.1953 54.6211 16.3281 54.418 16.4375C54.2148 16.5469 53.9961 16.6289 53.7617 16.6836C53.5352 16.7383 53.2539 16.7656 52.918 16.7656C52.1914 16.7656 51.6523 16.5742 51.3008 16.1914C50.9492 15.8008 50.7734 15.2227 50.7734 14.457C50.7734 14.1602 50.8125 13.8516 50.8906 13.5312C50.9688 13.2109 51.082 12.8945 51.2305 12.582C51.3867 12.2617 51.5703 11.9609 51.7812 11.6797C51.9922 11.3906 52.2305 11.1367 52.4961 10.918C52.7617 10.6992 53.043 10.5273 53.3398 10.4023C53.6445 10.2695 53.9648 10.2031 54.3008 10.2031C54.8633 10.2578 55.3047 10.3984 55.625 10.625C55.9453 10.8438 56.1875 11.1289 56.3516 11.4805C56.5156 11.8242 56.6289 12.2109 56.6914 12.6406C56.7539 13.0625 56.8008 13.5 56.832 13.9531C56.8711 14.4062 56.918 14.8594 56.9727 15.3125C57.0273 15.7656 57.1406 16.1836 57.3125 16.5664C57.2109 16.8242 57.1133 17.0039 57.0195 17.1055C56.9336 17.2148 56.8359 17.2344 56.7266 17.1641C56.6172 17.0938 56.4883 16.9219 56.3398 16.6484C56.1992 16.375 56.0234 15.9883 55.8125 15.4883ZM51.7695 14.4805C51.7695 14.9258 51.8516 15.2539 52.0156 15.4648C52.1875 15.668 52.4883 15.7695 52.918 15.7695C53.2383 15.7695 53.543 15.7148 53.832 15.6055C54.1289 15.4883 54.3867 15.332 54.6055 15.1367C54.8242 14.9336 55 14.6914 55.1328 14.4102C55.2656 14.1289 55.332 13.8164 55.332 13.4727C55.332 13.332 55.3359 13.1367 55.3438 12.8867C55.3516 12.6289 55.3359 12.375 55.2969 12.125C55.2578 11.875 55.1836 11.6602 55.0742 11.4805C54.9648 11.293 54.8008 11.1992 54.582 11.1992C54.1758 11.1992 53.8008 11.3047 53.457 11.5156C53.1133 11.7188 52.8164 11.9805 52.5664 12.3008C52.3164 12.6211 52.1211 12.9766 51.9805 13.3672C51.8398 13.75 51.7695 14.1211 51.7695 14.4805ZM58.543 12.6055C58.543 12.5586 58.543 12.4844 58.543 12.3828C58.5508 12.2734 58.5547 12.1602 58.5547 12.043C58.5625 11.9258 58.5664 11.8125 58.5664 11.7031C58.5742 11.5938 58.5781 11.5156 58.5781 11.4688C58.6641 11.3438 58.7734 11.2422 58.9062 11.1641C59.0469 11.0859 59.1875 11.0234 59.3281 10.9766C59.3516 11.3984 59.418 11.8477 59.5273 12.3242C59.6367 12.8008 59.7539 13.2812 59.8789 13.7656C60.0039 14.2422 60.1133 14.7148 60.207 15.1836C60.3086 15.6523 60.3594 16.0898 60.3594 16.4961C60.3594 16.8477 60.1797 17.0234 59.8203 17.0234C59.6016 17.0234 59.418 16.9336 59.2695 16.7539C59.1211 16.5742 59 16.3477 58.9062 16.0742C58.8203 15.793 58.75 15.4844 58.6953 15.1484C58.6406 14.8047 58.6016 14.4688 58.5781 14.1406C58.5625 13.8125 58.5508 13.5117 58.543 13.2383C58.543 12.9648 58.543 12.7539 58.543 12.6055ZM58.707 8.21094C58.8555 8.27344 58.9805 8.375 59.082 8.51562C59.1836 8.65625 59.2266 8.78516 59.2109 8.90234C59.2031 9.01172 59.1172 9.08984 58.9531 9.13672C58.7891 9.17578 58.5156 9.12891 58.1328 8.99609C58.1328 8.78516 58.1719 8.60156 58.25 8.44531C58.3359 8.28906 58.4883 8.21094 58.707 8.21094ZM61.0977 10.3672C61.0977 10.1406 61.082 9.92188 61.0508 9.71094C61.0195 9.49219 61.0117 9.30078 61.0273 9.13672C61.043 8.96484 61.1016 8.82812 61.2031 8.72656C61.3125 8.625 61.5078 8.57422 61.7891 8.57422C61.875 8.75391 61.957 9.02734 62.0352 9.39453C62.1211 9.76172 62.2031 10.1836 62.2812 10.6602C62.3594 11.1367 62.4336 11.6562 62.5039 12.2188C62.5742 12.7734 62.6367 13.332 62.6914 13.8945C62.7539 14.457 62.8047 15.0117 62.8438 15.5586C62.8906 16.0977 62.9258 16.5898 62.9492 17.0352C62.6914 17.207 62.4844 17.2188 62.3281 17.0703C62.1719 16.9219 62.043 16.6719 61.9414 16.3203C61.8398 15.9609 61.7617 15.5273 61.707 15.0195C61.6523 14.5039 61.5977 13.9727 61.543 13.4258C61.4961 12.8711 61.4375 12.3281 61.3672 11.7969C61.2969 11.2578 61.207 10.7812 61.0977 10.3672ZM64.9531 16.0508C65.3047 16.0508 65.4805 16.2344 65.4805 16.6016C65.3945 16.8281 65.2852 16.9766 65.1523 17.0469C65.0195 17.125 64.8945 17.1523 64.7773 17.1289C64.668 17.1133 64.5664 17.0586 64.4727 16.9648C64.3867 16.8711 64.3398 16.7656 64.332 16.6484C64.3242 16.5312 64.3672 16.418 64.4609 16.3086C64.5547 16.1914 64.7188 16.1055 64.9531 16.0508ZM63.4414 20.6914C63.668 20.6914 63.875 20.75 64.0625 20.8672C64.25 20.9844 64.4492 21.1094 64.6602 21.2422C64.8633 21.3828 65.0859 21.5117 65.3281 21.6289C65.5703 21.7461 65.8516 21.8047 66.1719 21.8047C66.4922 21.8047 66.8047 21.7617 67.1094 21.6758C67.4141 21.5977 67.6875 21.4727 67.9297 21.3008C68.1719 21.1367 68.3672 20.918 68.5156 20.6445C68.6641 20.3789 68.7383 20.0625 68.7383 19.6953C68.7383 19.0859 68.6875 18.4531 68.5859 17.7969C68.4922 17.1406 68.3672 16.4883 68.2109 15.8398C68.0625 15.1836 67.8984 14.5469 67.7188 13.9297C67.5469 13.3125 67.3867 12.7422 67.2383 12.2188C67.2383 12.2109 67.2344 12.1914 67.2266 12.1602C67.2188 12.1289 67.2148 12.1094 67.2148 12.1016C67.2148 11.9453 67.2695 11.8398 67.3789 11.7852C67.4883 11.7227 67.6055 11.6914 67.7305 11.6914C67.7617 11.6914 67.8086 11.6953 67.8711 11.7031C67.9336 11.7109 67.9727 11.7148 67.9883 11.7148C68.2305 12.3242 68.457 12.9492 68.668 13.5898C68.8867 14.2227 69.0781 14.8672 69.2422 15.5234C69.4062 16.1797 69.5352 16.8359 69.6289 17.4922C69.7227 18.1562 69.7695 18.8125 69.7695 19.4609C69.7695 19.9688 69.6797 20.4297 69.5 20.8438C69.3281 21.2578 69.0859 21.6094 68.7734 21.8984C68.4609 22.1875 68.0859 22.4102 67.6484 22.5664C67.2188 22.7227 66.75 22.8008 66.2422 22.8008C65.9062 22.8008 65.5742 22.7617 65.2461 22.6836C64.9102 22.6133 64.6094 22.4961 64.3438 22.332C64.0703 22.168 63.8516 21.9492 63.6875 21.6758C63.5234 21.4102 63.4414 21.082 63.4414 20.6914ZM66.1953 8.83203C66.1953 8.80859 66.1953 8.76172 66.1953 8.69141C66.1953 8.62109 66.2031 8.55078 66.2188 8.48047C66.2344 8.40234 66.2617 8.33594 66.3008 8.28125C66.3398 8.22656 66.3984 8.19922 66.4766 8.19922C66.6094 8.19922 66.7109 8.21875 66.7812 8.25781C66.8516 8.28906 66.9023 8.33203 66.9336 8.38672C66.9648 8.43359 66.9844 8.49609 66.9922 8.57422C67 8.64453 67.0039 8.72656 67.0039 8.82031C67.0039 8.88281 67 8.95312 66.9922 9.03125C66.9844 9.10938 66.9688 9.18359 66.9453 9.25391C66.9219 9.32422 66.8828 9.38281 66.8281 9.42969C66.7734 9.46875 66.6992 9.48828 66.6055 9.48828C66.5117 9.48828 66.4375 9.46875 66.3828 9.42969C66.3281 9.38281 66.2852 9.32812 66.2539 9.26562C66.2305 9.20312 66.2148 9.13281 66.207 9.05469C66.1992 8.97656 66.1953 8.90234 66.1953 8.83203ZM71.9961 16.4727C72.1211 16.3867 72.2695 16.2773 72.4414 16.1445C72.6211 16.0039 72.8008 15.8555 72.9805 15.6992C73.1602 15.543 73.3281 15.3789 73.4844 15.207C73.6406 15.0352 73.7617 14.8711 73.8477 14.7148C73.9414 14.5508 73.9883 14.3984 73.9883 14.2578C73.9883 14.1172 73.918 14 73.7773 13.9062C73.5273 13.9062 73.2539 13.918 72.957 13.9414C72.6602 13.957 72.3633 13.9648 72.0664 13.9648C71.7695 13.957 71.4805 13.9297 71.1992 13.8828C70.9258 13.8359 70.6797 13.75 70.4609 13.625C70.2422 13.5 70.0664 13.3242 69.9336 13.0977C69.8086 12.8633 69.7461 12.5664 69.7461 12.207C69.7461 11.7852 69.8242 11.4062 69.9805 11.0703C70.1445 10.7266 70.3594 10.4258 70.625 10.168C70.8906 9.90234 71.1875 9.67188 71.5156 9.47656C71.8516 9.27344 72.1875 9.10156 72.5234 8.96094C72.7266 9.01562 72.9141 9.11328 73.0859 9.25391C73.2578 9.39453 73.4062 9.55078 73.5312 9.72266C73.4766 9.89453 73.3672 10.0273 73.2031 10.1211C73.0469 10.2148 72.8633 10.2969 72.6523 10.3672C72.4492 10.4375 72.2344 10.5117 72.0078 10.5898C71.7812 10.668 71.5742 10.7734 71.3867 10.9062C71.207 11.0312 71.0547 11.1992 70.9297 11.4102C70.8047 11.6133 70.7422 11.8828 70.7422 12.2188C70.7422 12.4688 70.8047 12.6523 70.9297 12.7695C71.0547 12.8867 71.2188 12.9688 71.4219 13.0156C71.625 13.0547 71.8555 13.0703 72.1133 13.0625C72.3711 13.0469 72.6328 13.0273 72.8984 13.0039C73.1719 12.9805 73.4375 12.9688 73.6953 12.9688C73.9531 12.9609 74.1836 12.9922 74.3867 13.0625C74.5898 13.125 74.75 13.2305 74.8672 13.3789C74.9922 13.5273 75.0547 13.7461 75.0547 14.0352C75.0547 14.1602 75.0117 14.3203 74.9258 14.5156C74.8477 14.7109 74.7383 14.9219 74.5977 15.1484C74.4648 15.3672 74.3047 15.5859 74.1172 15.8047C73.9375 16.0234 73.7461 16.2227 73.543 16.4023C73.3477 16.5742 73.1484 16.7188 72.9453 16.8359C72.75 16.9453 72.5664 17 72.3945 17C72.2305 17 72.1211 16.9414 72.0664 16.8242C72.0195 16.707 71.9961 16.5898 71.9961 16.4727Z" fill="#AAAAAA"/>
</svg>
