<svg width="244" height="24" viewBox="0 0 244 24" fill="none" xmlns="http://www.w3.org/2000/svg">
<path d="M2.00001 18.1546C22.3605 14.1392 33 15 37 14M2.00001 18.1546L5.68657 22.3093M2.00001 18.1546L5.68657 14" stroke="#AAAAAA" stroke-width="2" stroke-linecap="round"/>
<path d="M45.7334 9.03711C46.0635 8.86784 46.3724 8.74512 46.6602 8.66895C46.9564 8.58431 47.2484 8.5293 47.5361 8.50391C47.8324 8.47005 48.1286 8.45312 48.4248 8.45312C48.7295 8.45312 49.0596 8.45312 49.415 8.45312C49.4827 8.45312 49.597 8.45736 49.7578 8.46582C49.9271 8.46582 50.1048 8.46582 50.291 8.46582C50.4857 8.46582 50.6634 8.46582 50.8242 8.46582C50.985 8.46582 51.0993 8.46582 51.167 8.46582C51.2601 8.49967 51.332 8.55892 51.3828 8.64355C51.4336 8.72819 51.4717 8.81706 51.4971 8.91016C51.5225 9.00326 51.5394 9.10059 51.5479 9.20215C51.5563 9.29525 51.5605 9.36719 51.5605 9.41797H47.3711V12.1475H51.916C51.916 12.4352 51.8271 12.6637 51.6494 12.833C51.4717 12.9938 51.2474 13.1208 50.9766 13.2139C50.7142 13.307 50.418 13.3704 50.0879 13.4043C49.7578 13.4297 49.4447 13.4424 49.1484 13.4424C48.8522 13.4339 48.5898 13.4212 48.3613 13.4043C48.1328 13.3874 47.9805 13.3789 47.9043 13.3789V13.6455C47.9043 14.001 47.9889 14.3395 48.1582 14.6611C48.3275 14.9743 48.5137 15.279 48.7168 15.5752C48.9284 15.8714 49.1188 16.1634 49.2881 16.4512C49.4658 16.7389 49.5547 17.0309 49.5547 17.3271C49.5547 17.5133 49.5166 17.6784 49.4404 17.8223C49.3643 17.9577 49.2246 18.0254 49.0215 18.0254C48.8099 18.0254 48.5983 17.9154 48.3867 17.6953C48.1836 17.4753 47.9847 17.1833 47.79 16.8193C47.5954 16.4469 47.4092 16.0238 47.2314 15.5498C47.0622 15.0674 46.8971 14.568 46.7363 14.0518C46.584 13.527 46.4443 13.0107 46.3174 12.5029C46.1989 11.9867 46.0973 11.5085 46.0127 11.0684C45.9281 10.6198 45.8604 10.2262 45.8096 9.8877C45.7588 9.54915 45.7334 9.30371 45.7334 9.15137V9.03711ZM52.5127 15.4229C52.5127 14.8981 52.6354 14.4115 52.8809 13.9629C53.1263 13.5059 53.4479 13.1165 53.8457 12.7949C54.252 12.4648 54.7048 12.2067 55.2041 12.0205C55.7119 11.8343 56.224 11.7412 56.7402 11.7412C57.028 11.7412 57.2819 11.8343 57.502 12.0205C57.7305 12.2067 57.9209 12.4352 58.0732 12.7061C58.2256 12.9684 58.3398 13.2477 58.416 13.5439C58.5007 13.8402 58.543 14.0983 58.543 14.3184C58.543 14.7923 58.4287 15.2536 58.2002 15.7021C57.9717 16.1423 57.6755 16.5358 57.3115 16.8828C56.9476 17.2214 56.5371 17.4964 56.0801 17.708C55.623 17.9196 55.166 18.0254 54.709 18.0254C54.3027 18.0254 53.96 17.9577 53.6807 17.8223C53.4014 17.6784 53.1771 17.4922 53.0078 17.2637C52.8385 17.0267 52.7116 16.7516 52.627 16.4385C52.5508 16.1169 52.5127 15.7783 52.5127 15.4229ZM53.5918 15.5498C53.5918 15.7699 53.6087 15.9645 53.6426 16.1338C53.6849 16.2946 53.7526 16.4342 53.8457 16.5527C53.9473 16.6712 54.0785 16.7643 54.2393 16.832C54.4001 16.8913 54.599 16.9209 54.8359 16.9209C55.1491 16.9209 55.4622 16.8363 55.7754 16.667C56.0885 16.4893 56.3678 16.2692 56.6133 16.0068C56.8672 15.736 57.0703 15.4398 57.2227 15.1182C57.375 14.7965 57.4512 14.4834 57.4512 14.1787C57.4512 14.0433 57.4385 13.8952 57.4131 13.7344C57.3877 13.5736 57.3454 13.4255 57.2861 13.29C57.2269 13.1546 57.1423 13.0404 57.0322 12.9473C56.9222 12.8542 56.7826 12.8076 56.6133 12.8076C56.4609 12.8076 56.279 12.8584 56.0674 12.96C55.8643 13.0615 55.6484 13.1927 55.4199 13.3535C55.1999 13.5143 54.9798 13.6963 54.7598 13.8994C54.5482 14.1025 54.3535 14.3057 54.1758 14.5088C53.998 14.7119 53.8542 14.9066 53.7441 15.0928C53.6426 15.279 53.5918 15.4313 53.5918 15.5498ZM59.0381 13.7217C59.0381 13.5016 59.0931 13.3451 59.2031 13.252C59.3132 13.1504 59.4909 13.0996 59.7363 13.0996H59.8633C59.8887 13.235 59.9183 13.3916 59.9521 13.5693C59.986 13.7471 60.0368 13.929 60.1045 14.1152C60.1722 14.3014 60.2526 14.4749 60.3457 14.6357C60.4388 14.7881 60.5531 14.9108 60.6885 15.0039C60.6969 14.7077 60.7689 14.4242 60.9043 14.1533C61.0482 13.874 61.2217 13.6286 61.4248 13.417C61.6364 13.1969 61.8649 13.015 62.1104 12.8711C62.3643 12.7188 62.6139 12.6172 62.8594 12.5664H63.1387C63.5449 12.5664 63.8919 12.6595 64.1797 12.8457C64.4674 13.0234 64.7044 13.2604 64.8906 13.5566C65.0853 13.8444 65.2334 14.1745 65.335 14.5469C65.4365 14.9193 65.5127 15.3001 65.5635 15.6895C65.6227 16.0703 65.6566 16.4427 65.665 16.8066C65.682 17.1621 65.6904 17.4668 65.6904 17.7207H64.7637C64.7129 17.2129 64.6494 16.7262 64.5732 16.2607C64.5479 16.0745 64.514 15.8799 64.4717 15.6768C64.4294 15.4652 64.3828 15.2705 64.332 15.0928C64.2812 14.9066 64.2262 14.7373 64.167 14.585C64.1077 14.4242 64.04 14.2887 63.9639 14.1787C63.93 14.1449 63.8835 14.0983 63.8242 14.0391C63.7734 13.9798 63.7184 13.9206 63.6592 13.8613C63.5999 13.8021 63.5449 13.7513 63.4941 13.709C63.4434 13.6667 63.4137 13.6455 63.4053 13.6455C63.1514 13.5778 62.9313 13.6286 62.7451 13.7979C62.5589 13.9587 62.3939 14.1787 62.25 14.458C62.1061 14.7373 61.9876 15.0547 61.8945 15.4102C61.8099 15.7656 61.738 16.1084 61.6787 16.4385C61.6195 16.7601 61.5771 17.0436 61.5518 17.2891C61.5264 17.526 61.5094 17.6699 61.501 17.7207C61.2894 17.873 61.0905 17.9196 60.9043 17.8604C60.7181 17.7926 60.5404 17.6572 60.3711 17.4541C60.2103 17.251 60.0622 16.9971 59.9268 16.6924C59.7998 16.3877 59.6813 16.0661 59.5713 15.7275C59.4613 15.3805 59.3597 15.0335 59.2666 14.6865C59.182 14.3395 59.1058 14.0179 59.0381 13.7217ZM66.1094 11.6016C66.1094 11.5762 66.1136 11.555 66.1221 11.5381C66.1221 11.5212 66.1263 11.5 66.1348 11.4746C66.1686 11.4323 66.2194 11.3773 66.2871 11.3096C66.3548 11.2419 66.3971 11.208 66.4141 11.208H68.9658C68.9658 11.1149 68.9531 10.9668 68.9277 10.7637C68.9023 10.5605 68.877 10.3363 68.8516 10.0908C68.8346 9.84538 68.8304 9.59147 68.8389 9.3291C68.8473 9.05827 68.8812 8.81706 68.9404 8.60547C69.0081 8.38542 69.1097 8.20768 69.2451 8.07227C69.389 7.92839 69.5879 7.85645 69.8418 7.85645C69.8418 8.71126 69.901 9.39681 70.0195 9.91309C70.138 10.4294 70.2946 10.8271 70.4893 11.1064C70.6924 11.3857 70.9209 11.5677 71.1748 11.6523C71.4287 11.737 71.6868 11.7751 71.9492 11.7666C72.2201 11.7497 72.4824 11.7074 72.7363 11.6396C72.9902 11.5719 73.2145 11.5254 73.4092 11.5C73.6123 11.4746 73.7731 11.4958 73.8916 11.5635C74.0101 11.6227 74.0693 11.7708 74.0693 12.0078C74.0693 12.1855 74.027 12.3125 73.9424 12.3887C73.8662 12.4648 73.7139 12.5241 73.4854 12.5664C73.4176 12.5749 73.3034 12.5918 73.1426 12.6172C72.9902 12.6341 72.8167 12.651 72.6221 12.668C72.4274 12.6849 72.2201 12.7061 72 12.7314C71.7799 12.7484 71.5726 12.7653 71.3779 12.7822C71.1833 12.7992 71.0055 12.8118 70.8447 12.8203C70.6839 12.8203 70.5654 12.8203 70.4893 12.8203C70.4893 12.8626 70.485 12.9346 70.4766 13.0361C70.4681 13.1377 70.4639 13.2054 70.4639 13.2393C70.4639 13.6117 70.5231 13.9756 70.6416 14.3311C70.7601 14.6781 70.887 15.0251 71.0225 15.3721C71.1663 15.7191 71.2975 16.0661 71.416 16.4131C71.5345 16.7601 71.5938 17.1198 71.5938 17.4922C71.5938 17.5599 71.5853 17.6318 71.5684 17.708C71.5599 17.7757 71.5345 17.8392 71.4922 17.8984C71.4583 17.9492 71.4033 17.9873 71.3271 18.0127C71.2594 18.0465 71.1621 18.0423 71.0352 18C70.7135 17.9154 70.4723 17.7334 70.3115 17.4541C70.1592 17.1748 70.0449 16.8447 69.9688 16.4639C69.8926 16.0745 69.8418 15.6641 69.8164 15.2324C69.791 14.8008 69.7487 14.3988 69.6895 14.0264C69.6387 13.6455 69.554 13.3239 69.4355 13.0615C69.3171 12.7907 69.1266 12.6257 68.8643 12.5664L66.4141 12.0078C66.3802 12.0078 66.3294 11.974 66.2617 11.9062C66.194 11.8301 66.1517 11.7751 66.1348 11.7412C66.1263 11.7243 66.1221 11.7031 66.1221 11.6777C66.1136 11.6608 66.1094 11.6354 66.1094 11.6016ZM75.2627 13.874C75.2627 13.8486 75.2669 13.8021 75.2754 13.7344C75.2839 13.6582 75.2881 13.6159 75.2881 13.6074C75.4235 13.6074 75.6055 13.599 75.834 13.582C76.071 13.5566 76.3291 13.5355 76.6084 13.5186C76.8877 13.4932 77.1755 13.4678 77.4717 13.4424C77.7764 13.417 78.0641 13.4001 78.335 13.3916C78.6058 13.3831 78.8555 13.3789 79.084 13.3789C79.3125 13.3789 79.4902 13.3916 79.6172 13.417C79.7695 13.417 79.8753 13.4339 79.9346 13.4678C80.0023 13.5016 80.0361 13.6159 80.0361 13.8105C79.7822 13.9798 79.4648 14.1068 79.084 14.1914C78.7031 14.2676 78.3138 14.3226 77.916 14.3564C77.5182 14.3903 77.1289 14.4072 76.748 14.4072C76.3757 14.4072 76.071 14.4115 75.834 14.4199C75.6055 14.4368 75.4531 14.3903 75.377 14.2803C75.3008 14.1702 75.2627 14.0348 75.2627 13.874ZM86.2441 19.1807C86.0664 18.8506 85.8675 18.4401 85.6475 17.9492C85.4359 17.4499 85.2158 16.9336 84.9873 16.4004C84.7588 15.8587 84.5176 15.3298 84.2637 14.8135C84.0182 14.2972 83.7686 13.8486 83.5146 13.4678C83.4131 13.3916 83.2734 13.3451 83.0957 13.3281C82.918 13.3112 82.7318 13.307 82.5371 13.3154C82.3424 13.3154 82.1478 13.3112 81.9531 13.3027C81.7669 13.2858 81.6019 13.2393 81.458 13.1631C81.3226 13.0869 81.221 12.9684 81.1533 12.8076C81.0856 12.6468 81.0729 12.4141 81.1152 12.1094H83.248C83.2904 11.6354 83.3623 11.1657 83.4639 10.7002C83.5654 10.2347 83.7008 9.79036 83.8701 9.36719C84.0479 8.94401 84.2594 8.55046 84.5049 8.18652C84.7503 7.82259 85.0465 7.50944 85.3936 7.24707C85.7406 6.9847 86.1383 6.77734 86.5869 6.625C87.0439 6.47266 87.5602 6.39648 88.1357 6.39648C88.3389 6.39648 88.542 6.44727 88.7451 6.54883C88.9482 6.64193 89.1302 6.76888 89.291 6.92969C89.4518 7.09049 89.5788 7.27246 89.6719 7.47559C89.7734 7.67871 89.8242 7.88184 89.8242 8.08496C89.6634 8.08496 89.5195 8.05534 89.3926 7.99609C89.2656 7.92839 89.1429 7.85645 89.0244 7.78027C88.9059 7.69564 88.779 7.61947 88.6436 7.55176C88.5081 7.47559 88.3558 7.4375 88.1865 7.4375C87.6787 7.4375 87.2048 7.53906 86.7646 7.74219C86.333 7.94531 85.9521 8.21615 85.6221 8.55469C85.3005 8.89323 85.0465 9.28678 84.8604 9.73535C84.6742 10.1839 84.5811 10.6579 84.5811 11.1572C84.5811 11.1911 84.5811 11.2546 84.5811 11.3477C84.5895 11.4323 84.5938 11.5254 84.5938 11.627C84.5938 11.7285 84.5938 11.8258 84.5938 11.9189C84.6022 12.012 84.6064 12.0755 84.6064 12.1094C84.9196 12.2109 85.2708 12.2871 85.6602 12.3379C86.0495 12.3887 86.4388 12.4225 86.8281 12.4395C87.2259 12.4479 87.6068 12.4437 87.9707 12.4268C88.3431 12.4098 88.6732 12.3887 88.9609 12.3633C88.9863 12.3887 89.0329 12.4352 89.1006 12.5029C89.1683 12.5706 89.2064 12.6214 89.2148 12.6553C89.2148 12.6807 89.2191 12.6976 89.2275 12.7061C89.2445 12.7568 89.2529 12.7822 89.2529 12.7822C89.2529 12.96 89.1598 13.0996 88.9736 13.2012C88.7874 13.3027 88.5505 13.3789 88.2627 13.4297C87.9749 13.472 87.6533 13.5016 87.2979 13.5186C86.9508 13.5355 86.6123 13.5524 86.2822 13.5693C85.9606 13.5778 85.6686 13.5947 85.4062 13.6201C85.1523 13.637 84.9746 13.6751 84.873 13.7344C84.9831 14.2422 85.1777 14.7331 85.457 15.207C85.7448 15.681 86.0368 16.1549 86.333 16.6289C86.6292 17.1029 86.8916 17.5811 87.1201 18.0635C87.3486 18.5459 87.4629 19.041 87.4629 19.5488C87.429 19.5488 87.3486 19.5488 87.2217 19.5488C87.1032 19.5573 86.9762 19.5531 86.8408 19.5361C86.7054 19.5192 86.5742 19.4811 86.4473 19.4219C86.3288 19.3711 86.2611 19.2907 86.2441 19.1807ZM95.499 16.3623C95.1774 16.5824 94.8981 16.7812 94.6611 16.959C94.4326 17.1283 94.2083 17.2721 93.9883 17.3906C93.7682 17.5091 93.5312 17.598 93.2773 17.6572C93.0319 17.7165 92.7272 17.7461 92.3633 17.7461C91.5762 17.7461 90.9922 17.5387 90.6113 17.124C90.2305 16.7008 90.04 16.0745 90.04 15.2451C90.04 14.9235 90.0824 14.5892 90.167 14.2422C90.2516 13.8952 90.3743 13.5524 90.5352 13.2139C90.7044 12.8669 90.9033 12.541 91.1318 12.2363C91.3604 11.9232 91.6185 11.6481 91.9062 11.4111C92.194 11.1742 92.4987 10.988 92.8203 10.8525C93.1504 10.7087 93.4974 10.6367 93.8613 10.6367C94.4707 10.696 94.9489 10.8483 95.2959 11.0938C95.6429 11.3307 95.9053 11.6396 96.083 12.0205C96.2607 12.3929 96.3835 12.8118 96.4512 13.2773C96.5189 13.7344 96.5697 14.2083 96.6035 14.6992C96.6458 15.1901 96.6966 15.681 96.7559 16.1719C96.8151 16.6628 96.9378 17.1156 97.124 17.5303C97.014 17.8096 96.9082 18.0042 96.8066 18.1143C96.7135 18.2327 96.6077 18.2539 96.4893 18.1777C96.3708 18.1016 96.2311 17.9154 96.0703 17.6191C95.918 17.3229 95.7275 16.904 95.499 16.3623ZM91.1191 15.2705C91.1191 15.7529 91.208 16.1084 91.3857 16.3369C91.5719 16.557 91.8978 16.667 92.3633 16.667C92.7103 16.667 93.0404 16.6077 93.3535 16.4893C93.6751 16.3623 93.9544 16.193 94.1914 15.9814C94.4284 15.7614 94.6188 15.499 94.7627 15.1943C94.9066 14.8896 94.9785 14.5511 94.9785 14.1787C94.9785 14.0264 94.9827 13.8148 94.9912 13.5439C94.9997 13.2646 94.9827 12.9896 94.9404 12.7188C94.8981 12.4479 94.8177 12.2152 94.6992 12.0205C94.5807 11.8174 94.403 11.7158 94.166 11.7158C93.7259 11.7158 93.3197 11.8301 92.9473 12.0586C92.5749 12.2786 92.2533 12.5622 91.9824 12.9092C91.7116 13.2562 91.5 13.6413 91.3477 14.0645C91.1953 14.4792 91.1191 14.8812 91.1191 15.2705ZM97.6445 12.668C97.6445 12.4564 97.6784 12.2913 97.7461 12.1729C97.8223 12.0544 97.9788 11.9951 98.2158 11.9951C98.2412 11.9951 98.2878 11.9993 98.3555 12.0078C98.4316 12.0078 98.4782 12.0078 98.4951 12.0078C98.5544 12.2702 98.6136 12.5579 98.6729 12.8711C98.7406 13.1758 98.8167 13.4847 98.9014 13.7979C98.986 14.111 99.0791 14.4199 99.1807 14.7246C99.2907 15.0293 99.4219 15.3044 99.5742 15.5498C99.7266 15.389 99.8366 15.1986 99.9043 14.9785C99.972 14.7585 100.023 14.5384 100.057 14.3184C100.09 14.0898 100.12 13.874 100.146 13.6709C100.179 13.4593 100.243 13.2816 100.336 13.1377C100.429 12.9854 100.564 12.8753 100.742 12.8076C100.928 12.7399 101.182 12.7399 101.504 12.8076C101.859 12.8076 102.143 12.8753 102.354 13.0107C102.566 13.1377 102.748 13.3027 102.9 13.5059C103.061 13.7005 103.214 13.9121 103.357 14.1406C103.51 14.3607 103.7 14.5596 103.929 14.7373C103.979 14.6273 104.043 14.4919 104.119 14.3311C104.195 14.1618 104.288 13.9883 104.398 13.8105C104.517 13.6243 104.64 13.4424 104.767 13.2646C104.902 13.0785 105.042 12.9134 105.186 12.7695C105.329 12.6172 105.478 12.4945 105.63 12.4014C105.782 12.2998 105.93 12.249 106.074 12.249C106.421 12.249 106.722 12.359 106.976 12.5791C107.229 12.7907 107.445 13.0615 107.623 13.3916C107.809 13.7132 107.962 14.0771 108.08 14.4834C108.199 14.8812 108.292 15.2663 108.359 15.6387C108.427 16.0111 108.474 16.3538 108.499 16.667C108.533 16.9717 108.55 17.1917 108.55 17.3271C108.55 17.4372 108.524 17.5218 108.474 17.5811C108.423 17.6403 108.359 17.6868 108.283 17.7207C108.207 17.7461 108.122 17.763 108.029 17.7715C107.945 17.7799 107.864 17.7842 107.788 17.7842C107.771 17.7842 107.746 17.7842 107.712 17.7842C107.678 17.7757 107.64 17.7673 107.598 17.7588C107.564 17.7503 107.517 17.7376 107.458 17.7207L106.633 13.9248C106.633 13.8994 106.599 13.8529 106.531 13.7852C106.464 13.709 106.413 13.6624 106.379 13.6455C106.354 13.6455 106.332 13.6413 106.315 13.6328C106.299 13.6328 106.286 13.6328 106.277 13.6328C106.269 13.6243 106.26 13.6201 106.252 13.6201C106.074 13.6201 105.905 13.6921 105.744 13.8359C105.592 13.9798 105.448 14.1618 105.312 14.3818C105.177 14.6019 105.05 14.8473 104.932 15.1182C104.813 15.389 104.707 15.6598 104.614 15.9307C104.521 16.193 104.437 16.4385 104.36 16.667C104.293 16.887 104.238 17.0563 104.195 17.1748C104.161 17.1917 104.094 17.2087 103.992 17.2256C103.891 17.234 103.823 17.2383 103.789 17.2383C103.552 17.2383 103.37 17.1579 103.243 16.9971C103.116 16.8278 103.01 16.6204 102.926 16.375C102.85 16.1296 102.782 15.863 102.723 15.5752C102.672 15.279 102.604 15.0081 102.52 14.7627C102.443 14.5173 102.333 14.3141 102.189 14.1533C102.054 13.984 101.859 13.8994 101.605 13.8994C101.512 13.8994 101.424 13.9925 101.339 14.1787C101.254 14.3649 101.178 14.6019 101.11 14.8896C101.043 15.1689 100.979 15.4736 100.92 15.8037C100.861 16.1253 100.81 16.43 100.768 16.7178C100.734 16.9971 100.708 17.234 100.691 17.4287C100.674 17.6234 100.666 17.7207 100.666 17.7207C100.649 17.7461 100.615 17.7757 100.564 17.8096C100.514 17.835 100.459 17.8646 100.399 17.8984C100.349 17.9323 100.294 17.9577 100.234 17.9746C100.184 17.9915 100.146 18 100.12 18C99.8831 18 99.6546 17.8942 99.4346 17.6826C99.2145 17.4626 99.0114 17.1833 98.8252 16.8447C98.6475 16.4977 98.4824 16.1169 98.3301 15.7021C98.1862 15.2874 98.0635 14.8812 97.9619 14.4834C97.8604 14.0856 97.7799 13.7259 97.7207 13.4043C97.6699 13.0827 97.6445 12.8372 97.6445 12.668ZM109.604 13.2393C109.604 13.1885 109.604 13.1081 109.604 12.998C109.612 12.8796 109.616 12.7568 109.616 12.6299C109.625 12.5029 109.629 12.3802 109.629 12.2617C109.637 12.1432 109.642 12.0586 109.642 12.0078C109.735 11.8724 109.853 11.7624 109.997 11.6777C110.149 11.5931 110.302 11.5254 110.454 11.4746C110.479 11.9316 110.551 12.4183 110.67 12.9346C110.788 13.4508 110.915 13.9714 111.051 14.4961C111.186 15.0124 111.305 15.5244 111.406 16.0322C111.516 16.54 111.571 17.014 111.571 17.4541C111.571 17.835 111.377 18.0254 110.987 18.0254C110.75 18.0254 110.551 17.9281 110.391 17.7334C110.23 17.5387 110.099 17.2933 109.997 16.9971C109.904 16.6924 109.828 16.3581 109.769 15.9941C109.709 15.6217 109.667 15.2578 109.642 14.9023C109.625 14.5469 109.612 14.221 109.604 13.9248C109.604 13.6286 109.604 13.4001 109.604 13.2393ZM109.781 8.47852C109.942 8.54622 110.077 8.65625 110.188 8.80859C110.298 8.96094 110.344 9.10059 110.327 9.22754C110.319 9.34603 110.226 9.43066 110.048 9.48145C109.87 9.52376 109.574 9.47298 109.159 9.3291C109.159 9.10059 109.201 8.90169 109.286 8.73242C109.379 8.56315 109.544 8.47852 109.781 8.47852ZM112.371 10.8145C112.371 10.569 112.354 10.332 112.32 10.1035C112.286 9.86654 112.278 9.65918 112.295 9.48145C112.312 9.29525 112.375 9.14714 112.485 9.03711C112.604 8.92708 112.815 8.87207 113.12 8.87207C113.213 9.06673 113.302 9.36296 113.387 9.76074C113.48 10.1585 113.569 10.6156 113.653 11.1318C113.738 11.6481 113.818 12.2109 113.895 12.8203C113.971 13.4212 114.038 14.0264 114.098 14.6357C114.165 15.2451 114.22 15.846 114.263 16.4385C114.313 17.0225 114.352 17.5557 114.377 18.0381C114.098 18.2243 113.873 18.237 113.704 18.0762C113.535 17.9154 113.395 17.6445 113.285 17.2637C113.175 16.8743 113.09 16.4046 113.031 15.8545C112.972 15.2959 112.913 14.7204 112.854 14.1279C112.803 13.527 112.739 12.9388 112.663 12.3633C112.587 11.7793 112.49 11.263 112.371 10.8145ZM114.821 11.4365C114.821 11.3604 114.821 11.2842 114.821 11.208C114.83 11.1234 114.847 11.0472 114.872 10.9795C114.906 10.9033 114.948 10.8483 114.999 10.8145C115.058 10.7721 115.143 10.751 115.253 10.751C115.261 10.751 115.27 10.751 115.278 10.751C115.295 10.751 115.312 10.751 115.329 10.751C115.354 10.7594 115.376 10.7637 115.393 10.7637C115.553 10.9837 115.693 11.2673 115.812 11.6143C115.93 11.9528 116.044 12.3167 116.154 12.7061C116.264 13.0869 116.383 13.4762 116.51 13.874C116.637 14.2633 116.802 14.6146 117.005 14.9277C117.208 15.2409 117.458 15.4906 117.754 15.6768C118.05 15.863 118.418 15.9434 118.858 15.918C119.053 15.918 119.18 15.8122 119.239 15.6006C119.299 15.389 119.328 15.1182 119.328 14.7881C119.337 14.458 119.328 14.0941 119.303 13.6963C119.286 13.2985 119.286 12.9219 119.303 12.5664C119.328 12.2025 119.392 11.8851 119.493 11.6143C119.603 11.3434 119.789 11.1615 120.052 11.0684C120.162 11.2884 120.251 11.6354 120.318 12.1094C120.395 12.5749 120.45 13.1165 120.483 13.7344C120.517 14.3438 120.534 15.0081 120.534 15.7275C120.534 16.4385 120.517 17.1494 120.483 17.8604C120.45 18.5628 120.399 19.2399 120.331 19.8916C120.263 20.5433 120.187 21.1146 120.103 21.6055C120.018 22.0964 119.916 22.4814 119.798 22.7607C119.688 23.0485 119.569 23.1712 119.442 23.1289C119.265 22.9596 119.125 22.7396 119.023 22.4688C118.93 22.1979 118.863 21.8975 118.82 21.5674C118.786 21.2373 118.774 20.8861 118.782 20.5137C118.791 20.1497 118.803 19.7816 118.82 19.4092C118.846 19.0368 118.871 18.6729 118.896 18.3174C118.93 17.9619 118.947 17.6361 118.947 17.3398C118.643 17.3652 118.329 17.3187 118.008 17.2002C117.695 17.0817 117.386 16.8997 117.081 16.6543C116.776 16.4004 116.484 16.0957 116.205 15.7402C115.934 15.3848 115.693 14.9827 115.481 14.5342C115.278 14.0856 115.118 13.6032 114.999 13.0869C114.881 12.5622 114.821 12.012 114.821 11.4365ZM122.108 17.3271C122.108 17.0563 122.189 16.849 122.35 16.7051C122.51 16.5527 122.709 16.4469 122.946 16.3877C123.183 16.3285 123.429 16.2946 123.683 16.2861C123.945 16.2777 124.174 16.2734 124.368 16.2734C124.368 16.5104 124.334 16.7347 124.267 16.9463C124.199 17.1579 124.097 17.3441 123.962 17.5049C123.835 17.6572 123.674 17.7842 123.479 17.8857C123.285 17.9788 123.061 18.0254 122.807 18.0254C122.544 18.0254 122.362 17.9746 122.261 17.873C122.159 17.7715 122.108 17.5895 122.108 17.3271ZM121.017 13.2393C121.017 13.1038 121.067 12.9769 121.169 12.8584C121.271 12.7399 121.393 12.6383 121.537 12.5537C121.689 12.4606 121.842 12.3887 121.994 12.3379C122.155 12.2786 122.29 12.249 122.4 12.249C122.646 12.249 122.802 12.3252 122.87 12.4775C122.938 12.6214 122.972 12.8034 122.972 13.0234C122.972 13.1842 122.938 13.3239 122.87 13.4424C122.802 13.5524 122.709 13.6455 122.591 13.7217C122.481 13.7979 122.35 13.8571 122.197 13.8994C122.045 13.9333 121.884 13.9502 121.715 13.9502C121.681 13.9502 121.66 13.946 121.651 13.9375C121.626 13.9375 121.605 13.9333 121.588 13.9248C121.562 13.9163 121.52 13.8867 121.461 13.8359C121.41 13.7852 121.355 13.7344 121.296 13.6836C121.237 13.6243 121.182 13.5651 121.131 13.5059C121.089 13.4466 121.059 13.4043 121.042 13.3789C121.034 13.362 121.029 13.3408 121.029 13.3154C121.021 13.29 121.017 13.2646 121.017 13.2393ZM130.678 12.668C130.678 12.5918 130.682 12.5156 130.69 12.4395C130.699 12.3548 130.716 12.2829 130.741 12.2236C130.767 12.1559 130.805 12.1009 130.855 12.0586C130.915 12.0163 130.995 11.9951 131.097 11.9951C131.181 11.9951 131.274 12.0628 131.376 12.1982C131.486 12.3252 131.596 12.4902 131.706 12.6934C131.816 12.888 131.922 13.1038 132.023 13.3408C132.133 13.5778 132.227 13.7979 132.303 14.001C132.387 14.1956 132.455 14.3649 132.506 14.5088C132.557 14.6527 132.586 14.7288 132.595 14.7373C132.705 14.4411 132.827 14.1195 132.963 13.7725C133.098 13.4255 133.263 13.1038 133.458 12.8076C133.661 12.5029 133.898 12.249 134.169 12.0459C134.448 11.8428 134.787 11.7412 135.185 11.7412C135.388 11.7412 135.578 11.7751 135.756 11.8428C135.942 11.902 136.103 11.9951 136.238 12.1221C136.382 12.2406 136.496 12.3844 136.581 12.5537C136.666 12.723 136.708 12.9176 136.708 13.1377C136.708 13.3239 136.632 13.4551 136.479 13.5312C136.336 13.6074 136.171 13.6455 135.984 13.6455H135.857L135.312 13.0996C135.295 13.0996 135.282 13.0954 135.273 13.0869C135.257 13.0869 135.24 13.0869 135.223 13.0869C135.214 13.0785 135.201 13.0742 135.185 13.0742C134.888 13.0742 134.656 13.1589 134.486 13.3281C134.326 13.4889 134.203 13.6921 134.118 13.9375C134.034 14.1745 133.979 14.4284 133.953 14.6992C133.936 14.9616 133.928 15.2028 133.928 15.4229C133.928 15.5921 133.945 15.7656 133.979 15.9434C134.012 16.1126 134.05 16.2819 134.093 16.4512C134.135 16.612 134.173 16.7812 134.207 16.959C134.241 17.1283 134.258 17.306 134.258 17.4922C134.258 17.8477 134.067 18.0254 133.687 18.0254C133.475 18.0254 133.255 17.9154 133.026 17.6953C132.798 17.4668 132.569 17.179 132.341 16.832C132.121 16.485 131.909 16.1042 131.706 15.6895C131.503 15.2663 131.325 14.8558 131.173 14.458C131.021 14.0602 130.898 13.7005 130.805 13.3789C130.72 13.0573 130.678 12.8203 130.678 12.668ZM137.165 14.4707C137.165 14.0137 137.22 13.5566 137.33 13.0996C137.44 12.6426 137.614 12.2321 137.851 11.8682C138.096 11.5042 138.409 11.208 138.79 10.9795C139.179 10.751 139.649 10.6367 140.199 10.6367C140.512 10.6367 140.787 10.696 141.024 10.8145C141.261 10.9245 141.46 11.0726 141.621 11.2588C141.782 11.445 141.9 11.665 141.977 11.9189C142.061 12.1644 142.104 12.4225 142.104 12.6934C142.104 13.125 142.002 13.5439 141.799 13.9502C141.604 14.3564 141.338 14.7161 140.999 15.0293C140.669 15.334 140.288 15.5667 139.856 15.7275C139.425 15.8799 138.985 15.9137 138.536 15.8291C138.545 16.0745 138.625 16.2734 138.777 16.4258C138.938 16.5697 139.129 16.6797 139.349 16.7559C139.569 16.832 139.797 16.8828 140.034 16.9082C140.271 16.9251 140.483 16.9336 140.669 16.9336C140.864 16.9336 141.046 16.9167 141.215 16.8828C141.384 16.849 141.553 16.8109 141.723 16.7686C141.892 16.7262 142.061 16.6882 142.23 16.6543C142.408 16.6204 142.594 16.6035 142.789 16.6035C142.865 16.6035 142.941 16.6077 143.018 16.6162C143.094 16.6247 143.166 16.6458 143.233 16.6797C143.301 16.7051 143.356 16.7516 143.398 16.8193C143.441 16.8786 143.462 16.9548 143.462 17.0479C143.462 17.2087 143.403 17.3441 143.284 17.4541C143.166 17.5557 143.013 17.6445 142.827 17.7207C142.649 17.7969 142.451 17.8561 142.23 17.8984C142.01 17.9323 141.795 17.9619 141.583 17.9873C141.38 18.0042 141.189 18.0127 141.012 18.0127C140.842 18.0212 140.715 18.0254 140.631 18.0254C140.089 18.0254 139.603 17.9408 139.171 17.7715C138.739 17.5938 138.375 17.3525 138.079 17.0479C137.783 16.7347 137.554 16.3623 137.394 15.9307C137.241 15.4906 137.165 15.0039 137.165 14.4707ZM138.511 13.6455C138.511 13.9417 138.549 14.1576 138.625 14.293C138.71 14.4284 138.909 14.4961 139.222 14.4961C139.442 14.4961 139.658 14.458 139.869 14.3818C140.081 14.2972 140.271 14.1829 140.44 14.0391C140.618 13.8952 140.758 13.7259 140.859 13.5312C140.961 13.3366 141.012 13.125 141.012 12.8965C141.012 12.7695 140.999 12.6383 140.974 12.5029C140.957 12.3675 140.914 12.2448 140.847 12.1348C140.779 12.0163 140.69 11.9232 140.58 11.8555C140.479 11.7793 140.343 11.7412 140.174 11.7412C139.92 11.7412 139.687 11.8005 139.476 11.9189C139.272 12.029 139.099 12.1771 138.955 12.3633C138.811 12.541 138.701 12.7441 138.625 12.9727C138.549 13.1927 138.511 13.417 138.511 13.6455ZM143.97 16.502C143.97 16.0111 144.092 15.5752 144.338 15.1943C144.583 14.8135 144.888 14.4834 145.252 14.2041C145.616 13.9163 146.009 13.6751 146.433 13.4805C146.856 13.2773 147.249 13.1123 147.613 12.9854C147.977 12.8499 148.282 12.7441 148.527 12.668C148.773 12.5833 148.896 12.5156 148.896 12.4648C148.896 12.1686 148.879 11.8809 148.845 11.6016C148.819 11.3138 148.79 11.026 148.756 10.7383C148.722 10.4505 148.688 10.167 148.654 9.8877C148.629 9.59993 148.616 9.31641 148.616 9.03711V8.21191C148.963 8.08496 149.209 8.09766 149.353 8.25C149.505 8.40234 149.53 8.66471 149.429 9.03711C149.463 9.22331 149.509 9.5153 149.568 9.91309C149.628 10.3109 149.691 10.7594 149.759 11.2588C149.835 11.7581 149.911 12.2829 149.987 12.833C150.072 13.3831 150.148 13.9121 150.216 14.4199C150.292 14.9193 150.355 15.3678 150.406 15.7656C150.457 16.1549 150.495 16.4469 150.521 16.6416C150.529 16.6839 150.537 16.7686 150.546 16.8955C150.554 17.014 150.559 17.1452 150.559 17.2891C150.567 17.4245 150.571 17.5514 150.571 17.6699C150.58 17.7884 150.584 17.873 150.584 17.9238C150.262 17.9238 150.042 17.9111 149.924 17.8857C149.814 17.8604 149.742 17.8096 149.708 17.7334C149.683 17.6572 149.67 17.5472 149.67 17.4033C149.67 17.2594 149.628 17.0605 149.543 16.8066C149.23 17.0521 148.934 17.2552 148.654 17.416C148.375 17.5768 148.096 17.708 147.816 17.8096C147.537 17.9027 147.254 17.9661 146.966 18C146.687 18.0423 146.386 18.0635 146.064 18.0635C145.794 18.0635 145.531 18.0423 145.277 18C145.032 17.9492 144.812 17.8646 144.617 17.7461C144.423 17.6276 144.266 17.4668 144.147 17.2637C144.029 17.0605 143.97 16.8066 143.97 16.502ZM145.074 16.2354C145.074 16.3708 145.104 16.4808 145.163 16.5654C145.222 16.6501 145.299 16.722 145.392 16.7812C145.485 16.8405 145.582 16.8828 145.684 16.9082C145.794 16.9251 145.899 16.9336 146.001 16.9336C146.297 16.9336 146.615 16.8786 146.953 16.7686C147.3 16.6501 147.618 16.4893 147.905 16.2861C148.201 16.0745 148.443 15.8249 148.629 15.5371C148.824 15.2493 148.921 14.9362 148.921 14.5977C148.921 14.3353 148.874 14.1533 148.781 14.0518C148.688 13.9502 148.51 13.8994 148.248 13.8994C147.977 13.8994 147.66 13.9629 147.296 14.0898C146.94 14.2168 146.593 14.3861 146.255 14.5977C145.925 14.8092 145.646 15.0589 145.417 15.3467C145.188 15.626 145.074 15.9222 145.074 16.2354ZM152.044 13.874C152.044 13.8486 152.048 13.8021 152.057 13.7344C152.065 13.6582 152.069 13.6159 152.069 13.6074C152.205 13.6074 152.387 13.599 152.615 13.582C152.852 13.5566 153.11 13.5355 153.39 13.5186C153.669 13.4932 153.957 13.4678 154.253 13.4424C154.558 13.417 154.845 13.4001 155.116 13.3916C155.387 13.3831 155.637 13.3789 155.865 13.3789C156.094 13.3789 156.271 13.3916 156.398 13.417C156.551 13.417 156.657 13.4339 156.716 13.4678C156.784 13.5016 156.817 13.6159 156.817 13.8105C156.563 13.9798 156.246 14.1068 155.865 14.1914C155.484 14.2676 155.095 14.3226 154.697 14.3564C154.299 14.3903 153.91 14.4072 153.529 14.4072C153.157 14.4072 152.852 14.4115 152.615 14.4199C152.387 14.4368 152.234 14.3903 152.158 14.2803C152.082 14.1702 152.044 14.0348 152.044 13.874ZM158.227 9.74805C158.227 9.65495 158.235 9.54069 158.252 9.40527C158.277 9.26139 158.315 9.12598 158.366 8.99902C158.425 8.87207 158.497 8.76628 158.582 8.68164C158.667 8.58854 158.777 8.54199 158.912 8.54199C158.921 8.54199 158.942 8.54622 158.976 8.55469C159.009 8.56315 159.031 8.56738 159.039 8.56738C159.183 9.09212 159.268 9.61263 159.293 10.1289C159.318 10.6452 159.31 11.1488 159.268 11.6396C159.225 12.1221 159.162 12.5918 159.077 13.0488C158.993 13.4974 158.921 13.9121 158.861 14.293C158.811 14.6738 158.777 15.0166 158.76 15.3213C158.751 15.626 158.798 15.8841 158.899 16.0957C158.882 15.9603 158.87 15.7995 158.861 15.6133C158.861 15.4186 158.878 15.2197 158.912 15.0166C158.954 14.8135 159.018 14.6104 159.103 14.4072C159.196 14.2041 159.327 14.0221 159.496 13.8613C159.665 13.7005 159.881 13.5736 160.144 13.4805C160.414 13.3874 160.749 13.3408 161.146 13.3408C161.561 13.3408 161.917 13.4128 162.213 13.5566C162.518 13.7005 162.767 13.8994 162.962 14.1533C163.157 14.3988 163.3 14.6908 163.394 15.0293C163.495 15.3594 163.546 15.7148 163.546 16.0957C163.546 16.2734 163.542 16.4766 163.533 16.7051C163.533 16.9251 163.504 17.1325 163.444 17.3271C163.394 17.5133 163.296 17.6742 163.152 17.8096C163.017 17.9365 162.814 18 162.543 18C162.543 17.8646 162.551 17.6826 162.568 17.4541C162.585 17.2171 162.594 16.9674 162.594 16.7051C162.602 16.4427 162.594 16.1761 162.568 15.9053C162.551 15.6344 162.496 15.3932 162.403 15.1816C162.31 14.9616 162.179 14.7839 162.01 14.6484C161.849 14.5046 161.625 14.4326 161.337 14.4326C161.235 14.4326 161.108 14.4411 160.956 14.458C160.812 14.4665 160.664 14.5046 160.512 14.5723C160.359 14.64 160.211 14.7458 160.067 14.8896C159.924 15.0251 159.809 15.2155 159.725 15.4609C159.64 15.6979 159.589 16.0026 159.572 16.375C159.564 16.7389 159.61 17.1875 159.712 17.7207C159.653 17.873 159.576 17.9619 159.483 17.9873C159.399 18.0127 159.289 18.0254 159.153 18.0254C158.882 18.0254 158.658 17.9323 158.48 17.7461C158.311 17.5514 158.18 17.2933 158.087 16.9717C157.994 16.6501 157.93 16.2777 157.896 15.8545C157.871 15.4313 157.863 14.9912 157.871 14.5342C157.88 14.0687 157.901 13.599 157.935 13.125C157.977 12.6426 158.015 12.1898 158.049 11.7666C158.091 11.335 158.129 10.9456 158.163 10.5986C158.205 10.2432 158.227 9.95964 158.227 9.74805ZM169.513 16.3623C169.191 16.5824 168.912 16.7812 168.675 16.959C168.446 17.1283 168.222 17.2721 168.002 17.3906C167.782 17.5091 167.545 17.598 167.291 17.6572C167.046 17.7165 166.741 17.7461 166.377 17.7461C165.59 17.7461 165.006 17.5387 164.625 17.124C164.244 16.7008 164.054 16.0745 164.054 15.2451C164.054 14.9235 164.096 14.5892 164.181 14.2422C164.265 13.8952 164.388 13.5524 164.549 13.2139C164.718 12.8669 164.917 12.541 165.146 12.2363C165.374 11.9232 165.632 11.6481 165.92 11.4111C166.208 11.1742 166.512 10.988 166.834 10.8525C167.164 10.7087 167.511 10.6367 167.875 10.6367C168.484 10.696 168.963 10.8483 169.31 11.0938C169.657 11.3307 169.919 11.6396 170.097 12.0205C170.274 12.3929 170.397 12.8118 170.465 13.2773C170.533 13.7344 170.583 14.2083 170.617 14.6992C170.66 15.1901 170.71 15.681 170.77 16.1719C170.829 16.6628 170.951 17.1156 171.138 17.5303C171.028 17.8096 170.922 18.0042 170.82 18.1143C170.727 18.2327 170.621 18.2539 170.503 18.1777C170.384 18.1016 170.245 17.9154 170.084 17.6191C169.932 17.3229 169.741 16.904 169.513 16.3623ZM165.133 15.2705C165.133 15.7529 165.222 16.1084 165.399 16.3369C165.586 16.557 165.911 16.667 166.377 16.667C166.724 16.667 167.054 16.6077 167.367 16.4893C167.689 16.3623 167.968 16.193 168.205 15.9814C168.442 15.7614 168.632 15.499 168.776 15.1943C168.92 14.8896 168.992 14.5511 168.992 14.1787C168.992 14.0264 168.996 13.8148 169.005 13.5439C169.013 13.2646 168.996 12.9896 168.954 12.7188C168.912 12.4479 168.831 12.2152 168.713 12.0205C168.594 11.8174 168.417 11.7158 168.18 11.7158C167.74 11.7158 167.333 11.8301 166.961 12.0586C166.589 12.2786 166.267 12.5622 165.996 12.9092C165.725 13.2562 165.514 13.6413 165.361 14.0645C165.209 14.4792 165.133 14.8812 165.133 15.2705ZM171.658 11.6016C171.658 11.5762 171.662 11.555 171.671 11.5381C171.671 11.5212 171.675 11.5 171.684 11.4746C171.717 11.4323 171.768 11.3773 171.836 11.3096C171.904 11.2419 171.946 11.208 171.963 11.208H174.515C174.515 11.1149 174.502 10.9668 174.477 10.7637C174.451 10.5605 174.426 10.3363 174.4 10.0908C174.383 9.84538 174.379 9.59147 174.388 9.3291C174.396 9.05827 174.43 8.81706 174.489 8.60547C174.557 8.38542 174.659 8.20768 174.794 8.07227C174.938 7.92839 175.137 7.85645 175.391 7.85645C175.391 8.71126 175.45 9.39681 175.568 9.91309C175.687 10.4294 175.843 10.8271 176.038 11.1064C176.241 11.3857 176.47 11.5677 176.724 11.6523C176.978 11.737 177.236 11.7751 177.498 11.7666C177.769 11.7497 178.031 11.7074 178.285 11.6396C178.539 11.5719 178.763 11.5254 178.958 11.5C179.161 11.4746 179.322 11.4958 179.44 11.5635C179.559 11.6227 179.618 11.7708 179.618 12.0078C179.618 12.1855 179.576 12.3125 179.491 12.3887C179.415 12.4648 179.263 12.5241 179.034 12.5664C178.966 12.5749 178.852 12.5918 178.691 12.6172C178.539 12.6341 178.366 12.651 178.171 12.668C177.976 12.6849 177.769 12.7061 177.549 12.7314C177.329 12.7484 177.121 12.7653 176.927 12.7822C176.732 12.7992 176.554 12.8118 176.394 12.8203C176.233 12.8203 176.114 12.8203 176.038 12.8203C176.038 12.8626 176.034 12.9346 176.025 13.0361C176.017 13.1377 176.013 13.2054 176.013 13.2393C176.013 13.6117 176.072 13.9756 176.19 14.3311C176.309 14.6781 176.436 15.0251 176.571 15.3721C176.715 15.7191 176.846 16.0661 176.965 16.4131C177.083 16.7601 177.143 17.1198 177.143 17.4922C177.143 17.5599 177.134 17.6318 177.117 17.708C177.109 17.7757 177.083 17.8392 177.041 17.8984C177.007 17.9492 176.952 17.9873 176.876 18.0127C176.808 18.0465 176.711 18.0423 176.584 18C176.262 17.9154 176.021 17.7334 175.86 17.4541C175.708 17.1748 175.594 16.8447 175.518 16.4639C175.441 16.0745 175.391 15.6641 175.365 15.2324C175.34 14.8008 175.298 14.3988 175.238 14.0264C175.188 13.6455 175.103 13.3239 174.984 13.0615C174.866 12.7907 174.675 12.6257 174.413 12.5664L171.963 12.0078C171.929 12.0078 171.878 11.974 171.811 11.9062C171.743 11.8301 171.701 11.7751 171.684 11.7412C171.675 11.7243 171.671 11.7031 171.671 11.6777C171.662 11.6608 171.658 11.6354 171.658 11.6016ZM180.812 13.874C180.812 13.8486 180.816 13.8021 180.824 13.7344C180.833 13.6582 180.837 13.6159 180.837 13.6074C180.972 13.6074 181.154 13.599 181.383 13.582C181.62 13.5566 181.878 13.5355 182.157 13.5186C182.437 13.4932 182.724 13.4678 183.021 13.4424C183.325 13.417 183.613 13.4001 183.884 13.3916C184.155 13.3831 184.404 13.3789 184.633 13.3789C184.861 13.3789 185.039 13.3916 185.166 13.417C185.318 13.417 185.424 13.4339 185.483 13.4678C185.551 13.5016 185.585 13.6159 185.585 13.8105C185.331 13.9798 185.014 14.1068 184.633 14.1914C184.252 14.2676 183.863 14.3226 183.465 14.3564C183.067 14.3903 182.678 14.4072 182.297 14.4072C181.924 14.4072 181.62 14.4115 181.383 14.4199C181.154 14.4368 181.002 14.3903 180.926 14.2803C180.85 14.1702 180.812 14.0348 180.812 13.874ZM186.347 16.502C186.347 16.0111 186.469 15.5752 186.715 15.1943C186.96 14.8135 187.265 14.4834 187.629 14.2041C187.993 13.9163 188.386 13.6751 188.81 13.4805C189.233 13.2773 189.626 13.1123 189.99 12.9854C190.354 12.8499 190.659 12.7441 190.904 12.668C191.15 12.5833 191.272 12.5156 191.272 12.4648C191.272 12.1686 191.256 11.8809 191.222 11.6016C191.196 11.3138 191.167 11.026 191.133 10.7383C191.099 10.4505 191.065 10.167 191.031 9.8877C191.006 9.59993 190.993 9.31641 190.993 9.03711V8.21191C191.34 8.08496 191.586 8.09766 191.729 8.25C191.882 8.40234 191.907 8.66471 191.806 9.03711C191.84 9.22331 191.886 9.5153 191.945 9.91309C192.005 10.3109 192.068 10.7594 192.136 11.2588C192.212 11.7581 192.288 12.2829 192.364 12.833C192.449 13.3831 192.525 13.9121 192.593 14.4199C192.669 14.9193 192.732 15.3678 192.783 15.7656C192.834 16.1549 192.872 16.4469 192.897 16.6416C192.906 16.6839 192.914 16.7686 192.923 16.8955C192.931 17.014 192.936 17.1452 192.936 17.2891C192.944 17.4245 192.948 17.5514 192.948 17.6699C192.957 17.7884 192.961 17.873 192.961 17.9238C192.639 17.9238 192.419 17.9111 192.301 17.8857C192.191 17.8604 192.119 17.8096 192.085 17.7334C192.06 17.6572 192.047 17.5472 192.047 17.4033C192.047 17.2594 192.005 17.0605 191.92 16.8066C191.607 17.0521 191.311 17.2552 191.031 17.416C190.752 17.5768 190.473 17.708 190.193 17.8096C189.914 17.9027 189.631 17.9661 189.343 18C189.063 18.0423 188.763 18.0635 188.441 18.0635C188.171 18.0635 187.908 18.0423 187.654 18C187.409 17.9492 187.189 17.8646 186.994 17.7461C186.799 17.6276 186.643 17.4668 186.524 17.2637C186.406 17.0605 186.347 16.8066 186.347 16.502ZM187.451 16.2354C187.451 16.3708 187.481 16.4808 187.54 16.5654C187.599 16.6501 187.675 16.722 187.769 16.7812C187.862 16.8405 187.959 16.8828 188.061 16.9082C188.171 16.9251 188.276 16.9336 188.378 16.9336C188.674 16.9336 188.992 16.8786 189.33 16.7686C189.677 16.6501 189.994 16.4893 190.282 16.2861C190.578 16.0745 190.82 15.8249 191.006 15.5371C191.201 15.2493 191.298 14.9362 191.298 14.5977C191.298 14.3353 191.251 14.1533 191.158 14.0518C191.065 13.9502 190.887 13.8994 190.625 13.8994C190.354 13.8994 190.037 13.9629 189.673 14.0898C189.317 14.2168 188.97 14.3861 188.632 14.5977C188.302 14.8092 188.022 15.0589 187.794 15.3467C187.565 15.626 187.451 15.9222 187.451 16.2354ZM194.243 13.2393C194.243 13.1885 194.243 13.1081 194.243 12.998C194.252 12.8796 194.256 12.7568 194.256 12.6299C194.264 12.5029 194.269 12.3802 194.269 12.2617C194.277 12.1432 194.281 12.0586 194.281 12.0078C194.374 11.8724 194.493 11.7624 194.637 11.6777C194.789 11.5931 194.941 11.5254 195.094 11.4746C195.119 11.9316 195.191 12.4183 195.31 12.9346C195.428 13.4508 195.555 13.9714 195.69 14.4961C195.826 15.0124 195.944 15.5244 196.046 16.0322C196.156 16.54 196.211 17.014 196.211 17.4541C196.211 17.835 196.016 18.0254 195.627 18.0254C195.39 18.0254 195.191 17.9281 195.03 17.7334C194.869 17.5387 194.738 17.2933 194.637 16.9971C194.544 16.6924 194.467 16.3581 194.408 15.9941C194.349 15.6217 194.307 15.2578 194.281 14.9023C194.264 14.5469 194.252 14.221 194.243 13.9248C194.243 13.6286 194.243 13.4001 194.243 13.2393ZM194.421 8.47852C194.582 8.54622 194.717 8.65625 194.827 8.80859C194.937 8.96094 194.984 9.10059 194.967 9.22754C194.958 9.34603 194.865 9.43066 194.688 9.48145C194.51 9.52376 194.214 9.47298 193.799 9.3291C193.799 9.10059 193.841 8.90169 193.926 8.73242C194.019 8.56315 194.184 8.47852 194.421 8.47852ZM199.144 17.4287C199.279 17.3356 199.44 17.2171 199.626 17.0732C199.821 16.9209 200.015 16.7601 200.21 16.5908C200.405 16.4215 200.587 16.2438 200.756 16.0576C200.925 15.8714 201.056 15.6937 201.149 15.5244C201.251 15.3467 201.302 15.1816 201.302 15.0293C201.302 14.877 201.226 14.75 201.073 14.6484C200.802 14.6484 200.506 14.6611 200.185 14.6865C199.863 14.7035 199.541 14.7119 199.22 14.7119C198.898 14.7035 198.585 14.6738 198.28 14.623C197.984 14.5723 197.717 14.4792 197.48 14.3438C197.243 14.2083 197.053 14.0179 196.909 13.7725C196.774 13.5186 196.706 13.1969 196.706 12.8076C196.706 12.3506 196.791 11.9401 196.96 11.5762C197.138 11.2038 197.37 10.8779 197.658 10.5986C197.946 10.3109 198.268 10.0612 198.623 9.84961C198.987 9.62956 199.351 9.44336 199.715 9.29102C199.935 9.35026 200.138 9.45605 200.324 9.6084C200.51 9.76074 200.671 9.93001 200.807 10.1162C200.747 10.3024 200.629 10.4463 200.451 10.5479C200.282 10.6494 200.083 10.7383 199.854 10.8145C199.634 10.8906 199.402 10.971 199.156 11.0557C198.911 11.1403 198.687 11.2546 198.483 11.3984C198.289 11.5339 198.124 11.7158 197.988 11.9443C197.853 12.1644 197.785 12.4564 197.785 12.8203C197.785 13.0911 197.853 13.29 197.988 13.417C198.124 13.5439 198.301 13.6328 198.521 13.6836C198.742 13.7259 198.991 13.7428 199.271 13.7344C199.55 13.7174 199.833 13.6963 200.121 13.6709C200.417 13.6455 200.705 13.6328 200.984 13.6328C201.264 13.6243 201.513 13.6582 201.733 13.7344C201.953 13.8021 202.127 13.9163 202.254 14.0771C202.389 14.238 202.457 14.4749 202.457 14.7881C202.457 14.9235 202.41 15.097 202.317 15.3086C202.233 15.5202 202.114 15.7487 201.962 15.9941C201.818 16.2311 201.645 16.4681 201.441 16.7051C201.247 16.9421 201.039 17.1579 200.819 17.3525C200.608 17.5387 200.392 17.6953 200.172 17.8223C199.96 17.9408 199.761 18 199.575 18C199.397 18 199.279 17.9365 199.22 17.8096C199.169 17.6826 199.144 17.5557 199.144 17.4287ZM202.965 13.3154C202.965 12.4945 203.155 11.8851 203.536 11.4873C203.917 11.0895 204.501 10.8906 205.288 10.8906C205.61 10.8906 205.94 10.9202 206.278 10.9795C206.625 11.0387 206.943 11.1445 207.23 11.2969C207.518 11.4408 207.751 11.6439 207.929 11.9062C208.115 12.1686 208.208 12.5072 208.208 12.9219C208.208 13.3789 208.106 13.8105 207.903 14.2168C207.709 14.6146 207.459 14.9912 207.154 15.3467C206.858 15.6937 206.528 16.0195 206.164 16.3242C205.809 16.6204 205.474 16.904 205.161 17.1748C205.144 17.2087 205.127 17.2806 205.11 17.3906C205.102 17.4922 205.098 17.5599 205.098 17.5938C205.098 17.873 205.178 18.1523 205.339 18.4316C205.508 18.7194 205.69 19.0072 205.885 19.2949C206.079 19.5911 206.257 19.8958 206.418 20.209C206.579 20.5221 206.659 20.848 206.659 21.1865C206.659 21.3896 206.617 21.5081 206.532 21.542C206.448 21.5843 206.27 21.6055 205.999 21.6055C205.83 21.5378 205.66 21.377 205.491 21.123C205.33 20.8776 205.165 20.5729 204.996 20.209C204.835 19.8451 204.674 19.4346 204.514 18.9775C204.361 18.529 204.213 18.0719 204.069 17.6064C203.934 17.1325 203.803 16.667 203.676 16.21C203.557 15.7445 203.451 15.3171 203.358 14.9277C203.265 14.5384 203.181 14.2041 203.104 13.9248C203.037 13.637 202.99 13.4339 202.965 13.3154ZM204.044 13.4297C204.044 13.5566 204.052 13.7428 204.069 13.9883C204.086 14.2253 204.12 14.4622 204.171 14.6992C204.23 14.9362 204.315 15.1436 204.425 15.3213C204.535 15.4906 204.687 15.5752 204.882 15.5752C205.144 15.5752 205.407 15.4863 205.669 15.3086C205.94 15.1309 206.177 14.9066 206.38 14.6357C206.591 14.3649 206.761 14.0771 206.888 13.7725C207.023 13.4593 207.091 13.1758 207.091 12.9219C207.091 12.7103 207.04 12.5452 206.938 12.4268C206.837 12.2998 206.706 12.2025 206.545 12.1348C206.393 12.0586 206.228 12.012 206.05 11.9951C205.872 11.9697 205.703 11.957 205.542 11.957C205.06 11.957 204.687 12.0882 204.425 12.3506C204.171 12.6045 204.044 12.9642 204.044 13.4297ZM209.262 10.8145C209.262 10.569 209.245 10.332 209.211 10.1035C209.177 9.86654 209.169 9.65918 209.186 9.48145C209.202 9.29525 209.266 9.14714 209.376 9.03711C209.494 8.92708 209.706 8.87207 210.011 8.87207C210.104 9.06673 210.193 9.36296 210.277 9.76074C210.37 10.1585 210.459 10.6156 210.544 11.1318C210.629 11.6481 210.709 12.2109 210.785 12.8203C210.861 13.4212 210.929 14.0264 210.988 14.6357C211.056 15.2451 211.111 15.846 211.153 16.4385C211.204 17.0225 211.242 17.5557 211.268 18.0381C210.988 18.2243 210.764 18.237 210.595 18.0762C210.425 17.9154 210.286 17.6445 210.176 17.2637C210.066 16.8743 209.981 16.4046 209.922 15.8545C209.863 15.2959 209.803 14.7204 209.744 14.1279C209.693 13.527 209.63 12.9388 209.554 12.3633C209.478 11.7793 209.38 11.263 209.262 10.8145ZM217.387 16.3623C217.065 16.5824 216.786 16.7812 216.549 16.959C216.32 17.1283 216.096 17.2721 215.876 17.3906C215.656 17.5091 215.419 17.598 215.165 17.6572C214.92 17.7165 214.615 17.7461 214.251 17.7461C213.464 17.7461 212.88 17.5387 212.499 17.124C212.118 16.7008 211.928 16.0745 211.928 15.2451C211.928 14.9235 211.97 14.5892 212.055 14.2422C212.139 13.8952 212.262 13.5524 212.423 13.2139C212.592 12.8669 212.791 12.541 213.02 12.2363C213.248 11.9232 213.506 11.6481 213.794 11.4111C214.082 11.1742 214.386 10.988 214.708 10.8525C215.038 10.7087 215.385 10.6367 215.749 10.6367C216.358 10.696 216.837 10.8483 217.184 11.0938C217.531 11.3307 217.793 11.6396 217.971 12.0205C218.148 12.3929 218.271 12.8118 218.339 13.2773C218.407 13.7344 218.457 14.2083 218.491 14.6992C218.534 15.1901 218.584 15.681 218.644 16.1719C218.703 16.6628 218.826 17.1156 219.012 17.5303C218.902 17.8096 218.796 18.0042 218.694 18.1143C218.601 18.2327 218.495 18.2539 218.377 18.1777C218.258 18.1016 218.119 17.9154 217.958 17.6191C217.806 17.3229 217.615 16.904 217.387 16.3623ZM213.007 15.2705C213.007 15.7529 213.096 16.1084 213.273 16.3369C213.46 16.557 213.785 16.667 214.251 16.667C214.598 16.667 214.928 16.6077 215.241 16.4893C215.563 16.3623 215.842 16.193 216.079 15.9814C216.316 15.7614 216.507 15.499 216.65 15.1943C216.794 14.8896 216.866 14.5511 216.866 14.1787C216.866 14.0264 216.87 13.8148 216.879 13.5439C216.887 13.2646 216.87 12.9896 216.828 12.7188C216.786 12.4479 216.705 12.2152 216.587 12.0205C216.468 11.8174 216.291 11.7158 216.054 11.7158C215.614 11.7158 215.207 11.8301 214.835 12.0586C214.463 12.2786 214.141 12.5622 213.87 12.9092C213.599 13.2562 213.388 13.6413 213.235 14.0645C213.083 14.4792 213.007 14.8812 213.007 15.2705ZM219.596 11.4365C219.596 11.3604 219.596 11.2842 219.596 11.208C219.604 11.1234 219.621 11.0472 219.646 10.9795C219.68 10.9033 219.723 10.8483 219.773 10.8145C219.833 10.7721 219.917 10.751 220.027 10.751C220.036 10.751 220.044 10.751 220.053 10.751C220.07 10.751 220.087 10.751 220.104 10.751C220.129 10.7594 220.15 10.7637 220.167 10.7637C220.328 10.9837 220.467 11.2673 220.586 11.6143C220.704 11.9528 220.819 12.3167 220.929 12.7061C221.039 13.0869 221.157 13.4762 221.284 13.874C221.411 14.2633 221.576 14.6146 221.779 14.9277C221.982 15.2409 222.232 15.4906 222.528 15.6768C222.825 15.863 223.193 15.9434 223.633 15.918C223.827 15.918 223.954 15.8122 224.014 15.6006C224.073 15.389 224.103 15.1182 224.103 14.7881C224.111 14.458 224.103 14.0941 224.077 13.6963C224.06 13.2985 224.06 12.9219 224.077 12.5664C224.103 12.2025 224.166 11.8851 224.268 11.6143C224.378 11.3434 224.564 11.1615 224.826 11.0684C224.936 11.2884 225.025 11.6354 225.093 12.1094C225.169 12.5749 225.224 13.1165 225.258 13.7344C225.292 14.3438 225.309 15.0081 225.309 15.7275C225.309 16.4385 225.292 17.1494 225.258 17.8604C225.224 18.5628 225.173 19.2399 225.105 19.8916C225.038 20.5433 224.962 21.1146 224.877 21.6055C224.792 22.0964 224.691 22.4814 224.572 22.7607C224.462 23.0485 224.344 23.1712 224.217 23.1289C224.039 22.9596 223.899 22.7396 223.798 22.4688C223.705 22.1979 223.637 21.8975 223.595 21.5674C223.561 21.2373 223.548 20.8861 223.557 20.5137C223.565 20.1497 223.578 19.7816 223.595 19.4092C223.62 19.0368 223.646 18.6729 223.671 18.3174C223.705 17.9619 223.722 17.6361 223.722 17.3398C223.417 17.3652 223.104 17.3187 222.782 17.2002C222.469 17.0817 222.16 16.8997 221.855 16.6543C221.551 16.4004 221.259 16.0957 220.979 15.7402C220.709 15.3848 220.467 14.9827 220.256 14.5342C220.053 14.0856 219.892 13.6032 219.773 13.0869C219.655 12.5622 219.596 12.012 219.596 11.4365ZM226.642 22.9004C226.929 22.2572 227.116 21.5928 227.2 20.9072C227.285 20.2217 227.276 19.5277 227.175 18.8252L227.721 18.2793C227.89 18.3301 228.013 18.4359 228.089 18.5967C228.174 18.766 228.229 18.9521 228.254 19.1553C228.288 19.3584 228.3 19.57 228.292 19.79C228.292 20.0101 228.292 20.1963 228.292 20.3486C228.292 20.3825 228.288 20.4502 228.279 20.5518C228.271 20.6533 228.267 20.7126 228.267 20.7295C228.25 20.8141 228.216 20.958 228.165 21.1611C228.123 21.3643 228.072 21.5801 228.013 21.8086C227.953 22.0456 227.894 22.2656 227.835 22.4688C227.784 22.6719 227.746 22.8158 227.721 22.9004C227.704 22.9173 227.67 22.9385 227.619 22.9639C227.568 22.9893 227.509 23.0146 227.441 23.04C227.382 23.0739 227.327 23.1035 227.276 23.1289C227.234 23.1543 227.2 23.1712 227.175 23.1797H227.048H226.896C226.87 23.1628 226.824 23.1162 226.756 23.04C226.697 22.9723 226.659 22.9258 226.642 22.9004ZM227.149 14.9785C227.226 14.9785 227.314 14.9785 227.416 14.9785C227.526 14.9785 227.623 14.9912 227.708 15.0166C227.793 15.042 227.865 15.0843 227.924 15.1436C227.992 15.2028 228.025 15.2959 228.025 15.4229C228.025 15.6006 227.941 15.7572 227.771 15.8926C227.611 16.0195 227.416 16.1296 227.188 16.2227C226.967 16.3073 226.735 16.3708 226.489 16.4131C226.252 16.4469 226.062 16.4639 225.918 16.4639C225.918 16.2438 225.939 16.0449 225.981 15.8672C226.032 15.6895 226.104 15.5371 226.197 15.4102C226.29 15.2747 226.413 15.1689 226.565 15.0928C226.726 15.0166 226.921 14.9785 227.149 14.9785Z" fill="#AAAAAA"/>
</svg>
