<svg width="239" height="26" viewBox="0 0 239 26" fill="none" xmlns="http://www.w3.org/2000/svg">
<path d="M237 18.1546C216.639 14.1392 206 15 202 14M237 18.1546L233.313 22.3093M237 18.1546L233.313 14" stroke="#AAAAAA" stroke-width="2" stroke-linecap="round"/>
<path d="M27.7051 17.4541C27.4427 16.6924 27.193 15.9814 26.9561 15.3213C26.7275 14.6527 26.5244 14.001 26.3467 13.3662C26.1774 12.723 26.042 12.0713 25.9404 11.4111C25.8389 10.751 25.7881 10.0443 25.7881 9.29102C25.7881 9.23177 25.7881 9.12598 25.7881 8.97363C25.7965 8.81283 25.8008 8.64779 25.8008 8.47852C25.8008 8.30924 25.8008 8.14844 25.8008 7.99609C25.8092 7.83529 25.8135 7.72526 25.8135 7.66602C25.8896 7.49674 26.0208 7.34017 26.207 7.19629C26.4017 7.05241 26.5964 6.98047 26.791 6.98047C26.791 7.60677 26.7995 8.27539 26.8164 8.98633C26.8333 9.6888 26.8841 10.3913 26.9688 11.0938C27.0618 11.7962 27.2057 12.486 27.4004 13.1631C27.6035 13.8317 27.887 14.4453 28.251 15.0039C28.2594 14.8008 28.2679 14.5765 28.2764 14.3311C28.2848 14.0856 28.306 13.8402 28.3398 13.5947C28.3822 13.3493 28.4456 13.1123 28.5303 12.8838C28.6149 12.6553 28.7376 12.4521 28.8984 12.2744C29.0677 12.0967 29.2835 11.957 29.5459 11.8555C29.8167 11.7539 30.1553 11.7074 30.5615 11.7158C30.9255 11.7158 31.2513 11.7835 31.5391 11.9189C31.8353 12.0544 32.0807 12.2406 32.2754 12.4775C32.4785 12.7061 32.6309 12.9769 32.7324 13.29C32.8424 13.5947 32.8975 13.9206 32.8975 14.2676C32.8975 14.7331 32.7832 15.1901 32.5547 15.6387C32.3262 16.0872 32.0215 16.4893 31.6406 16.8447C31.2682 17.2002 30.8493 17.488 30.3838 17.708C29.9183 17.9196 29.4443 18.0254 28.9619 18.0254C28.7165 18.0254 28.4795 17.9831 28.251 17.8984C28.0225 17.8053 27.8405 17.6572 27.7051 17.4541ZM30.7139 12.8203C30.5446 12.9134 30.3669 13.0234 30.1807 13.1504C29.9945 13.2773 29.821 13.4762 29.6602 13.7471C29.5078 14.0094 29.3766 14.3691 29.2666 14.8262C29.1566 15.2832 29.0889 15.8883 29.0635 16.6416C29.0804 16.6416 29.1227 16.6458 29.1904 16.6543C29.2666 16.6628 29.3174 16.667 29.3428 16.667C29.5713 16.667 29.8294 16.5951 30.1172 16.4512C30.4134 16.3073 30.6969 16.1296 30.9678 15.918C31.2471 15.7064 31.4883 15.4736 31.6914 15.2197C31.8945 14.9574 32.0173 14.7077 32.0596 14.4707C32.085 14.3268 32.0553 14.1618 31.9707 13.9756C31.8861 13.7894 31.7718 13.6117 31.6279 13.4424C31.4925 13.2646 31.3402 13.1165 31.1709 12.998C31.0101 12.8796 30.8577 12.8203 30.7139 12.8203ZM39.1309 16.3623C38.8092 16.5824 38.5299 16.7812 38.293 16.959C38.0645 17.1283 37.8402 17.2721 37.6201 17.3906C37.4001 17.5091 37.1631 17.598 36.9092 17.6572C36.6637 17.7165 36.359 17.7461 35.9951 17.7461C35.208 17.7461 34.624 17.5387 34.2432 17.124C33.8623 16.7008 33.6719 16.0745 33.6719 15.2451C33.6719 14.9235 33.7142 14.5892 33.7988 14.2422C33.8835 13.8952 34.0062 13.5524 34.167 13.2139C34.3363 12.8669 34.5352 12.541 34.7637 12.2363C34.9922 11.9232 35.2503 11.6481 35.5381 11.4111C35.8258 11.1742 36.1305 10.988 36.4521 10.8525C36.7822 10.7087 37.1292 10.6367 37.4932 10.6367C38.1025 10.696 38.5807 10.8483 38.9277 11.0938C39.2747 11.3307 39.5371 11.6396 39.7148 12.0205C39.8926 12.3929 40.0153 12.8118 40.083 13.2773C40.1507 13.7344 40.2015 14.2083 40.2354 14.6992C40.2777 15.1901 40.3285 15.681 40.3877 16.1719C40.4469 16.6628 40.5697 17.1156 40.7559 17.5303C40.6458 17.8096 40.54 18.0042 40.4385 18.1143C40.3454 18.2327 40.2396 18.2539 40.1211 18.1777C40.0026 18.1016 39.863 17.9154 39.7021 17.6191C39.5498 17.3229 39.3594 16.904 39.1309 16.3623ZM34.751 15.2705C34.751 15.7529 34.8398 16.1084 35.0176 16.3369C35.2038 16.557 35.5296 16.667 35.9951 16.667C36.3421 16.667 36.6722 16.6077 36.9854 16.4893C37.307 16.3623 37.5863 16.193 37.8232 15.9814C38.0602 15.7614 38.2507 15.499 38.3945 15.1943C38.5384 14.8896 38.6104 14.5511 38.6104 14.1787C38.6104 14.0264 38.6146 13.8148 38.623 13.5439C38.6315 13.2646 38.6146 12.9896 38.5723 12.7188C38.5299 12.4479 38.4495 12.2152 38.3311 12.0205C38.2126 11.8174 38.0348 11.7158 37.7979 11.7158C37.3577 11.7158 36.9515 11.8301 36.5791 12.0586C36.2067 12.2786 35.8851 12.5622 35.6143 12.9092C35.3434 13.2562 35.1318 13.6413 34.9795 14.0645C34.8271 14.4792 34.751 14.8812 34.751 15.2705ZM41.3018 14.1787C41.3018 13.8232 41.3779 13.4508 41.5303 13.0615C41.6911 12.6722 41.9027 12.321 42.165 12.0078C42.4274 11.6862 42.7279 11.4196 43.0664 11.208C43.4134 10.9964 43.7773 10.8906 44.1582 10.8906C44.3529 10.8906 44.5475 10.9245 44.7422 10.9922C44.9368 11.0599 45.1104 11.1572 45.2627 11.2842C45.4235 11.4111 45.5505 11.5635 45.6436 11.7412C45.7451 11.9189 45.7959 12.1178 45.7959 12.3379C45.6436 12.3379 45.5039 12.321 45.377 12.2871C45.2585 12.2533 45.14 12.2152 45.0215 12.1729C44.903 12.1221 44.7845 12.0798 44.666 12.0459C44.556 12.012 44.4333 11.9951 44.2979 11.9951C43.9508 11.9951 43.6673 12.084 43.4473 12.2617C43.2357 12.431 43.0664 12.6468 42.9395 12.9092C42.8125 13.1715 42.7236 13.4551 42.6729 13.7598C42.6305 14.056 42.6094 14.3353 42.6094 14.5977C42.6094 14.64 42.6094 14.7204 42.6094 14.8389C42.6178 14.9574 42.6221 15.0843 42.6221 15.2197C42.6305 15.3467 42.6348 15.4694 42.6348 15.5879C42.6432 15.7064 42.6517 15.7868 42.6602 15.8291C42.7533 16.0322 42.8421 16.1888 42.9268 16.2988C43.0199 16.4089 43.1172 16.4935 43.2188 16.5527C43.3203 16.6035 43.4303 16.6374 43.5488 16.6543C43.6673 16.6628 43.807 16.667 43.9678 16.667C44.1878 16.667 44.3783 16.6331 44.5391 16.5654C44.7083 16.4977 44.8649 16.4173 45.0088 16.3242C45.1527 16.2311 45.2881 16.1296 45.415 16.0195C45.542 15.901 45.6732 15.7952 45.8086 15.7021C45.9525 15.6006 46.1048 15.5202 46.2656 15.4609C46.4349 15.3932 46.6253 15.3594 46.8369 15.3594C46.8369 15.7741 46.7607 16.1423 46.6084 16.4639C46.4645 16.7855 46.2572 17.0605 45.9863 17.2891C45.724 17.5176 45.4108 17.6953 45.0469 17.8223C44.6914 17.9408 44.3021 18 43.8789 18C43.4811 18 43.1214 17.8646 42.7998 17.5938C42.4867 17.3229 42.2158 16.9928 41.9873 16.6035C41.7673 16.2057 41.598 15.7868 41.4795 15.3467C41.361 14.9066 41.3018 14.5173 41.3018 14.1787ZM50.0107 17.7461C49.8753 17.8646 49.7314 17.8096 49.5791 17.5811C49.4352 17.3525 49.2871 17.0098 49.1348 16.5527C48.9824 16.0872 48.8301 15.5329 48.6777 14.8896C48.5339 14.2464 48.3942 13.5651 48.2588 12.8457C48.1234 12.1263 47.9922 11.3984 47.8652 10.6621C47.7467 9.91732 47.641 9.21908 47.5479 8.56738C47.5479 8.44889 47.5436 8.3304 47.5352 8.21191C47.5352 8.08496 47.5479 7.9707 47.5732 7.86914C47.6071 7.75911 47.6621 7.66178 47.7383 7.57715C47.8229 7.49251 47.9499 7.42904 48.1191 7.38672C48.1361 7.37826 48.1699 7.38672 48.2207 7.41211C48.2799 7.42904 48.3392 7.45443 48.3984 7.48828C48.4577 7.51367 48.5085 7.54329 48.5508 7.57715C48.6016 7.611 48.6354 7.64062 48.6523 7.66602C48.5423 9.2487 48.7243 10.7891 49.1982 12.2871C49.2236 12.2617 49.2913 12.1771 49.4014 12.0332C49.5114 11.8809 49.651 11.7074 49.8203 11.5127C49.9896 11.3096 50.18 11.0938 50.3916 10.8652C50.6117 10.6367 50.8402 10.4251 51.0771 10.2305C51.3141 10.0358 51.5511 9.875 51.7881 9.74805C52.0251 9.61263 52.2536 9.54492 52.4736 9.54492C52.6006 9.54492 52.7233 9.57454 52.8418 9.63379C52.9688 9.69303 53.0322 9.80729 53.0322 9.97656C53.0322 9.99349 53.028 10.0189 53.0195 10.0527C53.0111 10.0781 53.0068 10.0993 53.0068 10.1162C52.8714 10.2347 52.6641 10.4167 52.3848 10.6621C52.1139 10.9076 51.8262 11.1826 51.5215 11.4873C51.2168 11.792 50.9248 12.1094 50.6455 12.4395C50.3662 12.7695 50.1546 13.0827 50.0107 13.3789C49.9854 13.4297 49.9769 13.4762 49.9854 13.5186C49.9938 13.5524 50.0023 13.5947 50.0107 13.6455C50.1038 13.6794 50.252 13.7301 50.4551 13.7979C50.6582 13.8656 50.8825 13.946 51.1279 14.0391C51.3734 14.1237 51.6357 14.2168 51.915 14.3184C52.1943 14.4115 52.4567 14.5046 52.7021 14.5977C52.9476 14.6908 53.1676 14.7754 53.3623 14.8516C53.5654 14.9193 53.7178 14.9701 53.8193 15.0039C53.9378 15.0547 54.0352 15.0885 54.1113 15.1055C54.1875 15.1224 54.2467 15.1478 54.2891 15.1816C54.3314 15.207 54.361 15.2451 54.3779 15.2959C54.3949 15.3467 54.4033 15.4229 54.4033 15.5244C54.4033 15.7699 54.3441 15.9307 54.2256 16.0068C54.1071 16.083 53.9378 16.1211 53.7178 16.1211C53.0661 16.0788 52.4271 15.9434 51.8008 15.7148C51.1745 15.4779 50.5397 15.1943 49.8965 14.8643C49.8711 15.0251 49.8796 15.2113 49.9219 15.4229C49.9727 15.6344 50.0319 15.846 50.0996 16.0576C50.1673 16.2692 50.2308 16.4766 50.29 16.6797C50.3577 16.8828 50.3958 17.0648 50.4043 17.2256C50.4212 17.3864 50.4043 17.5133 50.3535 17.6064C50.3027 17.6995 50.1885 17.7461 50.0107 17.7461ZM58.1738 24.7539C58.6478 24.7539 59.071 24.665 59.4434 24.4873C59.8158 24.318 60.1289 24.0811 60.3828 23.7764C60.6452 23.4801 60.8441 23.1374 60.9795 22.748C61.1234 22.3672 61.1953 21.9694 61.1953 21.5547C61.1953 21.3431 61.1826 21.0638 61.1572 20.7168C61.1403 20.3698 61.1107 19.9932 61.0684 19.5869C61.026 19.1807 60.9626 18.766 60.8779 18.3428C60.8018 17.9196 60.7044 17.5218 60.5859 17.1494C60.4674 16.7686 60.3193 16.4385 60.1416 16.1592C59.9723 15.8714 59.7734 15.6683 59.5449 15.5498C59.3249 15.7191 59.109 15.8757 58.8975 16.0195C58.6859 16.1549 58.4658 16.2692 58.2373 16.3623C58.0088 16.4554 57.7718 16.5316 57.5264 16.5908C57.2809 16.6416 57.0186 16.667 56.7393 16.667C56.3753 16.667 56.0622 16.6331 55.7998 16.5654C55.5459 16.4977 55.3301 16.3835 55.1523 16.2227C54.9831 16.0618 54.8561 15.8503 54.7715 15.5879C54.6868 15.3255 54.6445 14.9954 54.6445 14.5977C54.6445 14.3184 54.7122 14.0475 54.8477 13.7852C54.9831 13.5143 55.1608 13.2646 55.3809 13.0361C55.6094 12.7992 55.8633 12.5833 56.1426 12.3887C56.4303 12.194 56.7223 12.0247 57.0186 11.8809C57.3232 11.737 57.6195 11.627 57.9072 11.5508C58.2035 11.4746 58.4658 11.4365 58.6943 11.4365C58.9144 11.4365 59.0964 11.445 59.2402 11.4619C59.3841 11.4704 59.5068 11.5042 59.6084 11.5635C59.71 11.6143 59.7946 11.6989 59.8623 11.8174C59.9385 11.9274 60.0104 12.0798 60.0781 12.2744C60.2728 12.9346 60.4971 13.6455 60.751 14.4072C61.0049 15.1689 61.2461 15.9518 61.4746 16.7559C61.7031 17.5599 61.8936 18.3682 62.0459 19.1807C62.2067 20.0016 62.2871 20.793 62.2871 21.5547C62.2871 22.2318 62.1898 22.8031 61.9951 23.2686C61.8089 23.7425 61.5592 24.1276 61.2461 24.4238C60.9414 24.7285 60.5902 24.9613 60.1924 25.1221C59.8031 25.2829 59.4095 25.3844 59.0117 25.4268C58.6139 25.4775 58.2288 25.4902 57.8564 25.4648C57.484 25.4395 57.1624 25.3887 56.8916 25.3125C56.6208 25.2448 56.4134 25.1644 56.2695 25.0713C56.1341 24.9782 56.1003 24.8978 56.168 24.8301C56.2441 24.7708 56.4388 24.7285 56.752 24.7031C57.0651 24.6777 57.5391 24.6947 58.1738 24.7539ZM58.3516 12.5029C57.7253 12.6383 57.2174 12.8288 56.8281 13.0742C56.4473 13.3112 56.1595 13.5693 55.9648 13.8486C55.7786 14.1195 55.6771 14.3945 55.6602 14.6738C55.6432 14.9447 55.694 15.1774 55.8125 15.3721C55.931 15.5667 56.1003 15.7148 56.3203 15.8164C56.5488 15.9095 56.807 15.9137 57.0947 15.8291C57.3825 15.736 57.6872 15.5413 58.0088 15.2451C58.3389 14.9489 58.6689 14.5088 58.999 13.9248C58.999 13.7809 58.999 13.6243 58.999 13.4551C59.0075 13.2858 58.9948 13.1335 58.9609 12.998C58.9271 12.8542 58.8636 12.7357 58.7705 12.6426C58.6774 12.5495 58.5378 12.5029 58.3516 12.5029ZM62.249 12.668C62.249 12.5918 62.2533 12.5156 62.2617 12.4395C62.2702 12.3548 62.2871 12.2829 62.3125 12.2236C62.3379 12.1559 62.376 12.1009 62.4268 12.0586C62.486 12.0163 62.5664 11.9951 62.668 11.9951C62.7526 11.9951 62.8457 12.0628 62.9473 12.1982C63.0573 12.3252 63.1673 12.4902 63.2773 12.6934C63.3874 12.888 63.4932 13.1038 63.5947 13.3408C63.7048 13.5778 63.7979 13.7979 63.874 14.001C63.9587 14.1956 64.0264 14.3649 64.0771 14.5088C64.1279 14.6527 64.1576 14.7288 64.166 14.7373C64.276 14.4411 64.3988 14.1195 64.5342 13.7725C64.6696 13.4255 64.8346 13.1038 65.0293 12.8076C65.2324 12.5029 65.4694 12.249 65.7402 12.0459C66.0195 11.8428 66.3581 11.7412 66.7559 11.7412C66.959 11.7412 67.1494 11.7751 67.3271 11.8428C67.5133 11.902 67.6742 11.9951 67.8096 12.1221C67.9535 12.2406 68.0677 12.3844 68.1523 12.5537C68.237 12.723 68.2793 12.9176 68.2793 13.1377C68.2793 13.3239 68.2031 13.4551 68.0508 13.5312C67.9069 13.6074 67.7419 13.6455 67.5557 13.6455H67.4287L66.8828 13.0996C66.8659 13.0996 66.8532 13.0954 66.8447 13.0869C66.8278 13.0869 66.8109 13.0869 66.7939 13.0869C66.7855 13.0785 66.7728 13.0742 66.7559 13.0742C66.4596 13.0742 66.2269 13.1589 66.0576 13.3281C65.8968 13.4889 65.7741 13.6921 65.6895 13.9375C65.6048 14.1745 65.5498 14.4284 65.5244 14.6992C65.5075 14.9616 65.499 15.2028 65.499 15.4229C65.499 15.5921 65.516 15.7656 65.5498 15.9434C65.5837 16.1126 65.6217 16.2819 65.6641 16.4512C65.7064 16.612 65.7445 16.7812 65.7783 16.959C65.8122 17.1283 65.8291 17.306 65.8291 17.4922C65.8291 17.8477 65.6387 18.0254 65.2578 18.0254C65.0462 18.0254 64.8262 17.9154 64.5977 17.6953C64.3691 17.4668 64.1406 17.179 63.9121 16.832C63.6921 16.485 63.4805 16.1042 63.2773 15.6895C63.0742 15.2663 62.8965 14.8558 62.7441 14.458C62.5918 14.0602 62.4691 13.7005 62.376 13.3789C62.2913 13.0573 62.249 12.8203 62.249 12.668ZM68.7363 15.4229C68.7363 14.8981 68.859 14.4115 69.1045 13.9629C69.3499 13.5059 69.6715 13.1165 70.0693 12.7949C70.4756 12.4648 70.9284 12.2067 71.4277 12.0205C71.9355 11.8343 72.4476 11.7412 72.9639 11.7412C73.2516 11.7412 73.5055 11.8343 73.7256 12.0205C73.9541 12.2067 74.1445 12.4352 74.2969 12.7061C74.4492 12.9684 74.5635 13.2477 74.6396 13.5439C74.7243 13.8402 74.7666 14.0983 74.7666 14.3184C74.7666 14.7923 74.6523 15.2536 74.4238 15.7021C74.1953 16.1423 73.8991 16.5358 73.5352 16.8828C73.1712 17.2214 72.7607 17.4964 72.3037 17.708C71.8467 17.9196 71.3896 18.0254 70.9326 18.0254C70.5264 18.0254 70.1836 17.9577 69.9043 17.8223C69.625 17.6784 69.4007 17.4922 69.2314 17.2637C69.0622 17.0267 68.9352 16.7516 68.8506 16.4385C68.7744 16.1169 68.7363 15.7783 68.7363 15.4229ZM69.8154 15.5498C69.8154 15.7699 69.8324 15.9645 69.8662 16.1338C69.9085 16.2946 69.9762 16.4342 70.0693 16.5527C70.1709 16.6712 70.3021 16.7643 70.4629 16.832C70.6237 16.8913 70.8226 16.9209 71.0596 16.9209C71.3727 16.9209 71.6859 16.8363 71.999 16.667C72.3122 16.4893 72.5915 16.2692 72.8369 16.0068C73.0908 15.736 73.2939 15.4398 73.4463 15.1182C73.5986 14.7965 73.6748 14.4834 73.6748 14.1787C73.6748 14.0433 73.6621 13.8952 73.6367 13.7344C73.6113 13.5736 73.569 13.4255 73.5098 13.29C73.4505 13.1546 73.3659 13.0404 73.2559 12.9473C73.1458 12.8542 73.0062 12.8076 72.8369 12.8076C72.6846 12.8076 72.5026 12.8584 72.291 12.96C72.0879 13.0615 71.8721 13.1927 71.6436 13.3535C71.4235 13.5143 71.2035 13.6963 70.9834 13.8994C70.7718 14.1025 70.5771 14.3057 70.3994 14.5088C70.2217 14.7119 70.0778 14.9066 69.9678 15.0928C69.8662 15.279 69.8154 15.4313 69.8154 15.5498ZM75.2617 12.8203C75.2617 12.7695 75.2617 12.6807 75.2617 12.5537C75.2702 12.4183 75.2744 12.2786 75.2744 12.1348C75.2744 11.9909 75.2744 11.8597 75.2744 11.7412C75.2829 11.6143 75.2871 11.5254 75.2871 11.4746C75.3464 11.373 75.4141 11.2757 75.4902 11.1826C75.5749 11.0811 75.6595 11.0133 75.7441 10.9795C75.8372 10.9372 75.9346 10.9287 76.0361 10.9541C76.1462 10.9795 76.2562 11.0641 76.3662 11.208V11.3096V11.4746C76.3577 11.5169 76.3408 11.6185 76.3154 11.7793C76.29 11.9316 76.2604 12.1009 76.2266 12.2871C76.1927 12.4733 76.1589 12.6468 76.125 12.8076C76.0996 12.96 76.0869 13.0573 76.0869 13.0996C76.0869 13.2604 76.1038 13.4635 76.1377 13.709C76.1715 13.946 76.2181 14.1956 76.2773 14.458C76.3451 14.7204 76.4255 14.9827 76.5186 15.2451C76.6201 15.5075 76.7386 15.7445 76.874 15.9561C77.0094 16.1592 77.1576 16.3285 77.3184 16.4639C77.4876 16.5993 77.6823 16.667 77.9023 16.667C78.1732 16.667 78.4102 16.5951 78.6133 16.4512C78.8249 16.3073 79.0068 16.1211 79.1592 15.8926C79.3115 15.6641 79.4342 15.4059 79.5273 15.1182C79.6289 14.8304 79.7093 14.5426 79.7686 14.2549C79.8278 13.9587 79.8701 13.6751 79.8955 13.4043C79.9209 13.1335 79.9336 12.8965 79.9336 12.6934C79.9336 12.4902 79.9167 12.2998 79.8828 12.1221C79.8574 11.9359 79.8236 11.7539 79.7812 11.5762C79.7389 11.3984 79.7008 11.2249 79.667 11.0557C79.6416 10.8779 79.6289 10.7002 79.6289 10.5225C79.6289 10.3617 79.6839 10.2474 79.7939 10.1797C79.9124 10.112 80.0436 10.0781 80.1875 10.0781C80.3652 10.0781 80.5091 10.1331 80.6191 10.2432C80.7292 10.3447 80.8138 10.4759 80.873 10.6367C80.9408 10.7975 80.9831 10.9837 81 11.1953C81.0254 11.3984 81.0381 11.6016 81.0381 11.8047C81.0381 12.0078 81.0339 12.2025 81.0254 12.3887C81.0169 12.5664 81.0127 12.7103 81.0127 12.8203C81.0127 13.1081 80.9915 13.4339 80.9492 13.7979C80.9069 14.1618 80.8307 14.5384 80.7207 14.9277C80.6191 15.3086 80.488 15.6852 80.3271 16.0576C80.1748 16.43 79.9844 16.7643 79.7559 17.0605C79.5358 17.3483 79.2777 17.5811 78.9814 17.7588C78.6937 17.9365 78.3678 18.0254 78.0039 18.0254C77.623 18.0254 77.2887 17.9365 77.001 17.7588C76.7132 17.5726 76.4678 17.3314 76.2646 17.0352C76.07 16.7305 75.9049 16.3877 75.7695 16.0068C75.6341 15.626 75.5283 15.2451 75.4521 14.8643C75.3844 14.4834 75.3337 14.1152 75.2998 13.7598C75.2744 13.3958 75.2617 13.0827 75.2617 12.8203ZM81.7871 13.7217C81.7871 13.5016 81.8421 13.3451 81.9521 13.252C82.0622 13.1504 82.2399 13.0996 82.4854 13.0996H82.6123C82.6377 13.235 82.6673 13.3916 82.7012 13.5693C82.735 13.7471 82.7858 13.929 82.8535 14.1152C82.9212 14.3014 83.0016 14.4749 83.0947 14.6357C83.1878 14.7881 83.3021 14.9108 83.4375 15.0039C83.446 14.7077 83.5179 14.4242 83.6533 14.1533C83.7972 13.874 83.9707 13.6286 84.1738 13.417C84.3854 13.1969 84.6139 13.015 84.8594 12.8711C85.1133 12.7188 85.363 12.6172 85.6084 12.5664H85.8877C86.2939 12.5664 86.641 12.6595 86.9287 12.8457C87.2165 13.0234 87.4535 13.2604 87.6396 13.5566C87.8343 13.8444 87.9824 14.1745 88.084 14.5469C88.1855 14.9193 88.2617 15.3001 88.3125 15.6895C88.3717 16.0703 88.4056 16.4427 88.4141 16.8066C88.431 17.1621 88.4395 17.4668 88.4395 17.7207H87.5127C87.4619 17.2129 87.3984 16.7262 87.3223 16.2607C87.2969 16.0745 87.263 15.8799 87.2207 15.6768C87.1784 15.4652 87.1318 15.2705 87.0811 15.0928C87.0303 14.9066 86.9753 14.7373 86.916 14.585C86.8568 14.4242 86.7891 14.2887 86.7129 14.1787C86.679 14.1449 86.6325 14.0983 86.5732 14.0391C86.5225 13.9798 86.4674 13.9206 86.4082 13.8613C86.349 13.8021 86.2939 13.7513 86.2432 13.709C86.1924 13.6667 86.1628 13.6455 86.1543 13.6455C85.9004 13.5778 85.6803 13.6286 85.4941 13.7979C85.3079 13.9587 85.1429 14.1787 84.999 14.458C84.8551 14.7373 84.7367 15.0547 84.6436 15.4102C84.5589 15.7656 84.487 16.1084 84.4277 16.4385C84.3685 16.7601 84.3262 17.0436 84.3008 17.2891C84.2754 17.526 84.2585 17.6699 84.25 17.7207C84.0384 17.873 83.8395 17.9196 83.6533 17.8604C83.4671 17.7926 83.2894 17.6572 83.1201 17.4541C82.9593 17.251 82.8112 16.9971 82.6758 16.6924C82.5488 16.3877 82.4303 16.0661 82.3203 15.7275C82.2103 15.3805 82.1087 15.0335 82.0156 14.6865C81.931 14.3395 81.8548 14.0179 81.7871 13.7217ZM88.8584 16.502C88.8584 16.0111 88.9811 15.5752 89.2266 15.1943C89.472 14.8135 89.7767 14.4834 90.1406 14.2041C90.5046 13.9163 90.8981 13.6751 91.3213 13.4805C91.7445 13.2773 92.138 13.1123 92.502 12.9854C92.8659 12.8499 93.1706 12.7441 93.416 12.668C93.6615 12.5833 93.7842 12.5156 93.7842 12.4648C93.7842 12.1686 93.7673 11.8809 93.7334 11.6016C93.708 11.3138 93.6784 11.026 93.6445 10.7383C93.6107 10.4505 93.5768 10.167 93.543 9.8877C93.5176 9.59993 93.5049 9.31641 93.5049 9.03711V8.21191C93.8519 8.08496 94.0973 8.09766 94.2412 8.25C94.3936 8.40234 94.4189 8.66471 94.3174 9.03711C94.3512 9.22331 94.3978 9.5153 94.457 9.91309C94.5163 10.3109 94.5798 10.7594 94.6475 11.2588C94.7236 11.7581 94.7998 12.2829 94.876 12.833C94.9606 13.3831 95.0368 13.9121 95.1045 14.4199C95.1807 14.9193 95.2441 15.3678 95.2949 15.7656C95.3457 16.1549 95.3838 16.4469 95.4092 16.6416C95.4176 16.6839 95.4261 16.7686 95.4346 16.8955C95.443 17.014 95.4473 17.1452 95.4473 17.2891C95.4557 17.4245 95.46 17.5514 95.46 17.6699C95.4684 17.7884 95.4727 17.873 95.4727 17.9238C95.151 17.9238 94.931 17.9111 94.8125 17.8857C94.7025 17.8604 94.6305 17.8096 94.5967 17.7334C94.5713 17.6572 94.5586 17.5472 94.5586 17.4033C94.5586 17.2594 94.5163 17.0605 94.4316 16.8066C94.1185 17.0521 93.8223 17.2552 93.543 17.416C93.2637 17.5768 92.9844 17.708 92.7051 17.8096C92.4258 17.9027 92.1423 17.9661 91.8545 18C91.5752 18.0423 91.2747 18.0635 90.9531 18.0635C90.6823 18.0635 90.4199 18.0423 90.166 18C89.9206 17.9492 89.7005 17.8646 89.5059 17.7461C89.3112 17.6276 89.1546 17.4668 89.0361 17.2637C88.9176 17.0605 88.8584 16.8066 88.8584 16.502ZM89.9629 16.2354C89.9629 16.3708 89.9925 16.4808 90.0518 16.5654C90.111 16.6501 90.1872 16.722 90.2803 16.7812C90.3734 16.8405 90.4707 16.8828 90.5723 16.9082C90.6823 16.9251 90.7881 16.9336 90.8896 16.9336C91.1859 16.9336 91.5033 16.8786 91.8418 16.7686C92.1888 16.6501 92.5062 16.4893 92.7939 16.2861C93.0902 16.0745 93.3314 15.8249 93.5176 15.5371C93.7122 15.2493 93.8096 14.9362 93.8096 14.5977C93.8096 14.3353 93.763 14.1533 93.6699 14.0518C93.5768 13.9502 93.3991 13.8994 93.1367 13.8994C92.8659 13.8994 92.5485 13.9629 92.1846 14.0898C91.8291 14.2168 91.4821 14.3861 91.1436 14.5977C90.8135 14.8092 90.5342 15.0589 90.3057 15.3467C90.0771 15.626 89.9629 15.9222 89.9629 16.2354ZM97.0342 17.3271C97.0342 17.0563 97.1146 16.849 97.2754 16.7051C97.4362 16.5527 97.6351 16.4469 97.8721 16.3877C98.109 16.3285 98.3545 16.2946 98.6084 16.2861C98.8708 16.2777 99.0993 16.2734 99.2939 16.2734C99.2939 16.5104 99.2601 16.7347 99.1924 16.9463C99.1247 17.1579 99.0231 17.3441 98.8877 17.5049C98.7607 17.6572 98.5999 17.7842 98.4053 17.8857C98.2106 17.9788 97.9863 18.0254 97.7324 18.0254C97.4701 18.0254 97.2881 17.9746 97.1865 17.873C97.085 17.7715 97.0342 17.5895 97.0342 17.3271ZM95.9424 13.2393C95.9424 13.1038 95.9932 12.9769 96.0947 12.8584C96.1963 12.7399 96.319 12.6383 96.4629 12.5537C96.6152 12.4606 96.7676 12.3887 96.9199 12.3379C97.0807 12.2786 97.2161 12.249 97.3262 12.249C97.5716 12.249 97.7282 12.3252 97.7959 12.4775C97.8636 12.6214 97.8975 12.8034 97.8975 13.0234C97.8975 13.1842 97.8636 13.3239 97.7959 13.4424C97.7282 13.5524 97.6351 13.6455 97.5166 13.7217C97.4066 13.7979 97.2754 13.8571 97.123 13.8994C96.9707 13.9333 96.8099 13.9502 96.6406 13.9502C96.6068 13.9502 96.5856 13.946 96.5771 13.9375C96.5518 13.9375 96.5306 13.9333 96.5137 13.9248C96.4883 13.9163 96.446 13.8867 96.3867 13.8359C96.3359 13.7852 96.2809 13.7344 96.2217 13.6836C96.1624 13.6243 96.1074 13.5651 96.0566 13.5059C96.0143 13.4466 95.9847 13.4043 95.9678 13.3789C95.9593 13.362 95.9551 13.3408 95.9551 13.3154C95.9466 13.29 95.9424 13.2646 95.9424 13.2393ZM110.771 19.1807C110.593 18.8506 110.394 18.4401 110.174 17.9492C109.962 17.4499 109.742 16.9336 109.514 16.4004C109.285 15.8587 109.044 15.3298 108.79 14.8135C108.545 14.2972 108.295 13.8486 108.041 13.4678C107.939 13.3916 107.8 13.3451 107.622 13.3281C107.444 13.3112 107.258 13.307 107.063 13.3154C106.869 13.3154 106.674 13.3112 106.479 13.3027C106.293 13.2858 106.128 13.2393 105.984 13.1631C105.849 13.0869 105.747 12.9684 105.68 12.8076C105.612 12.6468 105.599 12.4141 105.642 12.1094H107.774C107.817 11.6354 107.889 11.1657 107.99 10.7002C108.092 10.2347 108.227 9.79036 108.396 9.36719C108.574 8.94401 108.786 8.55046 109.031 8.18652C109.277 7.82259 109.573 7.50944 109.92 7.24707C110.267 6.9847 110.665 6.77734 111.113 6.625C111.57 6.47266 112.087 6.39648 112.662 6.39648C112.865 6.39648 113.068 6.44727 113.271 6.54883C113.475 6.64193 113.657 6.76888 113.817 6.92969C113.978 7.09049 114.105 7.27246 114.198 7.47559C114.3 7.67871 114.351 7.88184 114.351 8.08496C114.19 8.08496 114.046 8.05534 113.919 7.99609C113.792 7.92839 113.669 7.85645 113.551 7.78027C113.432 7.69564 113.305 7.61947 113.17 7.55176C113.035 7.47559 112.882 7.4375 112.713 7.4375C112.205 7.4375 111.731 7.53906 111.291 7.74219C110.859 7.94531 110.479 8.21615 110.148 8.55469C109.827 8.89323 109.573 9.28678 109.387 9.73535C109.201 10.1839 109.107 10.6579 109.107 11.1572C109.107 11.1911 109.107 11.2546 109.107 11.3477C109.116 11.4323 109.12 11.5254 109.12 11.627C109.12 11.7285 109.12 11.8258 109.12 11.9189C109.129 12.012 109.133 12.0755 109.133 12.1094C109.446 12.2109 109.797 12.2871 110.187 12.3379C110.576 12.3887 110.965 12.4225 111.354 12.4395C111.752 12.4479 112.133 12.4437 112.497 12.4268C112.869 12.4098 113.2 12.3887 113.487 12.3633C113.513 12.3887 113.559 12.4352 113.627 12.5029C113.695 12.5706 113.733 12.6214 113.741 12.6553C113.741 12.6807 113.745 12.6976 113.754 12.7061C113.771 12.7568 113.779 12.7822 113.779 12.7822C113.779 12.96 113.686 13.0996 113.5 13.2012C113.314 13.3027 113.077 13.3789 112.789 13.4297C112.501 13.472 112.18 13.5016 111.824 13.5186C111.477 13.5355 111.139 13.5524 110.809 13.5693C110.487 13.5778 110.195 13.5947 109.933 13.6201C109.679 13.637 109.501 13.6751 109.399 13.7344C109.509 14.2422 109.704 14.7331 109.983 15.207C110.271 15.681 110.563 16.1549 110.859 16.6289C111.156 17.1029 111.418 17.5811 111.646 18.0635C111.875 18.5459 111.989 19.041 111.989 19.5488C111.955 19.5488 111.875 19.5488 111.748 19.5488C111.63 19.5573 111.503 19.5531 111.367 19.5361C111.232 19.5192 111.101 19.4811 110.974 19.4219C110.855 19.3711 110.787 19.2907 110.771 19.1807ZM114.566 12.668C114.566 12.5918 114.571 12.5156 114.579 12.4395C114.588 12.3548 114.604 12.2829 114.63 12.2236C114.655 12.1559 114.693 12.1009 114.744 12.0586C114.803 12.0163 114.884 11.9951 114.985 11.9951C115.07 11.9951 115.163 12.0628 115.265 12.1982C115.375 12.3252 115.485 12.4902 115.595 12.6934C115.705 12.888 115.811 13.1038 115.912 13.3408C116.022 13.5778 116.115 13.7979 116.191 14.001C116.276 14.1956 116.344 14.3649 116.395 14.5088C116.445 14.6527 116.475 14.7288 116.483 14.7373C116.593 14.4411 116.716 14.1195 116.852 13.7725C116.987 13.4255 117.152 13.1038 117.347 12.8076C117.55 12.5029 117.787 12.249 118.058 12.0459C118.337 11.8428 118.675 11.7412 119.073 11.7412C119.276 11.7412 119.467 11.7751 119.645 11.8428C119.831 11.902 119.992 11.9951 120.127 12.1221C120.271 12.2406 120.385 12.3844 120.47 12.5537C120.554 12.723 120.597 12.9176 120.597 13.1377C120.597 13.3239 120.521 13.4551 120.368 13.5312C120.224 13.6074 120.059 13.6455 119.873 13.6455H119.746L119.2 13.0996C119.183 13.0996 119.171 13.0954 119.162 13.0869C119.145 13.0869 119.128 13.0869 119.111 13.0869C119.103 13.0785 119.09 13.0742 119.073 13.0742C118.777 13.0742 118.544 13.1589 118.375 13.3281C118.214 13.4889 118.091 13.6921 118.007 13.9375C117.922 14.1745 117.867 14.4284 117.842 14.6992C117.825 14.9616 117.816 15.2028 117.816 15.4229C117.816 15.5921 117.833 15.7656 117.867 15.9434C117.901 16.1126 117.939 16.2819 117.981 16.4512C118.024 16.612 118.062 16.7812 118.096 16.959C118.13 17.1283 118.146 17.306 118.146 17.4922C118.146 17.8477 117.956 18.0254 117.575 18.0254C117.364 18.0254 117.144 17.9154 116.915 17.6953C116.687 17.4668 116.458 17.179 116.229 16.832C116.009 16.485 115.798 16.1042 115.595 15.6895C115.392 15.2663 115.214 14.8558 115.062 14.458C114.909 14.0602 114.786 13.7005 114.693 13.3789C114.609 13.0573 114.566 12.8203 114.566 12.668ZM121.054 14.4707C121.054 14.0137 121.109 13.5566 121.219 13.0996C121.329 12.6426 121.502 12.2321 121.739 11.8682C121.985 11.5042 122.298 11.208 122.679 10.9795C123.068 10.751 123.538 10.6367 124.088 10.6367C124.401 10.6367 124.676 10.696 124.913 10.8145C125.15 10.9245 125.349 11.0726 125.51 11.2588C125.671 11.445 125.789 11.665 125.865 11.9189C125.95 12.1644 125.992 12.4225 125.992 12.6934C125.992 13.125 125.891 13.5439 125.688 13.9502C125.493 14.3564 125.226 14.7161 124.888 15.0293C124.558 15.334 124.177 15.5667 123.745 15.7275C123.313 15.8799 122.873 15.9137 122.425 15.8291C122.433 16.0745 122.514 16.2734 122.666 16.4258C122.827 16.5697 123.017 16.6797 123.237 16.7559C123.457 16.832 123.686 16.8828 123.923 16.9082C124.16 16.9251 124.371 16.9336 124.558 16.9336C124.752 16.9336 124.934 16.9167 125.104 16.8828C125.273 16.849 125.442 16.8109 125.611 16.7686C125.781 16.7262 125.95 16.6882 126.119 16.6543C126.297 16.6204 126.483 16.6035 126.678 16.6035C126.754 16.6035 126.83 16.6077 126.906 16.6162C126.982 16.6247 127.054 16.6458 127.122 16.6797C127.19 16.7051 127.245 16.7516 127.287 16.8193C127.329 16.8786 127.351 16.9548 127.351 17.0479C127.351 17.2087 127.291 17.3441 127.173 17.4541C127.054 17.5557 126.902 17.6445 126.716 17.7207C126.538 17.7969 126.339 17.8561 126.119 17.8984C125.899 17.9323 125.683 17.9619 125.472 17.9873C125.269 18.0042 125.078 18.0127 124.9 18.0127C124.731 18.0212 124.604 18.0254 124.52 18.0254C123.978 18.0254 123.491 17.9408 123.06 17.7715C122.628 17.5938 122.264 17.3525 121.968 17.0479C121.672 16.7347 121.443 16.3623 121.282 15.9307C121.13 15.4906 121.054 15.0039 121.054 14.4707ZM122.399 13.6455C122.399 13.9417 122.438 14.1576 122.514 14.293C122.598 14.4284 122.797 14.4961 123.11 14.4961C123.33 14.4961 123.546 14.458 123.758 14.3818C123.969 14.2972 124.16 14.1829 124.329 14.0391C124.507 13.8952 124.646 13.7259 124.748 13.5312C124.85 13.3366 124.9 13.125 124.9 12.8965C124.9 12.7695 124.888 12.6383 124.862 12.5029C124.845 12.3675 124.803 12.2448 124.735 12.1348C124.668 12.0163 124.579 11.9232 124.469 11.8555C124.367 11.7793 124.232 11.7412 124.062 11.7412C123.809 11.7412 123.576 11.8005 123.364 11.9189C123.161 12.029 122.988 12.1771 122.844 12.3633C122.7 12.541 122.59 12.7441 122.514 12.9727C122.438 13.1927 122.399 13.417 122.399 13.6455ZM130.575 17.4287C130.711 17.3356 130.871 17.2171 131.058 17.0732C131.252 16.9209 131.447 16.7601 131.642 16.5908C131.836 16.4215 132.018 16.2438 132.188 16.0576C132.357 15.8714 132.488 15.6937 132.581 15.5244C132.683 15.3467 132.733 15.1816 132.733 15.0293C132.733 14.877 132.657 14.75 132.505 14.6484C132.234 14.6484 131.938 14.6611 131.616 14.6865C131.295 14.7035 130.973 14.7119 130.651 14.7119C130.33 14.7035 130.017 14.6738 129.712 14.623C129.416 14.5723 129.149 14.4792 128.912 14.3438C128.675 14.2083 128.485 14.0179 128.341 13.7725C128.205 13.5186 128.138 13.1969 128.138 12.8076C128.138 12.3506 128.222 11.9401 128.392 11.5762C128.569 11.2038 128.802 10.8779 129.09 10.5986C129.378 10.3109 129.699 10.0612 130.055 9.84961C130.419 9.62956 130.783 9.44336 131.146 9.29102C131.367 9.35026 131.57 9.45605 131.756 9.6084C131.942 9.76074 132.103 9.93001 132.238 10.1162C132.179 10.3024 132.061 10.4463 131.883 10.5479C131.714 10.6494 131.515 10.7383 131.286 10.8145C131.066 10.8906 130.833 10.971 130.588 11.0557C130.342 11.1403 130.118 11.2546 129.915 11.3984C129.72 11.5339 129.555 11.7158 129.42 11.9443C129.285 12.1644 129.217 12.4564 129.217 12.8203C129.217 13.0911 129.285 13.29 129.42 13.417C129.555 13.5439 129.733 13.6328 129.953 13.6836C130.173 13.7259 130.423 13.7428 130.702 13.7344C130.981 13.7174 131.265 13.6963 131.553 13.6709C131.849 13.6455 132.137 13.6328 132.416 13.6328C132.695 13.6243 132.945 13.6582 133.165 13.7344C133.385 13.8021 133.559 13.9163 133.686 14.0771C133.821 14.238 133.889 14.4749 133.889 14.7881C133.889 14.9235 133.842 15.097 133.749 15.3086C133.664 15.5202 133.546 15.7487 133.394 15.9941C133.25 16.2311 133.076 16.4681 132.873 16.7051C132.678 16.9421 132.471 17.1579 132.251 17.3525C132.039 17.5387 131.824 17.6953 131.604 17.8223C131.392 17.9408 131.193 18 131.007 18C130.829 18 130.711 17.9365 130.651 17.8096C130.601 17.6826 130.575 17.5557 130.575 17.4287ZM134.765 9.74805C134.765 9.65495 134.773 9.54069 134.79 9.40527C134.815 9.26139 134.854 9.12598 134.904 8.99902C134.964 8.87207 135.035 8.76628 135.12 8.68164C135.205 8.58854 135.315 8.54199 135.45 8.54199C135.459 8.54199 135.48 8.54622 135.514 8.55469C135.548 8.56315 135.569 8.56738 135.577 8.56738C135.721 9.09212 135.806 9.61263 135.831 10.1289C135.856 10.6452 135.848 11.1488 135.806 11.6396C135.763 12.1221 135.7 12.5918 135.615 13.0488C135.531 13.4974 135.459 13.9121 135.399 14.293C135.349 14.6738 135.315 15.0166 135.298 15.3213C135.289 15.626 135.336 15.8841 135.438 16.0957C135.421 15.9603 135.408 15.7995 135.399 15.6133C135.399 15.4186 135.416 15.2197 135.45 15.0166C135.493 14.8135 135.556 14.6104 135.641 14.4072C135.734 14.2041 135.865 14.0221 136.034 13.8613C136.203 13.7005 136.419 13.5736 136.682 13.4805C136.952 13.3874 137.287 13.3408 137.685 13.3408C138.099 13.3408 138.455 13.4128 138.751 13.5566C139.056 13.7005 139.305 13.8994 139.5 14.1533C139.695 14.3988 139.839 14.6908 139.932 15.0293C140.033 15.3594 140.084 15.7148 140.084 16.0957C140.084 16.2734 140.08 16.4766 140.071 16.7051C140.071 16.9251 140.042 17.1325 139.982 17.3271C139.932 17.5133 139.834 17.6742 139.69 17.8096C139.555 17.9365 139.352 18 139.081 18C139.081 17.8646 139.09 17.6826 139.106 17.4541C139.123 17.2171 139.132 16.9674 139.132 16.7051C139.14 16.4427 139.132 16.1761 139.106 15.9053C139.09 15.6344 139.035 15.3932 138.941 15.1816C138.848 14.9616 138.717 14.7839 138.548 14.6484C138.387 14.5046 138.163 14.4326 137.875 14.4326C137.773 14.4326 137.646 14.4411 137.494 14.458C137.35 14.4665 137.202 14.5046 137.05 14.5723C136.897 14.64 136.749 14.7458 136.605 14.8896C136.462 15.0251 136.347 15.2155 136.263 15.4609C136.178 15.6979 136.127 16.0026 136.11 16.375C136.102 16.7389 136.148 17.1875 136.25 17.7207C136.191 17.873 136.115 17.9619 136.021 17.9873C135.937 18.0127 135.827 18.0254 135.691 18.0254C135.421 18.0254 135.196 17.9323 135.019 17.7461C134.849 17.5514 134.718 17.2933 134.625 16.9717C134.532 16.6501 134.468 16.2777 134.435 15.8545C134.409 15.4313 134.401 14.9912 134.409 14.5342C134.418 14.0687 134.439 13.599 134.473 13.125C134.515 12.6426 134.553 12.1898 134.587 11.7666C134.629 11.335 134.667 10.9456 134.701 10.5986C134.743 10.2432 134.765 9.95964 134.765 9.74805ZM141.303 13.874C141.303 13.8486 141.307 13.8021 141.315 13.7344C141.324 13.6582 141.328 13.6159 141.328 13.6074C141.464 13.6074 141.646 13.599 141.874 13.582C142.111 13.5566 142.369 13.5355 142.648 13.5186C142.928 13.4932 143.215 13.4678 143.512 13.4424C143.816 13.417 144.104 13.4001 144.375 13.3916C144.646 13.3831 144.896 13.3789 145.124 13.3789C145.353 13.3789 145.53 13.3916 145.657 13.417C145.81 13.417 145.915 13.4339 145.975 13.4678C146.042 13.5016 146.076 13.6159 146.076 13.8105C145.822 13.9798 145.505 14.1068 145.124 14.1914C144.743 14.2676 144.354 14.3226 143.956 14.3564C143.558 14.3903 143.169 14.4072 142.788 14.4072C142.416 14.4072 142.111 14.4115 141.874 14.4199C141.646 14.4368 141.493 14.3903 141.417 14.2803C141.341 14.1702 141.303 14.0348 141.303 13.874ZM146.838 12.5664C146.838 12.4225 146.868 12.2913 146.927 12.1729C146.994 12.0544 147.109 11.9951 147.27 11.9951C147.278 11.9951 147.291 11.9993 147.308 12.0078C147.325 12.0078 147.341 12.0078 147.358 12.0078C147.375 12.0078 147.392 12.0078 147.409 12.0078C147.435 12.0247 147.481 12.0671 147.549 12.1348C147.625 12.2025 147.672 12.2533 147.688 12.2871C147.714 12.3379 147.765 12.4479 147.841 12.6172C147.925 12.7865 148.023 12.9854 148.133 13.2139C148.251 13.4339 148.37 13.6709 148.488 13.9248C148.615 14.1702 148.734 14.4072 148.844 14.6357C148.962 14.8643 149.06 15.0632 149.136 15.2324C149.22 15.3932 149.28 15.499 149.313 15.5498C149.322 15.5752 149.36 15.626 149.428 15.7021C149.504 15.7699 149.559 15.8122 149.593 15.8291C149.66 15.7106 149.728 15.5329 149.796 15.2959C149.864 15.0589 149.931 14.8008 149.999 14.5215C150.075 14.2337 150.151 13.9417 150.228 13.6455C150.304 13.3408 150.388 13.07 150.481 12.833C150.583 12.5876 150.693 12.3887 150.812 12.2363C150.93 12.0755 151.065 11.9951 151.218 11.9951C151.438 11.9951 151.645 12.0798 151.84 12.249C152.043 12.4183 152.233 12.6383 152.411 12.9092C152.597 13.18 152.771 13.4847 152.932 13.8232C153.101 14.1533 153.257 14.4834 153.401 14.8135C153.554 15.1351 153.693 15.4355 153.82 15.7148C153.956 15.9857 154.087 16.2015 154.214 16.3623C154.315 16.3285 154.4 16.2438 154.468 16.1084C154.535 15.973 154.586 15.8333 154.62 15.6895C154.662 15.5371 154.692 15.3975 154.709 15.2705C154.726 15.1351 154.739 15.0462 154.747 15.0039C154.756 14.9108 154.768 14.7669 154.785 14.5723C154.802 14.3691 154.819 14.1406 154.836 13.8867C154.861 13.6328 154.882 13.3704 154.899 13.0996C154.916 12.8288 154.933 12.5664 154.95 12.3125C154.976 12.0586 154.993 11.8343 155.001 11.6396C155.018 11.4365 155.026 11.2926 155.026 11.208C155.043 11.208 155.086 11.2038 155.153 11.1953C155.221 11.1784 155.268 11.1699 155.293 11.1699C155.411 11.1699 155.517 11.1826 155.61 11.208C155.703 11.2334 155.775 11.3223 155.826 11.4746C155.826 11.5339 155.826 11.6396 155.826 11.792C155.835 11.9443 155.839 12.1094 155.839 12.2871C155.847 12.4564 155.852 12.6214 155.852 12.7822C155.86 12.9346 155.864 13.0404 155.864 13.0996C155.864 13.235 155.864 13.4466 155.864 13.7344C155.873 14.0137 155.868 14.3268 155.852 14.6738C155.843 15.0208 155.818 15.3763 155.775 15.7402C155.733 16.0957 155.665 16.4258 155.572 16.7305C155.488 17.0267 155.369 17.2721 155.217 17.4668C155.064 17.653 154.874 17.7461 154.646 17.7461C154.383 17.7461 154.138 17.6826 153.909 17.5557C153.681 17.4287 153.465 17.2594 153.262 17.0479C153.067 16.8363 152.881 16.6035 152.703 16.3496C152.525 16.0872 152.36 15.8249 152.208 15.5625C152.064 15.2917 151.929 15.0378 151.802 14.8008C151.683 14.5553 151.577 14.348 151.484 14.1787C151.417 14.3311 151.353 14.5215 151.294 14.75C151.243 14.9785 151.184 15.2282 151.116 15.499C151.049 15.7614 150.972 16.028 150.888 16.2988C150.803 16.5612 150.706 16.8024 150.596 17.0225C150.494 17.234 150.371 17.4076 150.228 17.543C150.092 17.6784 149.936 17.7461 149.758 17.7461C149.673 17.7461 149.597 17.7503 149.529 17.7588C149.462 17.7588 149.398 17.7546 149.339 17.7461C149.28 17.7292 149.225 17.6995 149.174 17.6572C149.123 17.6149 149.076 17.5472 149.034 17.4541L146.863 12.8203C146.863 12.8118 146.859 12.778 146.851 12.7188C146.842 12.651 146.838 12.6003 146.838 12.5664ZM162.11 16.3623C161.789 16.5824 161.509 16.7812 161.272 16.959C161.044 17.1283 160.82 17.2721 160.6 17.3906C160.38 17.5091 160.143 17.598 159.889 17.6572C159.643 17.7165 159.339 17.7461 158.975 17.7461C158.188 17.7461 157.604 17.5387 157.223 17.124C156.842 16.7008 156.651 16.0745 156.651 15.2451C156.651 14.9235 156.694 14.5892 156.778 14.2422C156.863 13.8952 156.986 13.5524 157.146 13.2139C157.316 12.8669 157.515 12.541 157.743 12.2363C157.972 11.9232 158.23 11.6481 158.518 11.4111C158.805 11.1742 159.11 10.988 159.432 10.8525C159.762 10.7087 160.109 10.6367 160.473 10.6367C161.082 10.696 161.56 10.8483 161.907 11.0938C162.254 11.3307 162.517 11.6396 162.694 12.0205C162.872 12.3929 162.995 12.8118 163.062 13.2773C163.13 13.7344 163.181 14.2083 163.215 14.6992C163.257 15.1901 163.308 15.681 163.367 16.1719C163.426 16.6628 163.549 17.1156 163.735 17.5303C163.625 17.8096 163.52 18.0042 163.418 18.1143C163.325 18.2327 163.219 18.2539 163.101 18.1777C162.982 18.1016 162.842 17.9154 162.682 17.6191C162.529 17.3229 162.339 16.904 162.11 16.3623ZM157.73 15.2705C157.73 15.7529 157.819 16.1084 157.997 16.3369C158.183 16.557 158.509 16.667 158.975 16.667C159.322 16.667 159.652 16.6077 159.965 16.4893C160.286 16.3623 160.566 16.193 160.803 15.9814C161.04 15.7614 161.23 15.499 161.374 15.1943C161.518 14.8896 161.59 14.5511 161.59 14.1787C161.59 14.0264 161.594 13.8148 161.603 13.5439C161.611 13.2646 161.594 12.9896 161.552 12.7188C161.509 12.4479 161.429 12.2152 161.311 12.0205C161.192 11.8174 161.014 11.7158 160.777 11.7158C160.337 11.7158 159.931 11.8301 159.559 12.0586C159.186 12.2786 158.865 12.5622 158.594 12.9092C158.323 13.2562 158.111 13.6413 157.959 14.0645C157.807 14.4792 157.73 14.8812 157.73 15.2705ZM164.256 11.6016C164.256 11.5762 164.26 11.555 164.269 11.5381C164.269 11.5212 164.273 11.5 164.281 11.4746C164.315 11.4323 164.366 11.3773 164.434 11.3096C164.501 11.2419 164.544 11.208 164.561 11.208H167.112C167.112 11.1149 167.1 10.9668 167.074 10.7637C167.049 10.5605 167.023 10.3363 166.998 10.0908C166.981 9.84538 166.977 9.59147 166.985 9.3291C166.994 9.05827 167.028 8.81706 167.087 8.60547C167.155 8.38542 167.256 8.20768 167.392 8.07227C167.535 7.92839 167.734 7.85645 167.988 7.85645C167.988 8.71126 168.048 9.39681 168.166 9.91309C168.285 10.4294 168.441 10.8271 168.636 11.1064C168.839 11.3857 169.067 11.5677 169.321 11.6523C169.575 11.737 169.833 11.7751 170.096 11.7666C170.367 11.7497 170.629 11.7074 170.883 11.6396C171.137 11.5719 171.361 11.5254 171.556 11.5C171.759 11.4746 171.92 11.4958 172.038 11.5635C172.157 11.6227 172.216 11.7708 172.216 12.0078C172.216 12.1855 172.174 12.3125 172.089 12.3887C172.013 12.4648 171.86 12.5241 171.632 12.5664C171.564 12.5749 171.45 12.5918 171.289 12.6172C171.137 12.6341 170.963 12.651 170.769 12.668C170.574 12.6849 170.367 12.7061 170.146 12.7314C169.926 12.7484 169.719 12.7653 169.524 12.7822C169.33 12.7992 169.152 12.8118 168.991 12.8203C168.83 12.8203 168.712 12.8203 168.636 12.8203C168.636 12.8626 168.632 12.9346 168.623 13.0361C168.615 13.1377 168.61 13.2054 168.61 13.2393C168.61 13.6117 168.67 13.9756 168.788 14.3311C168.907 14.6781 169.034 15.0251 169.169 15.3721C169.313 15.7191 169.444 16.0661 169.562 16.4131C169.681 16.7601 169.74 17.1198 169.74 17.4922C169.74 17.5599 169.732 17.6318 169.715 17.708C169.706 17.7757 169.681 17.8392 169.639 17.8984C169.605 17.9492 169.55 17.9873 169.474 18.0127C169.406 18.0465 169.309 18.0423 169.182 18C168.86 17.9154 168.619 17.7334 168.458 17.4541C168.306 17.1748 168.191 16.8447 168.115 16.4639C168.039 16.0745 167.988 15.6641 167.963 15.2324C167.938 14.8008 167.895 14.3988 167.836 14.0264C167.785 13.6455 167.701 13.3239 167.582 13.0615C167.464 12.7907 167.273 12.6257 167.011 12.5664L164.561 12.0078C164.527 12.0078 164.476 11.974 164.408 11.9062C164.34 11.8301 164.298 11.7751 164.281 11.7412C164.273 11.7243 164.269 11.7031 164.269 11.6777C164.26 11.6608 164.256 11.6354 164.256 11.6016ZM172.698 14.4707C172.698 14.0137 172.753 13.5566 172.863 13.0996C172.973 12.6426 173.147 12.2321 173.384 11.8682C173.629 11.5042 173.942 11.208 174.323 10.9795C174.713 10.751 175.182 10.6367 175.732 10.6367C176.046 10.6367 176.321 10.696 176.558 10.8145C176.795 10.9245 176.993 11.0726 177.154 11.2588C177.315 11.445 177.434 11.665 177.51 11.9189C177.594 12.1644 177.637 12.4225 177.637 12.6934C177.637 13.125 177.535 13.5439 177.332 13.9502C177.137 14.3564 176.871 14.7161 176.532 15.0293C176.202 15.334 175.821 15.5667 175.39 15.7275C174.958 15.8799 174.518 15.9137 174.069 15.8291C174.078 16.0745 174.158 16.2734 174.311 16.4258C174.471 16.5697 174.662 16.6797 174.882 16.7559C175.102 16.832 175.33 16.8828 175.567 16.9082C175.804 16.9251 176.016 16.9336 176.202 16.9336C176.397 16.9336 176.579 16.9167 176.748 16.8828C176.917 16.849 177.087 16.8109 177.256 16.7686C177.425 16.7262 177.594 16.6882 177.764 16.6543C177.941 16.6204 178.128 16.6035 178.322 16.6035C178.398 16.6035 178.475 16.6077 178.551 16.6162C178.627 16.6247 178.699 16.6458 178.767 16.6797C178.834 16.7051 178.889 16.7516 178.932 16.8193C178.974 16.8786 178.995 16.9548 178.995 17.0479C178.995 17.2087 178.936 17.3441 178.817 17.4541C178.699 17.5557 178.547 17.6445 178.36 17.7207C178.183 17.7969 177.984 17.8561 177.764 17.8984C177.544 17.9323 177.328 17.9619 177.116 17.9873C176.913 18.0042 176.723 18.0127 176.545 18.0127C176.376 18.0212 176.249 18.0254 176.164 18.0254C175.622 18.0254 175.136 17.9408 174.704 17.7715C174.272 17.5938 173.909 17.3525 173.612 17.0479C173.316 16.7347 173.088 16.3623 172.927 15.9307C172.774 15.4906 172.698 15.0039 172.698 14.4707ZM174.044 13.6455C174.044 13.9417 174.082 14.1576 174.158 14.293C174.243 14.4284 174.442 14.4961 174.755 14.4961C174.975 14.4961 175.191 14.458 175.402 14.3818C175.614 14.2972 175.804 14.1829 175.974 14.0391C176.151 13.8952 176.291 13.7259 176.393 13.5312C176.494 13.3366 176.545 13.125 176.545 12.8965C176.545 12.7695 176.532 12.6383 176.507 12.5029C176.49 12.3675 176.448 12.2448 176.38 12.1348C176.312 12.0163 176.223 11.9232 176.113 11.8555C176.012 11.7793 175.876 11.7412 175.707 11.7412C175.453 11.7412 175.22 11.8005 175.009 11.9189C174.806 12.029 174.632 12.1771 174.488 12.3633C174.344 12.541 174.234 12.7441 174.158 12.9727C174.082 13.1927 174.044 13.417 174.044 13.6455ZM179.782 12.668C179.782 12.5918 179.786 12.5156 179.795 12.4395C179.803 12.3548 179.82 12.2829 179.846 12.2236C179.871 12.1559 179.909 12.1009 179.96 12.0586C180.019 12.0163 180.1 11.9951 180.201 11.9951C180.286 11.9951 180.379 12.0628 180.48 12.1982C180.59 12.3252 180.701 12.4902 180.811 12.6934C180.921 12.888 181.026 13.1038 181.128 13.3408C181.238 13.5778 181.331 13.7979 181.407 14.001C181.492 14.1956 181.56 14.3649 181.61 14.5088C181.661 14.6527 181.691 14.7288 181.699 14.7373C181.809 14.4411 181.932 14.1195 182.067 13.7725C182.203 13.4255 182.368 13.1038 182.562 12.8076C182.766 12.5029 183.003 12.249 183.273 12.0459C183.553 11.8428 183.891 11.7412 184.289 11.7412C184.492 11.7412 184.683 11.7751 184.86 11.8428C185.047 11.902 185.207 11.9951 185.343 12.1221C185.487 12.2406 185.601 12.3844 185.686 12.5537C185.77 12.723 185.812 12.9176 185.812 13.1377C185.812 13.3239 185.736 13.4551 185.584 13.5312C185.44 13.6074 185.275 13.6455 185.089 13.6455H184.962L184.416 13.0996C184.399 13.0996 184.386 13.0954 184.378 13.0869C184.361 13.0869 184.344 13.0869 184.327 13.0869C184.319 13.0785 184.306 13.0742 184.289 13.0742C183.993 13.0742 183.76 13.1589 183.591 13.3281C183.43 13.4889 183.307 13.6921 183.223 13.9375C183.138 14.1745 183.083 14.4284 183.058 14.6992C183.041 14.9616 183.032 15.2028 183.032 15.4229C183.032 15.5921 183.049 15.7656 183.083 15.9434C183.117 16.1126 183.155 16.2819 183.197 16.4512C183.24 16.612 183.278 16.7812 183.312 16.959C183.345 17.1283 183.362 17.306 183.362 17.4922C183.362 17.8477 183.172 18.0254 182.791 18.0254C182.579 18.0254 182.359 17.9154 182.131 17.6953C181.902 17.4668 181.674 17.179 181.445 16.832C181.225 16.485 181.014 16.1042 180.811 15.6895C180.607 15.2663 180.43 14.8558 180.277 14.458C180.125 14.0602 180.002 13.7005 179.909 13.3789C179.825 13.0573 179.782 12.8203 179.782 12.668ZM186.841 22.9004C187.129 22.2572 187.315 21.5928 187.399 20.9072C187.484 20.2217 187.476 19.5277 187.374 18.8252L187.92 18.2793C188.089 18.3301 188.212 18.4359 188.288 18.5967C188.373 18.766 188.428 18.9521 188.453 19.1553C188.487 19.3584 188.5 19.57 188.491 19.79C188.491 20.0101 188.491 20.1963 188.491 20.3486C188.491 20.3825 188.487 20.4502 188.479 20.5518C188.47 20.6533 188.466 20.7126 188.466 20.7295C188.449 20.8141 188.415 20.958 188.364 21.1611C188.322 21.3643 188.271 21.5801 188.212 21.8086C188.153 22.0456 188.093 22.2656 188.034 22.4688C187.983 22.6719 187.945 22.8158 187.92 22.9004C187.903 22.9173 187.869 22.9385 187.818 22.9639C187.768 22.9893 187.708 23.0146 187.641 23.04C187.581 23.0739 187.526 23.1035 187.476 23.1289C187.433 23.1543 187.399 23.1712 187.374 23.1797H187.247H187.095C187.069 23.1628 187.023 23.1162 186.955 23.04C186.896 22.9723 186.858 22.9258 186.841 22.9004ZM187.349 14.9785C187.425 14.9785 187.514 14.9785 187.615 14.9785C187.725 14.9785 187.823 14.9912 187.907 15.0166C187.992 15.042 188.064 15.0843 188.123 15.1436C188.191 15.2028 188.225 15.2959 188.225 15.4229C188.225 15.6006 188.14 15.7572 187.971 15.8926C187.81 16.0195 187.615 16.1296 187.387 16.2227C187.167 16.3073 186.934 16.3708 186.688 16.4131C186.451 16.4469 186.261 16.4639 186.117 16.4639C186.117 16.2438 186.138 16.0449 186.181 15.8672C186.231 15.6895 186.303 15.5371 186.396 15.4102C186.49 15.2747 186.612 15.1689 186.765 15.0928C186.925 15.0166 187.12 14.9785 187.349 14.9785Z" fill="#AAAAAA"/>
</svg>
