<svg width="110" height="52" viewBox="0 0 110 52" fill="none" xmlns="http://www.w3.org/2000/svg">
<path d="M4 51C4 31.4738 4 1 4 1M4 51L7 47M4 51L1 47M4 1L7 5.5M4 1C4 1 2.5621 3.15685 1 5.5" stroke="#AAAAAA"/>
<path d="M13.8403 22.1162C13.8403 22.0739 13.8446 22.002 13.853 21.9004C13.853 21.7904 13.853 21.6803 13.853 21.5703C13.853 21.4518 13.8573 21.3418 13.8657 21.2402C13.8657 21.1387 13.8657 21.071 13.8657 21.0371C14.0773 20.8086 14.2508 20.6732 14.3862 20.6309C14.5301 20.5885 14.6444 20.6139 14.729 20.707C14.8136 20.7917 14.8729 20.9313 14.9067 21.126C14.9491 21.3206 14.9787 21.5407 14.9956 21.7861C15.0125 22.0316 15.021 22.2897 15.021 22.5605C15.021 22.8314 15.0252 23.0853 15.0337 23.3223C15.0422 23.5508 15.0591 23.7539 15.0845 23.9316C15.1099 24.1094 15.1564 24.2279 15.2241 24.2871H19.5786C19.7563 24.2871 19.8833 24.2321 19.9595 24.1221C20.0356 24.012 20.078 23.8682 20.0864 23.6904C20.1034 23.5127 20.0991 23.3096 20.0737 23.0811C20.0483 22.8525 20.0229 22.6198 19.9976 22.3828C19.9806 22.1374 19.9722 21.9004 19.9722 21.6719C19.9806 21.4349 20.0187 21.2275 20.0864 21.0498C20.1626 20.8721 20.2769 20.7282 20.4292 20.6182C20.5815 20.5081 20.8058 20.4531 21.1021 20.4531C21.2121 20.6139 21.2798 20.7917 21.3052 20.9863C21.3306 21.1725 21.3348 21.3672 21.3179 21.5703C21.3094 21.7734 21.2882 21.9766 21.2544 22.1797C21.229 22.3743 21.2163 22.5648 21.2163 22.751C21.2163 23.2503 21.2459 23.7497 21.3052 24.249C21.3729 24.7484 21.4406 25.2477 21.5083 25.7471C21.5845 26.2464 21.6522 26.7458 21.7114 27.2451C21.7791 27.736 21.813 28.2227 21.813 28.7051C21.8299 29.2298 21.7961 29.6064 21.7114 29.835C21.6268 30.055 21.521 30.1523 21.394 30.127C21.2671 30.11 21.1232 29.9831 20.9624 29.7461C20.8101 29.5091 20.6662 29.1917 20.5308 28.7939C20.4038 28.3962 20.298 27.9307 20.2134 27.3975C20.1372 26.8558 20.1076 26.2718 20.1245 25.6455H15.5415C15.6007 26.2295 15.6769 26.7796 15.77 27.2959C15.8716 27.8122 15.9478 28.2692 15.9985 28.667C16.0578 29.0563 16.0789 29.3695 16.062 29.6064C16.0535 29.835 15.9689 29.9535 15.8081 29.9619C15.5627 29.9619 15.3553 29.8815 15.186 29.7207C15.0168 29.5514 14.8687 29.3229 14.7417 29.0352C14.6232 28.7474 14.5259 28.4131 14.4497 28.0322C14.3735 27.6429 14.3101 27.2367 14.2593 26.8135C14.2085 26.3818 14.1662 25.9417 14.1323 25.4932C14.1069 25.0446 14.0815 24.613 14.0562 24.1982C14.0308 23.7835 14.0011 23.3984 13.9673 23.043C13.9334 22.679 13.8911 22.3701 13.8403 22.1162ZM22.5493 26.4707C22.5493 26.0137 22.6043 25.5566 22.7144 25.0996C22.8244 24.6426 22.9979 24.2321 23.2349 23.8682C23.4803 23.5042 23.7935 23.208 24.1743 22.9795C24.5636 22.751 25.0334 22.6367 25.5835 22.6367C25.8966 22.6367 26.1717 22.696 26.4087 22.8145C26.6457 22.9245 26.8446 23.0726 27.0054 23.2588C27.1662 23.445 27.2847 23.665 27.3608 23.9189C27.4455 24.1644 27.4878 24.4225 27.4878 24.6934C27.4878 25.125 27.3862 25.5439 27.1831 25.9502C26.9884 26.3564 26.7218 26.7161 26.3833 27.0293C26.0532 27.334 25.6724 27.5667 25.2407 27.7275C24.8091 27.8799 24.369 27.9137 23.9204 27.8291C23.9289 28.0745 24.0093 28.2734 24.1616 28.4258C24.3224 28.5697 24.5129 28.6797 24.7329 28.7559C24.953 28.832 25.1815 28.8828 25.4185 28.9082C25.6554 28.9251 25.867 28.9336 26.0532 28.9336C26.2479 28.9336 26.4299 28.9167 26.5991 28.8828C26.7684 28.849 26.9377 28.8109 27.1069 28.7686C27.2762 28.7262 27.4455 28.6882 27.6147 28.6543C27.7925 28.6204 27.9787 28.6035 28.1733 28.6035C28.2495 28.6035 28.3257 28.6077 28.4019 28.6162C28.478 28.6247 28.55 28.6458 28.6177 28.6797C28.6854 28.7051 28.7404 28.7516 28.7827 28.8193C28.825 28.8786 28.8462 28.9548 28.8462 29.0479C28.8462 29.2087 28.7869 29.3441 28.6685 29.4541C28.55 29.5557 28.3976 29.6445 28.2114 29.7207C28.0337 29.7969 27.8348 29.8561 27.6147 29.8984C27.3947 29.9323 27.1789 29.9619 26.9673 29.9873C26.7642 30.0042 26.5737 30.0127 26.396 30.0127C26.2267 30.0212 26.0998 30.0254 26.0151 30.0254C25.4735 30.0254 24.9868 29.9408 24.5552 29.7715C24.1235 29.5938 23.7596 29.3525 23.4634 29.0479C23.1672 28.7347 22.9386 28.3623 22.7778 27.9307C22.6255 27.4906 22.5493 27.0039 22.5493 26.4707ZM23.895 25.6455C23.895 25.9417 23.9331 26.1576 24.0093 26.293C24.0939 26.4284 24.2928 26.4961 24.606 26.4961C24.826 26.4961 25.0418 26.458 25.2534 26.3818C25.465 26.2972 25.6554 26.1829 25.8247 26.0391C26.0024 25.8952 26.1421 25.7259 26.2437 25.5312C26.3452 25.3366 26.396 25.125 26.396 24.8965C26.396 24.7695 26.3833 24.6383 26.3579 24.5029C26.341 24.3675 26.2987 24.2448 26.231 24.1348C26.1632 24.0163 26.0744 23.9232 25.9644 23.8555C25.8628 23.7793 25.7274 23.7412 25.5581 23.7412C25.3042 23.7412 25.0715 23.8005 24.8599 23.9189C24.6567 24.029 24.4832 24.1771 24.3394 24.3633C24.1955 24.541 24.0854 24.7441 24.0093 24.9727C23.9331 25.1927 23.895 25.417 23.895 25.6455ZM30.1665 25.2393C30.1665 25.1885 30.1665 25.1081 30.1665 24.998C30.175 24.8796 30.1792 24.7568 30.1792 24.6299C30.1877 24.5029 30.1919 24.3802 30.1919 24.2617C30.2004 24.1432 30.2046 24.0586 30.2046 24.0078C30.2977 23.8724 30.4162 23.7624 30.5601 23.6777C30.7124 23.5931 30.8647 23.5254 31.0171 23.4746C31.0425 23.9316 31.1144 24.4183 31.2329 24.9346C31.3514 25.4508 31.4784 25.9714 31.6138 26.4961C31.7492 27.0124 31.8677 27.5244 31.9692 28.0322C32.0793 28.54 32.1343 29.014 32.1343 29.4541C32.1343 29.835 31.9396 30.0254 31.5503 30.0254C31.3133 30.0254 31.1144 29.9281 30.9536 29.7334C30.7928 29.5387 30.6616 29.2933 30.5601 28.9971C30.467 28.6924 30.3908 28.3581 30.3315 27.9941C30.2723 27.6217 30.23 27.2578 30.2046 26.9023C30.1877 26.5469 30.175 26.221 30.1665 25.9248C30.1665 25.6286 30.1665 25.4001 30.1665 25.2393ZM30.3442 20.4785C30.505 20.5462 30.6405 20.6562 30.7505 20.8086C30.8605 20.9609 30.9071 21.1006 30.8901 21.2275C30.8817 21.346 30.7886 21.4307 30.6108 21.4814C30.4331 21.5238 30.1369 21.473 29.7222 21.3291C29.7222 21.1006 29.7645 20.9017 29.8491 20.7324C29.9422 20.5632 30.1073 20.4785 30.3442 20.4785ZM35.9048 36.7539C36.3787 36.7539 36.8019 36.665 37.1743 36.4873C37.5467 36.318 37.8599 36.0811 38.1138 35.7764C38.3761 35.4801 38.575 35.1374 38.7104 34.748C38.8543 34.3672 38.9263 33.9694 38.9263 33.5547C38.9263 33.3431 38.9136 33.0638 38.8882 32.7168C38.8713 32.3698 38.8416 31.9932 38.7993 31.5869C38.757 31.1807 38.6935 30.766 38.6089 30.3428C38.5327 29.9196 38.4354 29.5218 38.3169 29.1494C38.1984 28.7686 38.0503 28.4385 37.8726 28.1592C37.7033 27.8714 37.5044 27.6683 37.2759 27.5498C37.0558 27.7191 36.84 27.8757 36.6284 28.0195C36.4168 28.1549 36.1968 28.2692 35.9683 28.3623C35.7397 28.4554 35.5028 28.5316 35.2573 28.5908C35.0119 28.6416 34.7495 28.667 34.4702 28.667C34.1063 28.667 33.7931 28.6331 33.5308 28.5654C33.2769 28.4977 33.061 28.3835 32.8833 28.2227C32.714 28.0618 32.5871 27.8503 32.5024 27.5879C32.4178 27.3255 32.3755 26.9954 32.3755 26.5977C32.3755 26.3184 32.4432 26.0475 32.5786 25.7852C32.714 25.5143 32.8918 25.2646 33.1118 25.0361C33.3403 24.7992 33.5942 24.5833 33.8735 24.3887C34.1613 24.194 34.4533 24.0247 34.7495 23.8809C35.0542 23.737 35.3504 23.627 35.6382 23.5508C35.9344 23.4746 36.1968 23.4365 36.4253 23.4365C36.6453 23.4365 36.8273 23.445 36.9712 23.4619C37.1151 23.4704 37.2378 23.5042 37.3394 23.5635C37.4409 23.6143 37.5256 23.6989 37.5933 23.8174C37.6694 23.9274 37.7414 24.0798 37.8091 24.2744C38.0037 24.9346 38.228 25.6455 38.4819 26.4072C38.7358 27.1689 38.9771 27.9518 39.2056 28.7559C39.4341 29.5599 39.6245 30.3682 39.7769 31.1807C39.9377 32.0016 40.0181 32.793 40.0181 33.5547C40.0181 34.2318 39.9207 34.8031 39.7261 35.2686C39.5399 35.7425 39.2902 36.1276 38.9771 36.4238C38.6724 36.7285 38.3211 36.9613 37.9233 37.1221C37.534 37.2829 37.1405 37.3844 36.7427 37.4268C36.3449 37.4775 35.9598 37.4902 35.5874 37.4648C35.215 37.4395 34.8934 37.3887 34.6226 37.3125C34.3517 37.2448 34.1444 37.1644 34.0005 37.0713C33.8651 36.9782 33.8312 36.8978 33.8989 36.8301C33.9751 36.7708 34.1698 36.7285 34.4829 36.7031C34.7961 36.6777 35.27 36.6947 35.9048 36.7539ZM36.0825 24.5029C35.4562 24.6383 34.9484 24.8288 34.5591 25.0742C34.1782 25.3112 33.8905 25.5693 33.6958 25.8486C33.5096 26.1195 33.408 26.3945 33.3911 26.6738C33.3742 26.9447 33.425 27.1774 33.5435 27.3721C33.6619 27.5667 33.8312 27.7148 34.0513 27.8164C34.2798 27.9095 34.5379 27.9137 34.8257 27.8291C35.1134 27.736 35.4181 27.5413 35.7397 27.2451C36.0698 26.9489 36.3999 26.5088 36.73 25.9248C36.73 25.7809 36.73 25.6243 36.73 25.4551C36.7384 25.2858 36.7257 25.1335 36.6919 24.998C36.658 24.8542 36.5946 24.7357 36.5015 24.6426C36.4084 24.5495 36.2687 24.5029 36.0825 24.5029ZM40.3481 21.748C40.3481 21.6549 40.3566 21.5407 40.3735 21.4053C40.3989 21.2614 40.437 21.126 40.4878 20.999C40.547 20.8721 40.619 20.7663 40.7036 20.6816C40.7882 20.5885 40.8983 20.542 41.0337 20.542C41.0422 20.542 41.0633 20.5462 41.0972 20.5547C41.131 20.5632 41.1522 20.5674 41.1606 20.5674C41.3045 21.0921 41.3892 21.6126 41.4146 22.1289C41.4399 22.6452 41.4315 23.1488 41.3892 23.6396C41.3468 24.1221 41.2834 24.5918 41.1987 25.0488C41.1141 25.4974 41.0422 25.9121 40.9829 26.293C40.9321 26.6738 40.8983 27.0166 40.8813 27.3213C40.8729 27.626 40.9194 27.8841 41.021 28.0957C41.0041 27.9603 40.9914 27.7995 40.9829 27.6133C40.9829 27.4186 40.9998 27.2197 41.0337 27.0166C41.076 26.8135 41.1395 26.6104 41.2241 26.4072C41.3172 26.2041 41.4484 26.0221 41.6177 25.8613C41.7869 25.7005 42.0028 25.5736 42.2651 25.4805C42.536 25.3874 42.8703 25.3408 43.2681 25.3408C43.6828 25.3408 44.0382 25.4128 44.3345 25.5566C44.6392 25.7005 44.8888 25.8994 45.0835 26.1533C45.2782 26.3988 45.422 26.6908 45.5151 27.0293C45.6167 27.3594 45.6675 27.7148 45.6675 28.0957C45.6675 28.2734 45.6632 28.4766 45.6548 28.7051C45.6548 28.9251 45.6252 29.1325 45.5659 29.3271C45.5151 29.5133 45.4178 29.6742 45.2739 29.8096C45.1385 29.9365 44.9354 30 44.6646 30C44.6646 29.8646 44.673 29.6826 44.6899 29.4541C44.7069 29.2171 44.7153 28.9674 44.7153 28.7051C44.7238 28.4427 44.7153 28.1761 44.6899 27.9053C44.673 27.6344 44.618 27.3932 44.5249 27.1816C44.4318 26.9616 44.3006 26.7839 44.1313 26.6484C43.9705 26.5046 43.7463 26.4326 43.4585 26.4326C43.3569 26.4326 43.23 26.4411 43.0776 26.458C42.9338 26.4665 42.7856 26.5046 42.6333 26.5723C42.481 26.64 42.3328 26.7458 42.189 26.8896C42.0451 27.0251 41.9308 27.2155 41.8462 27.4609C41.7616 27.6979 41.7108 28.0026 41.6938 28.375C41.6854 28.7389 41.7319 29.1875 41.8335 29.7207C41.7743 29.873 41.6981 29.9619 41.605 29.9873C41.5203 30.0127 41.4103 30.0254 41.2749 30.0254C41.0041 30.0254 40.7798 29.9323 40.6021 29.7461C40.4328 29.5514 40.3016 29.2933 40.2085 28.9717C40.1154 28.6501 40.0519 28.2777 40.0181 27.8545C39.9927 27.4313 39.9842 26.9912 39.9927 26.5342C40.0011 26.0687 40.0223 25.599 40.0562 25.125C40.0985 24.6426 40.1366 24.1898 40.1704 23.7666C40.2127 23.335 40.2508 22.9456 40.2847 22.5986C40.327 22.2432 40.3481 21.9596 40.3481 21.748ZM45.896 23.6016C45.896 23.5762 45.9002 23.555 45.9087 23.5381C45.9087 23.5212 45.9129 23.5 45.9214 23.4746C45.9552 23.4323 46.006 23.3773 46.0737 23.3096C46.1414 23.2419 46.1838 23.208 46.2007 23.208H48.7524C48.7524 23.1149 48.7397 22.9668 48.7144 22.7637C48.689 22.5605 48.6636 22.3363 48.6382 22.0908C48.6213 21.8454 48.617 21.5915 48.6255 21.3291C48.634 21.0583 48.6678 20.8171 48.7271 20.6055C48.7948 20.3854 48.8963 20.2077 49.0317 20.0723C49.1756 19.9284 49.3745 19.8564 49.6284 19.8564C49.6284 20.7113 49.6877 21.3968 49.8062 21.9131C49.9246 22.4294 50.0812 22.8271 50.2759 23.1064C50.479 23.3857 50.7075 23.5677 50.9614 23.6523C51.2153 23.737 51.4735 23.7751 51.7358 23.7666C52.0067 23.7497 52.269 23.7074 52.5229 23.6396C52.7769 23.5719 53.0011 23.5254 53.1958 23.5C53.3989 23.4746 53.5597 23.4958 53.6782 23.5635C53.7967 23.6227 53.856 23.7708 53.856 24.0078C53.856 24.1855 53.8136 24.3125 53.729 24.3887C53.6528 24.4648 53.5005 24.5241 53.272 24.5664C53.2043 24.5749 53.09 24.5918 52.9292 24.6172C52.7769 24.6341 52.6034 24.651 52.4087 24.668C52.214 24.6849 52.0067 24.7061 51.7866 24.7314C51.5666 24.7484 51.3592 24.7653 51.1646 24.7822C50.9699 24.7992 50.7922 24.8118 50.6313 24.8203C50.4705 24.8203 50.3521 24.8203 50.2759 24.8203C50.2759 24.8626 50.2716 24.9346 50.2632 25.0361C50.2547 25.1377 50.2505 25.2054 50.2505 25.2393C50.2505 25.6117 50.3097 25.9756 50.4282 26.3311C50.5467 26.6781 50.6737 27.0251 50.8091 27.3721C50.953 27.7191 51.0841 28.0661 51.2026 28.4131C51.3211 28.7601 51.3804 29.1198 51.3804 29.4922C51.3804 29.5599 51.3719 29.6318 51.355 29.708C51.3465 29.7757 51.3211 29.8392 51.2788 29.8984C51.245 29.9492 51.1899 29.9873 51.1138 30.0127C51.0461 30.0465 50.9487 30.0423 50.8218 30C50.5002 29.9154 50.259 29.7334 50.0981 29.4541C49.9458 29.1748 49.8315 28.8447 49.7554 28.4639C49.6792 28.0745 49.6284 27.6641 49.603 27.2324C49.5776 26.8008 49.5353 26.3988 49.4761 26.0264C49.4253 25.6455 49.3407 25.3239 49.2222 25.0615C49.1037 24.7907 48.9132 24.6257 48.6509 24.5664L46.2007 24.0078C46.1668 24.0078 46.116 23.974 46.0483 23.9062C45.9806 23.8301 45.9383 23.7751 45.9214 23.7412C45.9129 23.7243 45.9087 23.7031 45.9087 23.6777C45.9002 23.6608 45.896 23.6354 45.896 23.6016ZM55.1509 29.3271C55.1509 29.0563 55.2313 28.849 55.3921 28.7051C55.5529 28.5527 55.7518 28.4469 55.9888 28.3877C56.2257 28.3285 56.4712 28.2946 56.7251 28.2861C56.9875 28.2777 57.216 28.2734 57.4106 28.2734C57.4106 28.5104 57.3768 28.7347 57.3091 28.9463C57.2414 29.1579 57.1398 29.3441 57.0044 29.5049C56.8774 29.6572 56.7166 29.7842 56.522 29.8857C56.3273 29.9788 56.103 30.0254 55.8491 30.0254C55.5868 30.0254 55.4048 29.9746 55.3032 29.873C55.2017 29.7715 55.1509 29.5895 55.1509 29.3271ZM54.0591 25.2393C54.0591 25.1038 54.1099 24.9769 54.2114 24.8584C54.313 24.7399 54.4357 24.6383 54.5796 24.5537C54.7319 24.4606 54.8843 24.3887 55.0366 24.3379C55.1974 24.2786 55.3328 24.249 55.4429 24.249C55.6883 24.249 55.8449 24.3252 55.9126 24.4775C55.9803 24.6214 56.0142 24.8034 56.0142 25.0234C56.0142 25.1842 55.9803 25.3239 55.9126 25.4424C55.8449 25.5524 55.7518 25.6455 55.6333 25.7217C55.5233 25.7979 55.3921 25.8571 55.2397 25.8994C55.0874 25.9333 54.9266 25.9502 54.7573 25.9502C54.7235 25.9502 54.7023 25.946 54.6938 25.9375C54.6685 25.9375 54.6473 25.9333 54.6304 25.9248C54.605 25.9163 54.5627 25.8867 54.5034 25.8359C54.4526 25.7852 54.3976 25.7344 54.3384 25.6836C54.2791 25.6243 54.2241 25.5651 54.1733 25.5059C54.131 25.4466 54.1014 25.4043 54.0845 25.3789C54.076 25.362 54.0718 25.3408 54.0718 25.3154C54.0633 25.29 54.0591 25.2646 54.0591 25.2393ZM63.7202 21.8369C63.7202 21.7269 63.7202 21.5661 63.7202 21.3545C63.7202 21.1344 63.7414 20.9186 63.7837 20.707C63.826 20.487 63.8937 20.2965 63.9868 20.1357C64.0799 19.9749 64.2238 19.8945 64.4185 19.8945C64.5285 19.8945 64.6174 19.9919 64.6851 20.1865C64.7612 20.3727 64.8205 20.6097 64.8628 20.8975C64.9136 21.1768 64.9474 21.4899 64.9644 21.8369C64.9897 22.1755 65.0067 22.4971 65.0151 22.8018C65.0321 23.1064 65.0448 23.373 65.0532 23.6016C65.0617 23.8216 65.0744 23.957 65.0913 24.0078C65.1167 24.1432 65.1632 24.3464 65.231 24.6172C65.3071 24.888 65.3875 25.1969 65.4722 25.5439C65.5568 25.8825 65.6499 26.238 65.7515 26.6104C65.853 26.9827 65.9461 27.3382 66.0308 27.6768C66.1239 28.0153 66.2085 28.32 66.2847 28.5908C66.3608 28.8617 66.4201 29.0563 66.4624 29.1748C66.4624 29.1917 66.4666 29.2171 66.4751 29.251C66.4836 29.2848 66.4878 29.3102 66.4878 29.3271C66.4878 29.4202 66.4539 29.4964 66.3862 29.5557C66.327 29.6064 66.2508 29.6488 66.1577 29.6826C66.0731 29.708 65.9842 29.7249 65.8911 29.7334C65.798 29.7419 65.7134 29.7461 65.6372 29.7461C65.6034 29.7461 65.5526 29.7419 65.4849 29.7334C65.4256 29.7249 65.3875 29.7207 65.3706 29.7207C65.1929 29.1283 65.0024 28.5062 64.7993 27.8545C64.6047 27.1943 64.4269 26.5257 64.2661 25.8486C64.1053 25.1715 63.9741 24.4945 63.8726 23.8174C63.771 23.1318 63.7202 22.4717 63.7202 21.8369ZM66.7163 25.2139C66.7163 24.8669 66.7459 24.4987 66.8052 24.1094C66.8644 23.7201 66.9575 23.3392 67.0845 22.9668C67.2114 22.5944 67.3722 22.2389 67.5669 21.9004C67.7616 21.5618 67.9901 21.2656 68.2524 21.0117C68.5148 20.7493 68.811 20.5462 69.1411 20.4023C69.4797 20.25 69.8563 20.1738 70.271 20.1738C70.8465 20.1738 71.3543 20.2669 71.7944 20.4531C72.243 20.6393 72.6154 20.9017 72.9116 21.2402C73.2163 21.5788 73.4448 21.985 73.5972 22.459C73.7495 22.9245 73.8257 23.4365 73.8257 23.9951C73.8257 24.3844 73.7876 24.8076 73.7114 25.2646C73.6353 25.7217 73.5125 26.1745 73.3433 26.623C73.1825 27.0632 72.9793 27.4863 72.7339 27.8926C72.4884 28.2988 72.2049 28.6585 71.8833 28.9717C71.5617 29.2848 71.1935 29.5345 70.7788 29.7207C70.3726 29.9069 69.9325 30 69.4585 30C69.0353 30 68.6714 29.9238 68.3667 29.7715C68.0705 29.6191 67.8208 29.416 67.6177 29.1621C67.4146 28.9082 67.2537 28.6162 67.1353 28.2861C67.0168 27.9476 66.9237 27.6048 66.856 27.2578C66.7967 26.9023 66.7586 26.5469 66.7417 26.1914C66.7248 25.8359 66.7163 25.5101 66.7163 25.2139ZM67.7954 25.7852C67.7954 26.1237 67.8123 26.4792 67.8462 26.8516C67.88 27.2155 67.9647 27.554 68.1001 27.8672C68.2355 28.1719 68.4302 28.4258 68.6841 28.6289C68.938 28.8236 69.285 28.9209 69.7251 28.9209C70.089 28.9209 70.4149 28.8363 70.7026 28.667C70.9904 28.4893 71.2443 28.2607 71.4644 27.9814C71.6844 27.7021 71.8748 27.389 72.0356 27.042C72.2049 26.6865 72.3403 26.3268 72.4419 25.9629C72.5435 25.599 72.6196 25.2477 72.6704 24.9092C72.7212 24.5706 72.7466 24.2702 72.7466 24.0078C72.7466 23.627 72.717 23.2673 72.6577 22.9287C72.5985 22.5902 72.4927 22.2982 72.3403 22.0527C72.188 21.8073 71.9764 21.6169 71.7056 21.4814C71.4347 21.3376 71.075 21.2656 70.6265 21.2656C70.2541 21.2656 69.924 21.3376 69.6362 21.4814C69.3569 21.6253 69.1115 21.8158 68.8999 22.0527C68.6883 22.2897 68.5106 22.5648 68.3667 22.8779C68.2313 23.1826 68.1213 23.5042 68.0366 23.8428C67.952 24.1813 67.8885 24.5199 67.8462 24.8584C67.8123 25.1885 67.7954 25.4974 67.7954 25.7852ZM74.3335 25.2139C74.3335 24.8669 74.3631 24.4987 74.4224 24.1094C74.4816 23.7201 74.5747 23.3392 74.7017 22.9668C74.8286 22.5944 74.9894 22.2389 75.1841 21.9004C75.3787 21.5618 75.6073 21.2656 75.8696 21.0117C76.132 20.7493 76.4282 20.5462 76.7583 20.4023C77.0968 20.25 77.4735 20.1738 77.8882 20.1738C78.4637 20.1738 78.9715 20.2669 79.4116 20.4531C79.8602 20.6393 80.2326 20.9017 80.5288 21.2402C80.8335 21.5788 81.062 21.985 81.2144 22.459C81.3667 22.9245 81.4429 23.4365 81.4429 23.9951C81.4429 24.3844 81.4048 24.8076 81.3286 25.2646C81.2524 25.7217 81.1297 26.1745 80.9604 26.623C80.7996 27.0632 80.5965 27.4863 80.3511 27.8926C80.1056 28.2988 79.8221 28.6585 79.5005 28.9717C79.1789 29.2848 78.8107 29.5345 78.396 29.7207C77.9897 29.9069 77.5496 30 77.0757 30C76.6525 30 76.2886 29.9238 75.9839 29.7715C75.6877 29.6191 75.438 29.416 75.2349 29.1621C75.0317 28.9082 74.8709 28.6162 74.7524 28.2861C74.634 27.9476 74.5409 27.6048 74.4731 27.2578C74.4139 26.9023 74.3758 26.5469 74.3589 26.1914C74.342 25.8359 74.3335 25.5101 74.3335 25.2139ZM75.4126 25.7852C75.4126 26.1237 75.4295 26.4792 75.4634 26.8516C75.4972 27.2155 75.5819 27.554 75.7173 27.8672C75.8527 28.1719 76.0474 28.4258 76.3013 28.6289C76.5552 28.8236 76.9022 28.9209 77.3423 28.9209C77.7062 28.9209 78.0321 28.8363 78.3198 28.667C78.6076 28.4893 78.8615 28.2607 79.0815 27.9814C79.3016 27.7021 79.492 27.389 79.6528 27.042C79.8221 26.6865 79.9575 26.3268 80.0591 25.9629C80.1606 25.599 80.2368 25.2477 80.2876 24.9092C80.3384 24.5706 80.3638 24.2702 80.3638 24.0078C80.3638 23.627 80.3341 23.2673 80.2749 22.9287C80.2157 22.5902 80.1099 22.2982 79.9575 22.0527C79.8052 21.8073 79.5936 21.6169 79.3228 21.4814C79.0519 21.3376 78.6922 21.2656 78.2437 21.2656C77.8713 21.2656 77.5412 21.3376 77.2534 21.4814C76.9741 21.6253 76.7287 21.8158 76.5171 22.0527C76.3055 22.2897 76.1278 22.5648 75.9839 22.8779C75.8485 23.1826 75.7384 23.5042 75.6538 23.8428C75.5692 24.1813 75.5057 24.5199 75.4634 24.8584C75.4295 25.1885 75.4126 25.4974 75.4126 25.7852ZM82.3188 21.748C82.3188 21.6549 82.3273 21.5407 82.3442 21.4053C82.3696 21.2614 82.4077 21.126 82.4585 20.999C82.5177 20.8721 82.5897 20.7663 82.6743 20.6816C82.759 20.5885 82.869 20.542 83.0044 20.542C83.0129 20.542 83.034 20.5462 83.0679 20.5547C83.1017 20.5632 83.1229 20.5674 83.1313 20.5674C83.2752 21.0921 83.3599 21.6126 83.3853 22.1289C83.4106 22.6452 83.4022 23.1488 83.3599 23.6396C83.3175 24.1221 83.2541 24.5918 83.1694 25.0488C83.0848 25.4974 83.0129 25.9121 82.9536 26.293C82.9028 26.6738 82.869 27.0166 82.8521 27.3213C82.8436 27.626 82.8901 27.8841 82.9917 28.0957C82.9748 27.9603 82.9621 27.7995 82.9536 27.6133C82.9536 27.4186 82.9705 27.2197 83.0044 27.0166C83.0467 26.8135 83.1102 26.6104 83.1948 26.4072C83.2879 26.2041 83.4191 26.0221 83.5884 25.8613C83.7576 25.7005 83.9735 25.5736 84.2358 25.4805C84.5067 25.3874 84.841 25.3408 85.2388 25.3408C85.6535 25.3408 86.009 25.4128 86.3052 25.5566C86.6099 25.7005 86.8595 25.8994 87.0542 26.1533C87.2489 26.3988 87.3927 26.6908 87.4858 27.0293C87.5874 27.3594 87.6382 27.7148 87.6382 28.0957C87.6382 28.2734 87.634 28.4766 87.6255 28.7051C87.6255 28.9251 87.5959 29.1325 87.5366 29.3271C87.4858 29.5133 87.3885 29.6742 87.2446 29.8096C87.1092 29.9365 86.9061 30 86.6353 30C86.6353 29.8646 86.6437 29.6826 86.6606 29.4541C86.6776 29.2171 86.686 28.9674 86.686 28.7051C86.6945 28.4427 86.686 28.1761 86.6606 27.9053C86.6437 27.6344 86.5887 27.3932 86.4956 27.1816C86.4025 26.9616 86.2713 26.7839 86.1021 26.6484C85.9412 26.5046 85.717 26.4326 85.4292 26.4326C85.3276 26.4326 85.2007 26.4411 85.0483 26.458C84.9045 26.4665 84.7563 26.5046 84.604 26.5723C84.4517 26.64 84.3035 26.7458 84.1597 26.8896C84.0158 27.0251 83.9015 27.2155 83.8169 27.4609C83.7323 27.6979 83.6815 28.0026 83.6646 28.375C83.6561 28.7389 83.7026 29.1875 83.8042 29.7207C83.745 29.873 83.6688 29.9619 83.5757 29.9873C83.491 30.0127 83.381 30.0254 83.2456 30.0254C82.9748 30.0254 82.7505 29.9323 82.5728 29.7461C82.4035 29.5514 82.2723 29.2933 82.1792 28.9717C82.0861 28.6501 82.0226 28.2777 81.9888 27.8545C81.9634 27.4313 81.9549 26.9912 81.9634 26.5342C81.9718 26.0687 81.993 25.599 82.0269 25.125C82.0692 24.6426 82.1073 24.1898 82.1411 23.7666C82.1834 23.335 82.2215 22.9456 82.2554 22.5986C82.2977 22.2432 82.3188 21.9596 82.3188 21.748ZM88.0698 23.3857C88.1291 23.1826 88.1968 23.0895 88.2729 23.1064C88.3576 23.1234 88.4591 23.2207 88.5776 23.3984C88.6961 23.5762 88.8273 23.8132 88.9712 24.1094C89.1235 24.4056 89.2843 24.7272 89.4536 25.0742C89.6229 25.4128 89.8049 25.7598 89.9995 26.1152C90.2026 26.4707 90.41 26.7965 90.6216 27.0928C90.8416 27.389 91.0701 27.6344 91.3071 27.8291C91.5526 28.0238 91.8022 28.138 92.0562 28.1719L93.0718 22.916C93.0887 22.7721 93.1522 22.6917 93.2622 22.6748C93.3807 22.6494 93.495 22.6367 93.605 22.6367C93.9858 22.6367 94.1763 22.8145 94.1763 23.1699C94.1763 23.3561 94.1593 23.6523 94.1255 24.0586C94.0916 24.4648 94.0366 24.9134 93.9604 25.4043C93.8843 25.8867 93.7912 26.3861 93.6812 26.9023C93.5711 27.4102 93.4399 27.8757 93.2876 28.2988C93.1353 28.722 92.9575 29.069 92.7544 29.3398C92.5597 29.6107 92.3439 29.7461 92.1069 29.7461C91.7599 29.7461 91.4172 29.6318 91.0786 29.4033C90.7401 29.1663 90.4185 28.8617 90.1138 28.4893C89.8175 28.1084 89.5425 27.6852 89.2886 27.2197C89.0431 26.7542 88.8273 26.2887 88.6411 25.8232C88.4634 25.3493 88.3237 24.8965 88.2222 24.4648C88.1206 24.0332 88.0698 23.6735 88.0698 23.3857ZM95.5093 34.9004C95.797 34.2572 95.9832 33.5928 96.0679 32.9072C96.1525 32.2217 96.144 31.5277 96.0425 30.8252L96.5884 30.2793C96.7576 30.3301 96.8804 30.4359 96.9565 30.5967C97.0412 30.766 97.0962 30.9521 97.1216 31.1553C97.1554 31.3584 97.1681 31.57 97.1597 31.79C97.1597 32.0101 97.1597 32.1963 97.1597 32.3486C97.1597 32.3825 97.1554 32.4502 97.147 32.5518C97.1385 32.6533 97.1343 32.7126 97.1343 32.7295C97.1174 32.8141 97.0835 32.958 97.0327 33.1611C96.9904 33.3643 96.9396 33.5801 96.8804 33.8086C96.8211 34.0456 96.7619 34.2656 96.7026 34.4688C96.6519 34.6719 96.6138 34.8158 96.5884 34.9004C96.5715 34.9173 96.5376 34.9385 96.4868 34.9639C96.436 34.9893 96.3768 35.0146 96.3091 35.04C96.2498 35.0739 96.1948 35.1035 96.144 35.1289C96.1017 35.1543 96.0679 35.1712 96.0425 35.1797H95.9155H95.7632C95.7378 35.1628 95.6912 35.1162 95.6235 35.04C95.5643 34.9723 95.5262 34.9258 95.5093 34.9004ZM96.0171 26.9785C96.0933 26.9785 96.1821 26.9785 96.2837 26.9785C96.3937 26.9785 96.491 26.9912 96.5757 27.0166C96.6603 27.042 96.7323 27.0843 96.7915 27.1436C96.8592 27.2028 96.8931 27.2959 96.8931 27.4229C96.8931 27.6006 96.8084 27.7572 96.6392 27.8926C96.4784 28.0195 96.2837 28.1296 96.0552 28.2227C95.8351 28.3073 95.6024 28.3708 95.3569 28.4131C95.12 28.4469 94.9295 28.4639 94.7856 28.4639C94.7856 28.2438 94.8068 28.0449 94.8491 27.8672C94.8999 27.6895 94.9718 27.5371 95.0649 27.4102C95.158 27.2747 95.2808 27.1689 95.4331 27.0928C95.5939 27.0166 95.7886 26.9785 96.0171 26.9785Z" fill="#AAAAAA"/>
</svg>
