<svg width="109" height="44" viewBox="0 0 109 44" fill="none" xmlns="http://www.w3.org/2000/svg">
<path d="M80 40L77.5 37.5M80 40L82 36.5M80 40C79.7834 33.049 74 30 68 30C62 30 57.1003 24.0437 57 21.5" stroke="#AAAAAA" stroke-linecap="round" stroke-linejoin="round"/>
<path d="M29.4453 9.72266C29.4453 9.68359 29.4492 9.61719 29.457 9.52344C29.457 9.42188 29.457 9.32031 29.457 9.21875C29.457 9.10938 29.4609 9.00781 29.4688 8.91406C29.4688 8.82031 29.4688 8.75781 29.4688 8.72656C29.6641 8.51562 29.8242 8.39062 29.9492 8.35156C30.082 8.3125 30.1875 8.33594 30.2656 8.42188C30.3438 8.5 30.3984 8.62891 30.4297 8.80859C30.4688 8.98828 30.4961 9.19141 30.5117 9.41797C30.5273 9.64453 30.5352 9.88281 30.5352 10.1328C30.5352 10.3828 30.5391 10.6172 30.5469 10.8359C30.5547 11.0469 30.5703 11.2344 30.5938 11.3984C30.6172 11.5625 30.6602 11.6719 30.7227 11.7266H34.7422C34.9062 11.7266 35.0234 11.6758 35.0938 11.5742C35.1641 11.4727 35.2031 11.3398 35.2109 11.1758C35.2266 11.0117 35.2227 10.8242 35.1992 10.6133C35.1758 10.4023 35.1523 10.1875 35.1289 9.96875C35.1133 9.74219 35.1055 9.52344 35.1055 9.3125C35.1133 9.09375 35.1484 8.90234 35.2109 8.73828C35.2812 8.57422 35.3867 8.44141 35.5273 8.33984C35.668 8.23828 35.875 8.1875 36.1484 8.1875C36.25 8.33594 36.3125 8.5 36.3359 8.67969C36.3594 8.85156 36.3633 9.03125 36.3477 9.21875C36.3398 9.40625 36.3203 9.59375 36.2891 9.78125C36.2656 9.96094 36.2539 10.1367 36.2539 10.3086C36.2539 10.7695 36.2812 11.2305 36.3359 11.6914C36.3984 12.1523 36.4609 12.6133 36.5234 13.0742C36.5938 13.5352 36.6562 13.9961 36.7109 14.457C36.7734 14.9102 36.8047 15.3594 36.8047 15.8047C36.8203 16.2891 36.7891 16.6367 36.7109 16.8477C36.6328 17.0508 36.5352 17.1406 36.418 17.1172C36.3008 17.1016 36.168 16.9844 36.0195 16.7656C35.8789 16.5469 35.7461 16.2539 35.6211 15.8867C35.5039 15.5195 35.4062 15.0898 35.3281 14.5977C35.2578 14.0977 35.2305 13.5586 35.2461 12.9805H31.0156C31.0703 13.5195 31.1406 14.0273 31.2266 14.5039C31.3203 14.9805 31.3906 15.4023 31.4375 15.7695C31.4922 16.1289 31.5117 16.418 31.4961 16.6367C31.4883 16.8477 31.4102 16.957 31.2617 16.9648C31.0352 16.9648 30.8438 16.8906 30.6875 16.7422C30.5312 16.5859 30.3945 16.375 30.2773 16.1094C30.168 15.8438 30.0781 15.5352 30.0078 15.1836C29.9375 14.8242 29.8789 14.4492 29.832 14.0586C29.7852 13.6602 29.7461 13.2539 29.7148 12.8398C29.6914 12.4258 29.668 12.0273 29.6445 11.6445C29.6211 11.2617 29.5938 10.9062 29.5625 10.5781C29.5312 10.2422 29.4922 9.95703 29.4453 9.72266ZM37.4844 14.6211C37.4844 14.1367 37.5977 13.6875 37.8242 13.2734C38.0508 12.8516 38.3477 12.4922 38.7148 12.1953C39.0898 11.8906 39.5078 11.6523 39.9688 11.4805C40.4375 11.3086 40.9102 11.2227 41.3867 11.2227C41.6523 11.2227 41.8867 11.3086 42.0898 11.4805C42.3008 11.6523 42.4766 11.8633 42.6172 12.1133C42.7578 12.3555 42.8633 12.6133 42.9336 12.8867C43.0117 13.1602 43.0508 13.3984 43.0508 13.6016C43.0508 14.0391 42.9453 14.4648 42.7344 14.8789C42.5234 15.2852 42.25 15.6484 41.9141 15.9688C41.5781 16.2812 41.1992 16.5352 40.7773 16.7305C40.3555 16.9258 39.9336 17.0234 39.5117 17.0234C39.1367 17.0234 38.8203 16.9609 38.5625 16.8359C38.3047 16.7031 38.0977 16.5312 37.9414 16.3203C37.7852 16.1016 37.668 15.8477 37.5898 15.5586C37.5195 15.2617 37.4844 14.9492 37.4844 14.6211ZM38.4805 14.7383C38.4805 14.9414 38.4961 15.1211 38.5273 15.2773C38.5664 15.4258 38.6289 15.5547 38.7148 15.6641C38.8086 15.7734 38.9297 15.8594 39.0781 15.9219C39.2266 15.9766 39.4102 16.0039 39.6289 16.0039C39.918 16.0039 40.207 15.9258 40.4961 15.7695C40.7852 15.6055 41.043 15.4023 41.2695 15.1602C41.5039 14.9102 41.6914 14.6367 41.832 14.3398C41.9727 14.043 42.043 13.7539 42.043 13.4727C42.043 13.3477 42.0312 13.2109 42.0078 13.0625C41.9844 12.9141 41.9453 12.7773 41.8906 12.6523C41.8359 12.5273 41.7578 12.4219 41.6562 12.3359C41.5547 12.25 41.4258 12.207 41.2695 12.207C41.1289 12.207 40.9609 12.2539 40.7656 12.3477C40.5781 12.4414 40.3789 12.5625 40.168 12.7109C39.9648 12.8594 39.7617 13.0273 39.5586 13.2148C39.3633 13.4023 39.1836 13.5898 39.0195 13.7773C38.8555 13.9648 38.7227 14.1445 38.6211 14.3164C38.5273 14.4883 38.4805 14.6289 38.4805 14.7383ZM43.4375 10.8945C43.4922 10.707 43.5547 10.6211 43.625 10.6367C43.7031 10.6523 43.7969 10.7422 43.9062 10.9062C44.0156 11.0703 44.1367 11.2891 44.2695 11.5625C44.4102 11.8359 44.5586 12.1328 44.7148 12.4531C44.8711 12.7656 45.0391 13.0859 45.2188 13.4141C45.4062 13.7422 45.5977 14.043 45.793 14.3164C45.9961 14.5898 46.207 14.8164 46.4258 14.9961C46.6523 15.1758 46.8828 15.2812 47.1172 15.3125L48.0547 10.4609C48.0703 10.3281 48.1289 10.2539 48.2305 10.2383C48.3398 10.2148 48.4453 10.2031 48.5469 10.2031C48.8984 10.2031 49.0742 10.3672 49.0742 10.6953C49.0742 10.8672 49.0586 11.1406 49.0273 11.5156C48.9961 11.8906 48.9453 12.3047 48.875 12.7578C48.8047 13.2031 48.7188 13.6641 48.6172 14.1406C48.5156 14.6094 48.3945 15.0391 48.2539 15.4297C48.1133 15.8203 47.9492 16.1406 47.7617 16.3906C47.582 16.6406 47.3828 16.7656 47.1641 16.7656C46.8438 16.7656 46.5273 16.6602 46.2148 16.4492C45.9023 16.2305 45.6055 15.9492 45.3242 15.6055C45.0508 15.2539 44.7969 14.8633 44.5625 14.4336C44.3359 14.0039 44.1367 13.5742 43.9648 13.1445C43.8008 12.707 43.6719 12.2891 43.5781 11.8906C43.4844 11.4922 43.4375 11.1602 43.4375 10.8945ZM49.7773 13.7422C49.7773 13.3203 49.8281 12.8984 49.9297 12.4766C50.0312 12.0547 50.1914 11.6758 50.4102 11.3398C50.6367 11.0039 50.9258 10.7305 51.2773 10.5195C51.6367 10.3086 52.0703 10.2031 52.5781 10.2031C52.8672 10.2031 53.1211 10.2578 53.3398 10.3672C53.5586 10.4688 53.7422 10.6055 53.8906 10.7773C54.0391 10.9492 54.1484 11.1523 54.2188 11.3867C54.2969 11.6133 54.3359 11.8516 54.3359 12.1016C54.3359 12.5 54.2422 12.8867 54.0547 13.2617C53.875 13.6367 53.6289 13.9688 53.3164 14.2578C53.0117 14.5391 52.6602 14.7539 52.2617 14.9023C51.8633 15.043 51.457 15.0742 51.043 14.9961C51.0508 15.2227 51.125 15.4062 51.2656 15.5469C51.4141 15.6797 51.5898 15.7812 51.793 15.8516C51.9961 15.9219 52.207 15.9688 52.4258 15.9922C52.6445 16.0078 52.8398 16.0156 53.0117 16.0156C53.1914 16.0156 53.3594 16 53.5156 15.9688C53.6719 15.9375 53.8281 15.9023 53.9844 15.8633C54.1406 15.8242 54.2969 15.7891 54.4531 15.7578C54.6172 15.7266 54.7891 15.7109 54.9688 15.7109C55.0391 15.7109 55.1094 15.7148 55.1797 15.7227C55.25 15.7305 55.3164 15.75 55.3789 15.7812C55.4414 15.8047 55.4922 15.8477 55.5312 15.9102C55.5703 15.9648 55.5898 16.0352 55.5898 16.1211C55.5898 16.2695 55.5352 16.3945 55.4258 16.4961C55.3164 16.5898 55.1758 16.6719 55.0039 16.7422C54.8398 16.8125 54.6562 16.8672 54.4531 16.9062C54.25 16.9375 54.0508 16.9648 53.8555 16.9883C53.668 17.0039 53.4922 17.0117 53.3281 17.0117C53.1719 17.0195 53.0547 17.0234 52.9766 17.0234C52.4766 17.0234 52.0273 16.9453 51.6289 16.7891C51.2305 16.625 50.8945 16.4023 50.6211 16.1211C50.3477 15.832 50.1367 15.4883 49.9883 15.0898C49.8477 14.6836 49.7773 14.2344 49.7773 13.7422ZM51.0195 12.9805C51.0195 13.2539 51.0547 13.4531 51.125 13.5781C51.2031 13.7031 51.3867 13.7656 51.6758 13.7656C51.8789 13.7656 52.0781 13.7305 52.2734 13.6602C52.4688 13.582 52.6445 13.4766 52.8008 13.3438C52.9648 13.2109 53.0938 13.0547 53.1875 12.875C53.2812 12.6953 53.3281 12.5 53.3281 12.2891C53.3281 12.1719 53.3164 12.0508 53.293 11.9258C53.2773 11.8008 53.2383 11.6875 53.1758 11.5859C53.1133 11.4766 53.0312 11.3906 52.9297 11.3281C52.8359 11.2578 52.7109 11.2227 52.5547 11.2227C52.3203 11.2227 52.1055 11.2773 51.9102 11.3867C51.7227 11.4883 51.5625 11.625 51.4297 11.7969C51.2969 11.9609 51.1953 12.1484 51.125 12.3594C51.0547 12.5625 51.0195 12.7695 51.0195 12.9805ZM56.3164 12.0781C56.3164 12.0078 56.3203 11.9375 56.3281 11.8672C56.3359 11.7891 56.3516 11.7227 56.375 11.668C56.3984 11.6055 56.4336 11.5547 56.4805 11.5156C56.5352 11.4766 56.6094 11.457 56.7031 11.457C56.7812 11.457 56.8672 11.5195 56.9609 11.6445C57.0625 11.7617 57.1641 11.9141 57.2656 12.1016C57.3672 12.2812 57.4648 12.4805 57.5586 12.6992C57.6602 12.918 57.7461 13.1211 57.8164 13.3086C57.8945 13.4883 57.957 13.6445 58.0039 13.7773C58.0508 13.9102 58.0781 13.9805 58.0859 13.9883C58.1875 13.7148 58.3008 13.418 58.4258 13.0977C58.5508 12.7773 58.7031 12.4805 58.8828 12.207C59.0703 11.9258 59.2891 11.6914 59.5391 11.5039C59.7969 11.3164 60.1094 11.2227 60.4766 11.2227C60.6641 11.2227 60.8398 11.2539 61.0039 11.3164C61.1758 11.3711 61.3242 11.457 61.4492 11.5742C61.582 11.6836 61.6875 11.8164 61.7656 11.9727C61.8438 12.1289 61.8828 12.3086 61.8828 12.5117C61.8828 12.6836 61.8125 12.8047 61.6719 12.875C61.5391 12.9453 61.3867 12.9805 61.2148 12.9805H61.0977L60.5938 12.4766C60.5781 12.4766 60.5664 12.4727 60.5586 12.4648C60.543 12.4648 60.5273 12.4648 60.5117 12.4648C60.5039 12.457 60.4922 12.4531 60.4766 12.4531C60.2031 12.4531 59.9883 12.5312 59.832 12.6875C59.6836 12.8359 59.5703 13.0234 59.4922 13.25C59.4141 13.4688 59.3633 13.7031 59.3398 13.9531C59.3242 14.1953 59.3164 14.418 59.3164 14.6211C59.3164 14.7773 59.332 14.9375 59.3633 15.1016C59.3945 15.2578 59.4297 15.4141 59.4688 15.5703C59.5078 15.7188 59.543 15.875 59.5742 16.0391C59.6055 16.1953 59.6211 16.3594 59.6211 16.5312C59.6211 16.8594 59.4453 17.0234 59.0938 17.0234C58.8984 17.0234 58.6953 16.9219 58.4844 16.7188C58.2734 16.5078 58.0625 16.2422 57.8516 15.9219C57.6484 15.6016 57.4531 15.25 57.2656 14.8672C57.0781 14.4766 56.9141 14.0977 56.7734 13.7305C56.6328 13.3633 56.5195 13.0312 56.4336 12.7344C56.3555 12.4375 56.3164 12.2188 56.3164 12.0781ZM68.1992 12.6055C68.1992 12.5586 68.1992 12.4844 68.1992 12.3828C68.207 12.2734 68.2109 12.1602 68.2109 12.043C68.2188 11.9258 68.2227 11.8125 68.2227 11.7031C68.2305 11.5938 68.2344 11.5156 68.2344 11.4688C68.3203 11.3438 68.4297 11.2422 68.5625 11.1641C68.7031 11.0859 68.8438 11.0234 68.9844 10.9766C69.0078 11.3984 69.0742 11.8477 69.1836 12.3242C69.293 12.8008 69.4102 13.2812 69.5352 13.7656C69.6602 14.2422 69.7695 14.7148 69.8633 15.1836C69.9648 15.6523 70.0156 16.0898 70.0156 16.4961C70.0156 16.8477 69.8359 17.0234 69.4766 17.0234C69.2578 17.0234 69.0742 16.9336 68.9258 16.7539C68.7773 16.5742 68.6562 16.3477 68.5625 16.0742C68.4766 15.793 68.4062 15.4844 68.3516 15.1484C68.2969 14.8047 68.2578 14.4688 68.2344 14.1406C68.2188 13.8125 68.207 13.5117 68.1992 13.2383C68.1992 12.9648 68.1992 12.7539 68.1992 12.6055ZM68.3633 8.21094C68.5117 8.27344 68.6367 8.375 68.7383 8.51562C68.8398 8.65625 68.8828 8.78516 68.8672 8.90234C68.8594 9.01172 68.7734 9.08984 68.6094 9.13672C68.4453 9.17578 68.1719 9.12891 67.7891 8.99609C67.7891 8.78516 67.8281 8.60156 67.9062 8.44531C67.9922 8.28906 68.1445 8.21094 68.3633 8.21094ZM70.2148 11.0938C70.2148 11.0703 70.2188 11.0508 70.2266 11.0352C70.2266 11.0195 70.2305 11 70.2383 10.9766C70.2695 10.9375 70.3164 10.8867 70.3789 10.8242C70.4414 10.7617 70.4805 10.7305 70.4961 10.7305H72.8516C72.8516 10.6445 72.8398 10.5078 72.8164 10.3203C72.793 10.1328 72.7695 9.92578 72.7461 9.69922C72.7305 9.47266 72.7266 9.23828 72.7344 8.99609C72.7422 8.74609 72.7734 8.52344 72.8281 8.32812C72.8906 8.125 72.9844 7.96094 73.1094 7.83594C73.2422 7.70312 73.4258 7.63672 73.6602 7.63672C73.6602 8.42578 73.7148 9.05859 73.8242 9.53516C73.9336 10.0117 74.0781 10.3789 74.2578 10.6367C74.4453 10.8945 74.6562 11.0625 74.8906 11.1406C75.125 11.2188 75.3633 11.2539 75.6055 11.2461C75.8555 11.2305 76.0977 11.1914 76.332 11.1289C76.5664 11.0664 76.7734 11.0234 76.9531 11C77.1406 10.9766 77.2891 10.9961 77.3984 11.0586C77.5078 11.1133 77.5625 11.25 77.5625 11.4688C77.5625 11.6328 77.5234 11.75 77.4453 11.8203C77.375 11.8906 77.2344 11.9453 77.0234 11.9844C76.9609 11.9922 76.8555 12.0078 76.707 12.0312C76.5664 12.0469 76.4062 12.0625 76.2266 12.0781C76.0469 12.0938 75.8555 12.1133 75.6523 12.1367C75.4492 12.1523 75.2578 12.168 75.0781 12.1836C74.8984 12.1992 74.7344 12.2109 74.5859 12.2188C74.4375 12.2188 74.3281 12.2188 74.2578 12.2188C74.2578 12.2578 74.2539 12.3242 74.2461 12.418C74.2383 12.5117 74.2344 12.5742 74.2344 12.6055C74.2344 12.9492 74.2891 13.2852 74.3984 13.6133C74.5078 13.9336 74.625 14.2539 74.75 14.5742C74.8828 14.8945 75.0039 15.2148 75.1133 15.5352C75.2227 15.8555 75.2773 16.1875 75.2773 16.5312C75.2773 16.5938 75.2695 16.6602 75.2539 16.7305C75.2461 16.793 75.2227 16.8516 75.1836 16.9062C75.1523 16.9531 75.1016 16.9883 75.0312 17.0117C74.9688 17.043 74.8789 17.0391 74.7617 17C74.4648 16.9219 74.2422 16.7539 74.0938 16.4961C73.9531 16.2383 73.8477 15.9336 73.7773 15.582C73.707 15.2227 73.6602 14.8438 73.6367 14.4453C73.6133 14.0469 73.5742 13.6758 73.5195 13.332C73.4727 12.9805 73.3945 12.6836 73.2852 12.4414C73.1758 12.1914 73 12.0391 72.7578 11.9844L70.4961 11.4688C70.4648 11.4688 70.418 11.4375 70.3555 11.375C70.293 11.3047 70.2539 11.2539 70.2383 11.2227C70.2305 11.207 70.2266 11.1875 70.2266 11.1641C70.2188 11.1484 70.2148 11.125 70.2148 11.0938ZM78.9102 15.9805C79.0117 15.9805 79.1094 16.0117 79.2031 16.0742C79.3047 16.1367 79.3672 16.2148 79.3906 16.3086C79.4219 16.3945 79.3984 16.4922 79.3203 16.6016C79.2422 16.7109 79.0742 16.8125 78.8164 16.9062C78.6055 16.875 78.4531 16.8242 78.3594 16.7539C78.2734 16.6758 78.2227 16.5977 78.207 16.5195C78.1992 16.4336 78.2188 16.3516 78.2656 16.2734C78.3203 16.1875 78.3828 16.1172 78.4531 16.0625C78.5312 16 78.6133 15.9609 78.6992 15.9453C78.7852 15.9219 78.8555 15.9336 78.9102 15.9805ZM78.0312 8.19922C78.2422 8.00391 78.4062 7.96094 78.5234 8.07031C78.6406 8.17969 78.7266 8.38672 78.7812 8.69141C78.8438 8.99609 78.8789 9.36328 78.8867 9.79297C78.8945 10.2148 78.8984 10.6484 78.8984 11.0938C78.9062 11.5391 78.9141 11.9609 78.9219 12.3594C78.9375 12.7578 78.9727 13.0742 79.0273 13.3086C79.0273 13.4258 79.0195 13.5273 79.0039 13.6133C78.9883 13.6992 78.9609 13.7695 78.9219 13.8242C78.8828 13.8789 78.8203 13.9219 78.7344 13.9531C78.6484 13.9766 78.5352 13.9883 78.3945 13.9883C78.3711 13.9883 78.3477 13.9766 78.3242 13.9531C78.3008 13.9297 78.2773 13.8633 78.2539 13.7539C78.2305 13.6367 78.207 13.4609 78.1836 13.2266C78.1602 12.9844 78.1367 12.6484 78.1133 12.2188C78.0977 11.7891 78.0781 11.25 78.0547 10.6016C78.0391 9.95312 78.0312 9.15234 78.0312 8.19922Z" fill="#AAAAAA"/>
</svg>
