<svg width="91" height="44" viewBox="0 0 91 44" fill="none" xmlns="http://www.w3.org/2000/svg">
<path d="M19.75 40.5L22.25 38M19.75 40.5L17.75 37M19.75 40.5C19.9666 33.549 25.75 30.5 31.75 30.5C37.75 30.5 42.6497 24.5437 42.75 22" stroke="#AAAAAA" stroke-linecap="round" stroke-linejoin="round"/>
<path d="M24.9907 14.7373C24.9907 14.458 25.0754 14.1787 25.2446 13.8994C25.4139 13.6201 25.6382 13.3493 25.9175 13.0869C26.1968 12.8161 26.5142 12.5664 26.8696 12.3379C27.2251 12.1009 27.5848 11.8936 27.9487 11.7158C28.3211 11.5381 28.6808 11.3984 29.0278 11.2969C29.3833 11.1953 29.6922 11.1445 29.9546 11.1445C29.9546 11.39 29.8911 11.6143 29.7642 11.8174C29.6457 12.0205 29.4849 12.2109 29.2817 12.3887C29.0786 12.5664 28.8501 12.7399 28.5962 12.9092C28.3507 13.07 28.1053 13.2308 27.8599 13.3916C27.6229 13.5524 27.3944 13.7217 27.1743 13.8994C26.9543 14.0771 26.7765 14.2676 26.6411 14.4707C26.6326 14.4961 26.6242 14.513 26.6157 14.5215C26.6157 14.5469 26.6157 14.5723 26.6157 14.5977C26.6157 14.623 26.6157 14.6484 26.6157 14.6738C26.6242 14.6992 26.6326 14.7204 26.6411 14.7373C26.658 14.7458 26.6961 14.7881 26.7554 14.8643C26.8231 14.9404 26.8739 14.987 26.9077 15.0039C26.95 15.0378 27.0474 15.1012 27.1997 15.1943C27.3605 15.2874 27.5425 15.4017 27.7456 15.5371C27.9572 15.6725 28.1772 15.8122 28.4058 15.9561C28.6427 16.0999 28.8628 16.2396 29.0659 16.375C29.269 16.5104 29.4468 16.6289 29.5991 16.7305C29.7515 16.8236 29.8573 16.887 29.9165 16.9209C29.9334 16.9294 29.9757 16.9717 30.0435 17.0479C30.1196 17.1156 30.1619 17.1579 30.1704 17.1748C30.1704 17.2002 30.1746 17.2256 30.1831 17.251C30.1831 17.2594 30.1831 17.2721 30.1831 17.2891C30.1916 17.306 30.1958 17.3187 30.1958 17.3271C30.1958 17.3356 30.1916 17.3483 30.1831 17.3652C30.1831 17.3737 30.1831 17.3822 30.1831 17.3906C30.1746 17.416 30.1704 17.4372 30.1704 17.4541C30.1535 17.488 30.1154 17.5387 30.0562 17.6064C29.9969 17.6742 29.9377 17.7376 29.8784 17.7969C29.8276 17.8477 29.7769 17.8942 29.7261 17.9365C29.6753 17.9788 29.6414 18 29.6245 18C29.4891 18 29.2775 17.9492 28.9897 17.8477C28.7104 17.7376 28.3973 17.5938 28.0503 17.416C27.7118 17.2383 27.3605 17.0352 26.9966 16.8066C26.6411 16.5781 26.311 16.3411 26.0063 16.0957C25.7101 15.8503 25.4647 15.609 25.27 15.3721C25.0838 15.1351 24.9907 14.9235 24.9907 14.7373ZM30.1704 9.67188C30.1704 9.5026 30.2254 9.39258 30.3354 9.3418C30.4539 9.29102 30.5809 9.26562 30.7163 9.26562C30.7417 9.26562 30.7882 9.26986 30.856 9.27832C30.9321 9.28678 30.9787 9.29102 30.9956 9.29102C31.021 9.55339 31.0464 9.87077 31.0718 10.2432C31.0972 10.6071 31.1268 11.0049 31.1606 11.4365C31.1945 11.8597 31.2368 12.2998 31.2876 12.7568C31.3384 13.2139 31.4103 13.6624 31.5034 14.1025C31.5965 14.5342 31.7108 14.9489 31.8462 15.3467C31.9816 15.736 32.1466 16.0745 32.3413 16.3623C32.3836 16.4385 32.4217 16.4977 32.4556 16.54C32.4979 16.5739 32.536 16.6035 32.5698 16.6289C32.6121 16.6458 32.6587 16.6585 32.7095 16.667C32.7603 16.667 32.8237 16.667 32.8999 16.667C33.2469 16.667 33.577 16.6077 33.8901 16.4893C34.2118 16.3708 34.5291 16.2396 34.8423 16.0957C35.1554 15.9518 35.4728 15.8206 35.7944 15.7021C36.116 15.5837 36.4546 15.5244 36.8101 15.5244C36.8862 15.5244 36.9836 15.5244 37.1021 15.5244C37.2205 15.516 37.3306 15.5202 37.4321 15.5371C37.5337 15.554 37.6226 15.5964 37.6987 15.6641C37.7749 15.7318 37.813 15.8333 37.813 15.9688C37.813 16.0957 37.6987 16.2354 37.4702 16.3877C37.2417 16.5316 36.9497 16.6797 36.5942 16.832C36.2388 16.9759 35.8494 17.1198 35.4263 17.2637C35.0116 17.4076 34.6095 17.5345 34.2202 17.6445C33.8394 17.7546 33.5008 17.8434 33.2046 17.9111C32.9084 17.9704 32.7137 18 32.6206 18C32.3159 18 32.0451 17.8984 31.8081 17.6953C31.5796 17.4837 31.3765 17.2044 31.1987 16.8574C31.0295 16.502 30.8856 16.0999 30.7671 15.6514C30.6486 15.1943 30.5513 14.7204 30.4751 14.2295C30.3989 13.7386 30.3397 13.252 30.2974 12.7695C30.255 12.2871 30.2254 11.8385 30.2085 11.4238C30.1916 11.0091 30.1789 10.6452 30.1704 10.332C30.1704 10.0189 30.1704 9.79883 30.1704 9.67188ZM38.8413 13.2393C38.8413 13.1885 38.8413 13.1081 38.8413 12.998C38.8498 12.8796 38.854 12.7568 38.854 12.6299C38.8625 12.5029 38.8667 12.3802 38.8667 12.2617C38.8752 12.1432 38.8794 12.0586 38.8794 12.0078C38.9725 11.8724 39.091 11.7624 39.2349 11.6777C39.3872 11.5931 39.5396 11.5254 39.6919 11.4746C39.7173 11.9316 39.7892 12.4183 39.9077 12.9346C40.0262 13.4508 40.1532 13.9714 40.2886 14.4961C40.424 15.0124 40.5425 15.5244 40.644 16.0322C40.7541 16.54 40.8091 17.014 40.8091 17.4541C40.8091 17.835 40.6144 18.0254 40.2251 18.0254C39.9881 18.0254 39.7892 17.9281 39.6284 17.7334C39.4676 17.5387 39.3364 17.2933 39.2349 16.9971C39.1418 16.6924 39.0656 16.3581 39.0063 15.9941C38.9471 15.6217 38.9048 15.2578 38.8794 14.9023C38.8625 14.5469 38.8498 14.221 38.8413 13.9248C38.8413 13.6286 38.8413 13.4001 38.8413 13.2393ZM39.019 8.47852C39.1799 8.54622 39.3153 8.65625 39.4253 8.80859C39.5353 8.96094 39.5819 9.10059 39.5649 9.22754C39.5565 9.34603 39.4634 9.43066 39.2856 9.48145C39.1079 9.52376 38.8117 9.47298 38.397 9.3291C38.397 9.10059 38.4393 8.90169 38.5239 8.73242C38.617 8.56315 38.7821 8.47852 39.019 8.47852ZM43.7417 17.4287C43.8771 17.3356 44.0379 17.2171 44.2241 17.0732C44.4188 16.9209 44.6134 16.7601 44.8081 16.5908C45.0028 16.4215 45.1847 16.2438 45.354 16.0576C45.5233 15.8714 45.6545 15.6937 45.7476 15.5244C45.8491 15.3467 45.8999 15.1816 45.8999 15.0293C45.8999 14.877 45.8237 14.75 45.6714 14.6484C45.4006 14.6484 45.1043 14.6611 44.7827 14.6865C44.4611 14.7035 44.1395 14.7119 43.8179 14.7119C43.4963 14.7035 43.1831 14.6738 42.8784 14.623C42.5822 14.5723 42.3156 14.4792 42.0786 14.3438C41.8416 14.2083 41.6512 14.0179 41.5073 13.7725C41.3719 13.5186 41.3042 13.1969 41.3042 12.8076C41.3042 12.3506 41.3888 11.9401 41.5581 11.5762C41.7358 11.2038 41.9686 10.8779 42.2563 10.5986C42.5441 10.3109 42.8657 10.0612 43.2212 9.84961C43.5851 9.62956 43.9491 9.44336 44.313 9.29102C44.533 9.35026 44.7362 9.45605 44.9224 9.6084C45.1086 9.76074 45.2694 9.93001 45.4048 10.1162C45.3455 10.3024 45.2271 10.4463 45.0493 10.5479C44.88 10.6494 44.6812 10.7383 44.4526 10.8145C44.2326 10.8906 43.9998 10.971 43.7544 11.0557C43.509 11.1403 43.2847 11.2546 43.0815 11.3984C42.8869 11.5339 42.7218 11.7158 42.5864 11.9443C42.451 12.1644 42.3833 12.4564 42.3833 12.8203C42.3833 13.0911 42.451 13.29 42.5864 13.417C42.7218 13.5439 42.8996 13.6328 43.1196 13.6836C43.3397 13.7259 43.5894 13.7428 43.8687 13.7344C44.1479 13.7174 44.4315 13.6963 44.7192 13.6709C45.0155 13.6455 45.3032 13.6328 45.5825 13.6328C45.8618 13.6243 46.1115 13.6582 46.3315 13.7344C46.5516 13.8021 46.7251 13.9163 46.8521 14.0771C46.9875 14.238 47.0552 14.4749 47.0552 14.7881C47.0552 14.9235 47.0086 15.097 46.9155 15.3086C46.8309 15.5202 46.7124 15.7487 46.5601 15.9941C46.4162 16.2311 46.2427 16.4681 46.0396 16.7051C45.8449 16.9421 45.6375 17.1579 45.4175 17.3525C45.2059 17.5387 44.9901 17.6953 44.77 17.8223C44.5584 17.9408 44.3595 18 44.1733 18C43.9956 18 43.8771 17.9365 43.8179 17.8096C43.7671 17.6826 43.7417 17.5557 43.7417 17.4287ZM47.2837 11.6016C47.2837 11.5762 47.2879 11.555 47.2964 11.5381C47.2964 11.5212 47.3006 11.5 47.3091 11.4746C47.3429 11.4323 47.3937 11.3773 47.4614 11.3096C47.5291 11.2419 47.5715 11.208 47.5884 11.208H50.1401C50.1401 11.1149 50.1274 10.9668 50.1021 10.7637C50.0767 10.5605 50.0513 10.3363 50.0259 10.0908C50.009 9.84538 50.0047 9.59147 50.0132 9.3291C50.0216 9.05827 50.0555 8.81706 50.1147 8.60547C50.1825 8.38542 50.284 8.20768 50.4194 8.07227C50.5633 7.92839 50.7622 7.85645 51.0161 7.85645C51.0161 8.71126 51.0754 9.39681 51.1938 9.91309C51.3123 10.4294 51.4689 10.8271 51.6636 11.1064C51.8667 11.3857 52.0952 11.5677 52.3491 11.6523C52.603 11.737 52.8612 11.7751 53.1235 11.7666C53.3944 11.7497 53.6567 11.7074 53.9106 11.6396C54.1646 11.5719 54.3888 11.5254 54.5835 11.5C54.7866 11.4746 54.9474 11.4958 55.0659 11.5635C55.1844 11.6227 55.2437 11.7708 55.2437 12.0078C55.2437 12.1855 55.2013 12.3125 55.1167 12.3887C55.0405 12.4648 54.8882 12.5241 54.6597 12.5664C54.592 12.5749 54.4777 12.5918 54.3169 12.6172C54.1646 12.6341 53.991 12.651 53.7964 12.668C53.6017 12.6849 53.3944 12.7061 53.1743 12.7314C52.9543 12.7484 52.7469 12.7653 52.5522 12.7822C52.3576 12.7992 52.1799 12.8118 52.019 12.8203C51.8582 12.8203 51.7397 12.8203 51.6636 12.8203C51.6636 12.8626 51.6593 12.9346 51.6509 13.0361C51.6424 13.1377 51.6382 13.2054 51.6382 13.2393C51.6382 13.6117 51.6974 13.9756 51.8159 14.3311C51.9344 14.6781 52.0614 15.0251 52.1968 15.3721C52.3407 15.7191 52.4718 16.0661 52.5903 16.4131C52.7088 16.7601 52.7681 17.1198 52.7681 17.4922C52.7681 17.5599 52.7596 17.6318 52.7427 17.708C52.7342 17.7757 52.7088 17.8392 52.6665 17.8984C52.6326 17.9492 52.5776 17.9873 52.5015 18.0127C52.4338 18.0465 52.3364 18.0423 52.2095 18C51.8879 17.9154 51.6466 17.7334 51.4858 17.4541C51.3335 17.1748 51.2192 16.8447 51.1431 16.4639C51.0669 16.0745 51.0161 15.6641 50.9907 15.2324C50.9653 14.8008 50.923 14.3988 50.8638 14.0264C50.813 13.6455 50.7284 13.3239 50.6099 13.0615C50.4914 12.7907 50.3009 12.6257 50.0386 12.5664L47.5884 12.0078C47.5545 12.0078 47.5037 11.974 47.436 11.9062C47.3683 11.8301 47.326 11.7751 47.3091 11.7412C47.3006 11.7243 47.2964 11.7031 47.2964 11.6777C47.2879 11.6608 47.2837 11.6354 47.2837 11.6016ZM55.9927 16.9971C56.0096 16.9378 56.035 16.832 56.0688 16.6797C56.1112 16.5273 56.1493 16.3665 56.1831 16.1973C56.2254 16.0195 56.2635 15.8587 56.2974 15.7148C56.3312 15.5625 56.3566 15.4567 56.3735 15.3975C56.4328 15.1605 56.5216 14.8346 56.6401 14.4199C56.7586 13.9967 56.9025 13.5482 57.0718 13.0742C57.2495 12.5918 57.4484 12.1094 57.6685 11.627C57.897 11.1361 58.1466 10.7087 58.4175 10.3447C58.6968 9.97233 58.9972 9.6888 59.3188 9.49414C59.6405 9.29948 59.9875 9.25293 60.3599 9.35449C60.2414 9.82845 60.089 10.277 59.9028 10.7002C59.7251 11.1149 59.5304 11.5254 59.3188 11.9316C59.1157 12.3294 58.9041 12.7272 58.6841 13.125C58.4725 13.5143 58.2651 13.9121 58.062 14.3184C57.8589 14.7246 57.6727 15.1478 57.5034 15.5879C57.3426 16.028 57.2157 16.4977 57.1226 16.9971C57.0802 17.2425 56.9998 17.3864 56.8813 17.4287C56.7629 17.4626 56.6274 17.4583 56.4751 17.416C56.3651 17.3906 56.2635 17.3525 56.1704 17.3018C56.0773 17.251 56.0181 17.1494 55.9927 16.9971ZM61.6294 17.4541C61.6294 17.3187 61.6886 17.141 61.8071 16.9209C61.9256 16.7008 62.078 16.4681 62.2642 16.2227C62.4504 15.9688 62.6493 15.7106 62.8608 15.4482C63.0809 15.1774 63.2925 14.9235 63.4956 14.6865C63.6987 14.4411 63.8765 14.2295 64.0288 14.0518C64.1812 13.8656 64.2912 13.7301 64.3589 13.6455C64.3589 13.6286 64.3631 13.6074 64.3716 13.582C64.38 13.5482 64.3843 13.5228 64.3843 13.5059C64.3843 13.5059 64.38 13.4847 64.3716 13.4424C64.3631 13.4255 64.3589 13.4043 64.3589 13.3789C64.342 13.3451 64.2996 13.2943 64.2319 13.2266C64.1642 13.1589 64.1134 13.1165 64.0796 13.0996C64.0288 13.0658 63.9272 13.0023 63.7749 12.9092C63.6226 12.8161 63.4448 12.7018 63.2417 12.5664C63.0386 12.431 62.8185 12.2913 62.5815 12.1475C62.353 12.0036 62.1372 11.8682 61.9341 11.7412C61.731 11.6058 61.5532 11.4915 61.4009 11.3984C61.2485 11.2969 61.1427 11.2334 61.0835 11.208C60.9565 11.1234 60.8677 11.0345 60.8169 10.9414C60.7746 10.8483 60.7534 10.7256 60.7534 10.5732C60.9819 10.5732 61.2782 10.6113 61.6421 10.6875C62.0145 10.7552 62.4038 10.8525 62.8101 10.9795C63.2163 11.098 63.6268 11.2419 64.0415 11.4111C64.4562 11.5804 64.8286 11.7666 65.1587 11.9697C65.4888 12.1644 65.7596 12.3717 65.9712 12.5918C66.1828 12.8118 66.2886 13.0277 66.2886 13.2393C66.2886 13.2562 66.2843 13.2816 66.2759 13.3154C66.2674 13.3408 66.2632 13.362 66.2632 13.3789C66.187 13.472 66.0728 13.6117 65.9204 13.7979C65.7681 13.9756 65.5946 14.1829 65.3999 14.4199C65.2052 14.6569 64.9979 14.9066 64.7778 15.1689C64.5662 15.4229 64.3589 15.6641 64.1558 15.8926C63.9611 16.1211 63.7834 16.3285 63.6226 16.5146C63.4618 16.7008 63.3433 16.8363 63.2671 16.9209C63.1401 17.0648 63.0386 17.1875 62.9624 17.2891C62.8862 17.3906 62.8143 17.4753 62.7466 17.543C62.6873 17.6107 62.6154 17.6615 62.5308 17.6953C62.4546 17.7292 62.3446 17.7461 62.2007 17.7461C62.1668 17.7461 62.116 17.7461 62.0483 17.7461C61.9891 17.7376 61.9256 17.7249 61.8579 17.708C61.7987 17.6911 61.7437 17.6657 61.6929 17.6318C61.6506 17.5895 61.6294 17.5303 61.6294 17.4541Z" fill="#AAAAAA"/>
</svg>
