<svg width="59" height="22" viewBox="0 0 59 22" fill="none" xmlns="http://www.w3.org/2000/svg">
<path d="M2 18C15.3798 15.1005 22.3714 15.7221 25 15M2 18L4.4226 21M2 18L4.4226 15" stroke="#AAAAAA" stroke-width="2" stroke-linecap="round"/>
<path d="M32.8618 14.7373C32.8618 14.458 32.9465 14.1787 33.1157 13.8994C33.285 13.6201 33.5093 13.3493 33.7886 13.0869C34.0679 12.8161 34.3853 12.5664 34.7407 12.3379C35.0962 12.1009 35.4559 11.8936 35.8198 11.7158C36.1922 11.5381 36.5519 11.3984 36.8989 11.2969C37.2544 11.1953 37.5633 11.1445 37.8257 11.1445C37.8257 11.39 37.7622 11.6143 37.6353 11.8174C37.5168 12.0205 37.356 12.2109 37.1528 12.3887C36.9497 12.5664 36.7212 12.7399 36.4673 12.9092C36.2218 13.07 35.9764 13.2308 35.731 13.3916C35.494 13.5524 35.2655 13.7217 35.0454 13.8994C34.8254 14.0771 34.6476 14.2676 34.5122 14.4707C34.5037 14.4961 34.4953 14.513 34.4868 14.5215C34.4868 14.5469 34.4868 14.5723 34.4868 14.5977C34.4868 14.623 34.4868 14.6484 34.4868 14.6738C34.4953 14.6992 34.5037 14.7204 34.5122 14.7373C34.5291 14.7458 34.5672 14.7881 34.6265 14.8643C34.6942 14.9404 34.745 14.987 34.7788 15.0039C34.8211 15.0378 34.9185 15.1012 35.0708 15.1943C35.2316 15.2874 35.4136 15.4017 35.6167 15.5371C35.8283 15.6725 36.0483 15.8122 36.2769 15.9561C36.5138 16.0999 36.7339 16.2396 36.937 16.375C37.1401 16.5104 37.3179 16.6289 37.4702 16.7305C37.6226 16.8236 37.7284 16.887 37.7876 16.9209C37.8045 16.9294 37.8468 16.9717 37.9146 17.0479C37.9907 17.1156 38.033 17.1579 38.0415 17.1748C38.0415 17.2002 38.0457 17.2256 38.0542 17.251C38.0542 17.2594 38.0542 17.2721 38.0542 17.2891C38.0627 17.306 38.0669 17.3187 38.0669 17.3271C38.0669 17.3356 38.0627 17.3483 38.0542 17.3652C38.0542 17.3737 38.0542 17.3822 38.0542 17.3906C38.0457 17.416 38.0415 17.4372 38.0415 17.4541C38.0246 17.488 37.9865 17.5387 37.9272 17.6064C37.868 17.6742 37.8088 17.7376 37.7495 17.7969C37.6987 17.8477 37.6479 17.8942 37.5972 17.9365C37.5464 17.9788 37.5125 18 37.4956 18C37.3602 18 37.1486 17.9492 36.8608 17.8477C36.5815 17.7376 36.2684 17.5938 35.9214 17.416C35.5828 17.2383 35.2316 17.0352 34.8677 16.8066C34.5122 16.5781 34.1821 16.3411 33.8774 16.0957C33.5812 15.8503 33.3358 15.609 33.1411 15.3721C32.9549 15.1351 32.8618 14.9235 32.8618 14.7373ZM41.8247 17.4541C41.8247 17.4287 41.8289 17.3822 41.8374 17.3145C41.8543 17.2383 41.8628 17.1917 41.8628 17.1748C42.0744 17.0309 42.3071 16.8447 42.561 16.6162C42.8149 16.3792 43.0519 16.1253 43.272 15.8545C43.492 15.5752 43.674 15.2832 43.8179 14.9785C43.9702 14.6738 44.0464 14.3691 44.0464 14.0645C44.0464 14.0475 44.0422 14.0306 44.0337 14.0137C44.0337 13.9967 44.0337 13.9798 44.0337 13.9629C44.0337 13.9544 44.0337 13.9417 44.0337 13.9248C43.9998 13.891 43.9448 13.8359 43.8687 13.7598C43.7925 13.6751 43.7121 13.5905 43.6274 13.5059C43.5428 13.4212 43.4582 13.3408 43.3735 13.2646C43.2974 13.1885 43.2466 13.1335 43.2212 13.0996C43.2043 13.0996 43.1831 13.0954 43.1577 13.0869C43.1408 13.0869 43.1239 13.0869 43.1069 13.0869C43.0985 13.0785 43.0858 13.0742 43.0688 13.0742C42.908 13.0742 42.7218 13.1419 42.5103 13.2773C42.2987 13.4043 42.0913 13.5524 41.8882 13.7217C41.6851 13.8825 41.5031 14.0391 41.3423 14.1914C41.1899 14.3353 41.0884 14.4284 41.0376 14.4707C41.0207 14.4792 40.9995 14.4834 40.9741 14.4834C40.9572 14.4919 40.9318 14.4961 40.8979 14.4961C40.8641 14.4961 40.8429 14.4919 40.8345 14.4834C40.8091 14.4834 40.7879 14.4792 40.771 14.4707C40.7371 14.4538 40.6821 14.4115 40.606 14.3438C40.5382 14.2676 40.5002 14.2126 40.4917 14.1787V14.0645V13.9248C40.5594 13.7132 40.6525 13.4466 40.771 13.125C40.8895 12.8034 41.008 12.4691 41.1265 12.1221C41.245 11.7666 41.3465 11.4154 41.4312 11.0684C41.5243 10.7129 41.5708 10.3955 41.5708 10.1162C41.5708 9.91309 41.5623 9.71419 41.5454 9.51953C41.5285 9.31641 41.4862 9.13444 41.4185 8.97363C41.3507 8.81283 41.2534 8.68587 41.1265 8.59277C40.9995 8.49967 40.826 8.45312 40.606 8.45312C40.3097 8.45312 40.0474 8.53776 39.8188 8.70703C39.5988 8.86784 39.4084 9.0752 39.2476 9.3291C39.0952 9.57454 38.9852 9.84115 38.9175 10.1289C38.8498 10.4082 38.8328 10.6706 38.8667 10.916H38.3208C38.3123 10.916 38.2954 10.8737 38.27 10.7891C38.2446 10.7044 38.215 10.6071 38.1812 10.4971C38.1558 10.3786 38.1304 10.2601 38.105 10.1416C38.0796 10.0146 38.0584 9.91309 38.0415 9.83691V9.57031C38.0415 9.27409 38.1261 8.99479 38.2954 8.73242C38.4647 8.46159 38.6763 8.22461 38.9302 8.02148C39.1841 7.81836 39.4549 7.65755 39.7427 7.53906C40.0389 7.42057 40.314 7.36133 40.5679 7.36133C40.9572 7.36133 41.2788 7.42904 41.5327 7.56445C41.7951 7.69987 42.0067 7.88184 42.1675 8.11035C42.3368 8.33887 42.4595 8.60124 42.5356 8.89746C42.6203 9.19368 42.6753 9.5026 42.7007 9.82422C42.7261 10.1458 42.7303 10.4759 42.7134 10.8145C42.6965 11.1445 42.6795 11.4535 42.6626 11.7412C43.0096 11.8005 43.3312 11.8851 43.6274 11.9951C43.9321 12.1051 44.1945 12.2533 44.4146 12.4395C44.6431 12.6172 44.8208 12.8415 44.9478 13.1123C45.0832 13.3747 45.1509 13.6963 45.1509 14.0771C45.1509 14.2887 45.1128 14.5299 45.0366 14.8008C44.9604 15.0716 44.8504 15.3551 44.7065 15.6514C44.5711 15.9391 44.4103 16.2227 44.2241 16.502C44.0464 16.7812 43.8517 17.0352 43.6401 17.2637C43.4285 17.4837 43.2043 17.6615 42.9673 17.7969C42.7303 17.9323 42.4933 18 42.2563 18C42.0955 18 41.9813 17.945 41.9136 17.835C41.8543 17.7165 41.8247 17.5895 41.8247 17.4541Z" fill="#AAAAAA"/>
</svg>
