<svg width="71" height="67" viewBox="0 0 71 67" fill="none" xmlns="http://www.w3.org/2000/svg">
<path d="M5.33014 65C-8.48797 51.9754 37.7776 29.9744 34.8679 27M5.33014 65L1 63.8247M5.33014 65V60.299" stroke="#AAAAAA" stroke-width="2" stroke-linecap="round"/>
<path d="M11.7344 22.3281C11.6927 22.1615 11.6354 21.9219 11.5625 21.6094C11.5 21.2969 11.4271 20.9531 11.3438 20.5781C11.2708 20.2031 11.1979 19.8125 11.125 19.4062C11.0521 18.9896 10.9844 18.5885 10.9219 18.2031C10.8594 17.8073 10.8073 17.4479 10.7656 17.125C10.7344 16.7917 10.7188 16.5208 10.7188 16.3125C10.7188 16.2188 10.7292 16.0573 10.75 15.8281C10.7708 15.599 10.8021 15.3594 10.8438 15.1094C10.8854 14.8594 10.9219 14.625 10.9531 14.4062C10.9948 14.1875 11.0312 14.0365 11.0625 13.9531C11.0938 13.9427 11.1458 13.9375 11.2188 13.9375C11.3021 13.9375 11.3854 13.9323 11.4688 13.9219C11.5625 13.9115 11.6458 13.9062 11.7188 13.9062C11.8021 13.8958 11.8594 13.8906 11.8906 13.8906C12.3906 13.8906 12.8646 13.9896 13.3125 14.1875C13.7604 14.3854 14.1875 14.6354 14.5938 14.9375C15 15.2396 15.3958 15.5781 15.7812 15.9531C16.1667 16.3281 16.5521 16.6927 16.9375 17.0469C17.3333 17.401 17.7344 17.724 18.1406 18.0156C18.5469 18.2969 18.9792 18.5104 19.4375 18.6562C19.4375 18.6042 19.4375 18.526 19.4375 18.4219C19.4479 18.3073 19.4531 18.1875 19.4531 18.0625C19.4531 17.9375 19.4531 17.8229 19.4531 17.7188C19.4635 17.6042 19.4688 17.5208 19.4688 17.4688C19.4688 16.8125 19.4271 16.1719 19.3438 15.5469C19.2604 14.9219 19.1667 14.2969 19.0625 13.6719C18.9583 13.0469 18.8646 12.4219 18.7812 11.7969C18.6979 11.1615 18.6562 10.5104 18.6562 9.84375C18.7292 9.84375 18.8177 9.84896 18.9219 9.85938C19.0365 9.85938 19.151 9.875 19.2656 9.90625C19.3802 9.92708 19.4844 9.96875 19.5781 10.0312C19.6719 10.0833 19.7344 10.1667 19.7656 10.2812C19.8073 11.0312 19.901 11.7865 20.0469 12.5469C20.1927 13.2969 20.3438 14.0521 20.5 14.8125C20.6562 15.5625 20.7917 16.3177 20.9062 17.0781C21.0312 17.8281 21.0938 18.5729 21.0938 19.3125C21.0938 19.4479 21.0885 19.5938 21.0781 19.75C21.0781 19.9062 21.0573 20.0573 21.0156 20.2031C20.9844 20.3385 20.9271 20.4531 20.8438 20.5469C20.7604 20.6406 20.6354 20.6875 20.4688 20.6875C19.9271 20.6875 19.4271 20.5677 18.9688 20.3281C18.5104 20.0781 18.0625 19.7708 17.625 19.4062C17.1979 19.0417 16.776 18.6406 16.3594 18.2031C15.9531 17.7656 15.5312 17.3646 15.0938 17C14.6667 16.6354 14.2188 16.3281 13.75 16.0781C13.2917 15.8281 12.7969 15.7031 12.2656 15.7031C12.2656 16.2865 12.3073 16.849 12.3906 17.3906C12.474 17.9219 12.5625 18.4531 12.6562 18.9844C12.7604 19.5156 12.8542 20.0469 12.9375 20.5781C13.0208 21.099 13.0625 21.6302 13.0625 22.1719C13.0625 22.3698 12.9896 22.5052 12.8438 22.5781C12.7083 22.651 12.5573 22.6875 12.3906 22.6875C12.2552 22.6875 12.125 22.6771 12 22.6562C11.8854 22.625 11.7969 22.5156 11.7344 22.3281ZM21.75 16.625C21.75 16.5625 21.75 16.4531 21.75 16.2969C21.7604 16.1302 21.7656 15.9583 21.7656 15.7812C21.7656 15.6042 21.7656 15.4427 21.7656 15.2969C21.776 15.1406 21.7812 15.0312 21.7812 14.9688C21.8542 14.8438 21.9375 14.724 22.0312 14.6094C22.1354 14.4844 22.2396 14.401 22.3438 14.3594C22.4583 14.3073 22.5781 14.2969 22.7031 14.3281C22.8385 14.3594 22.974 14.4635 23.1094 14.6406V14.7656V14.9688C23.099 15.0208 23.0781 15.1458 23.0469 15.3438C23.0156 15.5312 22.9792 15.7396 22.9375 15.9688C22.8958 16.1979 22.8542 16.4115 22.8125 16.6094C22.7812 16.7969 22.7656 16.9167 22.7656 16.9688C22.7656 17.1667 22.7865 17.4167 22.8281 17.7188C22.8698 18.0104 22.9271 18.3177 23 18.6406C23.0833 18.9635 23.1823 19.2865 23.2969 19.6094C23.4219 19.9323 23.5677 20.224 23.7344 20.4844C23.901 20.7344 24.0833 20.9427 24.2812 21.1094C24.4896 21.276 24.7292 21.3594 25 21.3594C25.3333 21.3594 25.625 21.2708 25.875 21.0938C26.1354 20.9167 26.3594 20.6875 26.5469 20.4062C26.7344 20.125 26.8854 19.8073 27 19.4531C27.125 19.099 27.224 18.7448 27.2969 18.3906C27.3698 18.026 27.4219 17.6771 27.4531 17.3438C27.4844 17.0104 27.5 16.7188 27.5 16.4688C27.5 16.2188 27.4792 15.9844 27.4375 15.7656C27.4062 15.5365 27.3646 15.3125 27.3125 15.0938C27.2604 14.875 27.2135 14.6615 27.1719 14.4531C27.1406 14.2344 27.125 14.0156 27.125 13.7969C27.125 13.599 27.1927 13.4583 27.3281 13.375C27.474 13.2917 27.6354 13.25 27.8125 13.25C28.0312 13.25 28.2083 13.3177 28.3438 13.4531C28.4792 13.5781 28.5833 13.7396 28.6562 13.9375C28.7396 14.1354 28.7917 14.3646 28.8125 14.625C28.8438 14.875 28.8594 15.125 28.8594 15.375C28.8594 15.625 28.8542 15.8646 28.8438 16.0938C28.8333 16.3125 28.8281 16.4896 28.8281 16.625C28.8281 16.9792 28.8021 17.3802 28.75 17.8281C28.6979 18.276 28.6042 18.7396 28.4688 19.2188C28.3438 19.6875 28.1823 20.151 27.9844 20.6094C27.7969 21.0677 27.5625 21.4792 27.2812 21.8438C27.0104 22.1979 26.6927 22.4844 26.3281 22.7031C25.974 22.9219 25.5729 23.0312 25.125 23.0312C24.6562 23.0312 24.2448 22.9219 23.8906 22.7031C23.5365 22.474 23.2344 22.1771 22.9844 21.8125C22.7448 21.4375 22.5417 21.0156 22.375 20.5469C22.2083 20.0781 22.0781 19.6094 21.9844 19.1406C21.901 18.6719 21.8385 18.2188 21.7969 17.7812C21.7656 17.3333 21.75 16.9479 21.75 16.625ZM29.7812 17.7344C29.7812 17.4635 29.849 17.2708 29.9844 17.1562C30.1198 17.0312 30.3385 16.9688 30.6406 16.9688H30.7969C30.8281 17.1354 30.8646 17.3281 30.9062 17.5469C30.9479 17.7656 31.0104 17.9896 31.0938 18.2188C31.1771 18.4479 31.276 18.6615 31.3906 18.8594C31.5052 19.0469 31.6458 19.1979 31.8125 19.3125C31.8229 18.9479 31.9115 18.599 32.0781 18.2656C32.2552 17.9219 32.4688 17.6198 32.7188 17.3594C32.9792 17.0885 33.2604 16.8646 33.5625 16.6875C33.875 16.5 34.1823 16.375 34.4844 16.3125H34.8281C35.3281 16.3125 35.7552 16.4271 36.1094 16.6562C36.4635 16.875 36.7552 17.1667 36.9844 17.5312C37.224 17.8854 37.4062 18.2917 37.5312 18.75C37.6562 19.2083 37.75 19.6771 37.8125 20.1562C37.8854 20.625 37.9271 21.0833 37.9375 21.5312C37.9583 21.9688 37.9688 22.3438 37.9688 22.6562H36.8281C36.7656 22.0312 36.6875 21.4323 36.5938 20.8594C36.5625 20.6302 36.5208 20.3906 36.4688 20.1406C36.4167 19.8802 36.3594 19.6406 36.2969 19.4219C36.2344 19.1927 36.1667 18.9844 36.0938 18.7969C36.0208 18.599 35.9375 18.4323 35.8438 18.2969C35.8021 18.2552 35.7448 18.1979 35.6719 18.125C35.6094 18.0521 35.5417 17.9792 35.4688 17.9062C35.3958 17.8333 35.3281 17.7708 35.2656 17.7188C35.2031 17.6667 35.1667 17.6406 35.1562 17.6406C34.8438 17.5573 34.5729 17.6198 34.3438 17.8281C34.1146 18.026 33.9115 18.2969 33.7344 18.6406C33.5573 18.9844 33.4115 19.375 33.2969 19.8125C33.1927 20.25 33.1042 20.6719 33.0312 21.0781C32.9583 21.474 32.9062 21.8229 32.875 22.125C32.8438 22.4167 32.8229 22.5938 32.8125 22.6562C32.5521 22.8438 32.3073 22.901 32.0781 22.8281C31.849 22.7448 31.6302 22.5781 31.4219 22.3281C31.224 22.0781 31.0417 21.7656 30.875 21.3906C30.7188 21.0156 30.5729 20.6198 30.4375 20.2031C30.3021 19.776 30.1771 19.349 30.0625 18.9219C29.9583 18.4948 29.8646 18.099 29.7812 17.7344ZM39.4844 17.1406C39.4844 17.0781 39.4844 16.9792 39.4844 16.8438C39.4948 16.6979 39.5 16.5469 39.5 16.3906C39.5104 16.2344 39.5156 16.0833 39.5156 15.9375C39.526 15.7917 39.5312 15.6875 39.5312 15.625C39.6458 15.4583 39.7917 15.3229 39.9688 15.2188C40.1562 15.1146 40.3438 15.0312 40.5312 14.9688C40.5625 15.5312 40.651 16.1302 40.7969 16.7656C40.9427 17.401 41.099 18.0417 41.2656 18.6875C41.4323 19.3229 41.5781 19.9531 41.7031 20.5781C41.8385 21.2031 41.9062 21.7865 41.9062 22.3281C41.9062 22.7969 41.6667 23.0312 41.1875 23.0312C40.8958 23.0312 40.651 22.9115 40.4531 22.6719C40.2552 22.4323 40.0938 22.1302 39.9688 21.7656C39.8542 21.3906 39.7604 20.9792 39.6875 20.5312C39.6146 20.0729 39.5625 19.625 39.5312 19.1875C39.5104 18.75 39.4948 18.349 39.4844 17.9844C39.4844 17.6198 39.4844 17.3385 39.4844 17.1406ZM39.7031 11.2812C39.901 11.3646 40.0677 11.5 40.2031 11.6875C40.3385 11.875 40.3958 12.0469 40.375 12.2031C40.3646 12.349 40.25 12.4531 40.0312 12.5156C39.8125 12.5677 39.4479 12.5052 38.9375 12.3281C38.9375 12.0469 38.9896 11.8021 39.0938 11.5938C39.2083 11.3854 39.4115 11.2812 39.7031 11.2812ZM42.1719 15.125C42.1719 15.0938 42.1771 15.0677 42.1875 15.0469C42.1875 15.026 42.1927 15 42.2031 14.9688C42.2448 14.9167 42.3073 14.849 42.3906 14.7656C42.474 14.6823 42.526 14.6406 42.5469 14.6406H45.6875C45.6875 14.526 45.6719 14.3438 45.6406 14.0938C45.6094 13.8438 45.5781 13.5677 45.5469 13.2656C45.526 12.9635 45.5208 12.651 45.5312 12.3281C45.5417 11.9948 45.5833 11.6979 45.6562 11.4375C45.7396 11.1667 45.8646 10.9479 46.0312 10.7812C46.2083 10.6042 46.4531 10.5156 46.7656 10.5156C46.7656 11.5677 46.8385 12.4115 46.9844 13.0469C47.1302 13.6823 47.3229 14.1719 47.5625 14.5156C47.8125 14.8594 48.0938 15.0833 48.4062 15.1875C48.7188 15.2917 49.0365 15.3385 49.3594 15.3281C49.6927 15.3073 50.0156 15.2552 50.3281 15.1719C50.6406 15.0885 50.9167 15.0312 51.1562 15C51.4062 14.9688 51.6042 14.9948 51.75 15.0781C51.8958 15.151 51.9688 15.3333 51.9688 15.625C51.9688 15.8438 51.9167 16 51.8125 16.0938C51.7188 16.1875 51.5312 16.2604 51.25 16.3125C51.1667 16.3229 51.026 16.3438 50.8281 16.375C50.6406 16.3958 50.4271 16.4167 50.1875 16.4375C49.9479 16.4583 49.6927 16.4844 49.4219 16.5156C49.151 16.5365 48.8958 16.5573 48.6562 16.5781C48.4167 16.599 48.1979 16.6146 48 16.625C47.8021 16.625 47.6562 16.625 47.5625 16.625C47.5625 16.6771 47.5573 16.7656 47.5469 16.8906C47.5365 17.0156 47.5312 17.099 47.5312 17.1406C47.5312 17.599 47.6042 18.0469 47.75 18.4844C47.8958 18.9115 48.0521 19.3385 48.2188 19.7656C48.3958 20.1927 48.5573 20.6198 48.7031 21.0469C48.849 21.474 48.9219 21.9167 48.9219 22.375C48.9219 22.4583 48.9115 22.5469 48.8906 22.6406C48.8802 22.724 48.849 22.8021 48.7969 22.875C48.7552 22.9375 48.6875 22.9844 48.5938 23.0156C48.5104 23.0573 48.3906 23.0521 48.2344 23C47.8385 22.8958 47.5417 22.6719 47.3438 22.3281C47.1562 21.9844 47.0156 21.5781 46.9219 21.1094C46.8281 20.6302 46.7656 20.125 46.7344 19.5938C46.7031 19.0625 46.651 18.5677 46.5781 18.1094C46.5156 17.6406 46.4115 17.2448 46.2656 16.9219C46.1198 16.5885 45.8854 16.3854 45.5625 16.3125L42.5469 15.625C42.5052 15.625 42.4427 15.5833 42.3594 15.5C42.276 15.4062 42.224 15.3385 42.2031 15.2969C42.1927 15.276 42.1875 15.25 42.1875 15.2188C42.1771 15.1979 42.1719 15.1667 42.1719 15.125ZM52.5625 19.8281C52.5625 19.1823 52.7135 18.5833 53.0156 18.0312C53.3177 17.4688 53.7135 16.9896 54.2031 16.5938C54.7031 16.1875 55.2604 15.8698 55.875 15.6406C56.5 15.4115 57.1302 15.2969 57.7656 15.2969C58.1198 15.2969 58.4323 15.4115 58.7031 15.6406C58.9844 15.8698 59.2188 16.151 59.4062 16.4844C59.5938 16.8073 59.7344 17.151 59.8281 17.5156C59.9323 17.8802 59.9844 18.1979 59.9844 18.4688C59.9844 19.0521 59.8438 19.6198 59.5625 20.1719C59.2812 20.7135 58.9167 21.1979 58.4688 21.625C58.0208 22.0417 57.5156 22.3802 56.9531 22.6406C56.3906 22.901 55.8281 23.0312 55.2656 23.0312C54.7656 23.0312 54.3438 22.9479 54 22.7812C53.6562 22.6042 53.3802 22.375 53.1719 22.0938C52.9635 21.8021 52.8073 21.4635 52.7031 21.0781C52.6094 20.6823 52.5625 20.2656 52.5625 19.8281ZM53.8906 19.9844C53.8906 20.2552 53.9115 20.4948 53.9531 20.7031C54.0052 20.901 54.0885 21.0729 54.2031 21.2188C54.3281 21.3646 54.4896 21.4792 54.6875 21.5625C54.8854 21.6354 55.1302 21.6719 55.4219 21.6719C55.8073 21.6719 56.1927 21.5677 56.5781 21.3594C56.9635 21.1406 57.3073 20.8698 57.6094 20.5469C57.9219 20.2135 58.1719 19.849 58.3594 19.4531C58.5469 19.0573 58.6406 18.6719 58.6406 18.2969C58.6406 18.1302 58.625 17.9479 58.5938 17.75C58.5625 17.5521 58.5104 17.3698 58.4375 17.2031C58.3646 17.0365 58.2604 16.8958 58.125 16.7812C57.9896 16.6667 57.8177 16.6094 57.6094 16.6094C57.4219 16.6094 57.1979 16.6719 56.9375 16.7969C56.6875 16.9219 56.4219 17.0833 56.1406 17.2812C55.8698 17.4792 55.599 17.7031 55.3281 17.9531C55.0677 18.2031 54.8281 18.4531 54.6094 18.7031C54.3906 18.9531 54.2135 19.1927 54.0781 19.4219C53.9531 19.651 53.8906 19.8385 53.8906 19.9844Z" fill="#AAAAAA"/>
</svg>
