<svg width="81" height="76" viewBox="0 0 81 76" fill="none" xmlns="http://www.w3.org/2000/svg">
<path d="M79.25 68C51.25 68 48 37 45.75 26M79.25 68L74.5 74.5M79.25 68L74.5 61.5" stroke="#AAAAAA" stroke-width="2" stroke-linecap="round"/>
<path d="M11.0156 13.625C10.974 13.4792 10.8906 13.3802 10.7656 13.3281C10.651 13.276 10.5208 13.25 10.375 13.25C10.2396 13.2396 10.1042 13.2448 9.96875 13.2656C9.83333 13.2865 9.72917 13.2969 9.65625 13.2969C9.47917 13.2865 9.17188 13.2656 8.73438 13.2344C8.29688 13.2031 7.82292 13.1719 7.3125 13.1406C6.8125 13.099 6.34375 13.0625 5.90625 13.0312C5.46875 12.9896 5.16146 12.9635 4.98438 12.9531C4.98438 12.9323 4.97917 12.8802 4.96875 12.7969C4.95833 12.7135 4.95312 12.6562 4.95312 12.625C4.95312 12.4792 4.96354 12.349 4.98438 12.2344C5.01562 12.1198 5.11979 12.0312 5.29688 11.9688C6.27604 11.9896 7.23958 11.9844 8.1875 11.9531C9.14583 11.9219 10.099 11.8802 11.0469 11.8281C12.0052 11.7656 12.9583 11.7083 13.9062 11.6562C14.8646 11.6042 15.8281 11.5781 16.7969 11.5781C16.7969 11.974 16.7031 12.2656 16.5156 12.4531C16.3281 12.6302 16.0938 12.75 15.8125 12.8125C15.5417 12.875 15.2396 12.901 14.9062 12.8906C14.5729 12.8802 14.25 12.8854 13.9375 12.9062C13.6354 12.9271 13.3646 12.9896 13.125 13.0938C12.8958 13.1875 12.7448 13.3646 12.6719 13.625C12.6615 13.6875 12.651 13.8073 12.6406 13.9844C12.6302 14.1615 12.6198 14.349 12.6094 14.5469C12.6094 14.7448 12.6042 14.9323 12.5938 15.1094C12.5938 15.276 12.5938 15.3958 12.5938 15.4688C12.5938 16.0625 12.6667 16.651 12.8125 17.2344C12.9688 17.8073 13.1354 18.3802 13.3125 18.9531C13.5 19.5156 13.6667 20.0833 13.8125 20.6562C13.9688 21.2188 14.0469 21.7917 14.0469 22.375C14.0469 22.8125 13.7969 23.0312 13.2969 23.0312C12.9948 23.0312 12.724 22.8229 12.4844 22.4062C12.2552 21.9896 12.0521 21.4583 11.875 20.8125C11.7083 20.1667 11.5677 19.4635 11.4531 18.7031C11.349 17.9427 11.2604 17.2135 11.1875 16.5156C11.125 15.8177 11.0781 15.2031 11.0469 14.6719C11.026 14.1406 11.0156 13.7917 11.0156 13.625ZM18.125 12.8438C18.125 12.7292 18.1354 12.5885 18.1562 12.4219C18.1875 12.2448 18.2344 12.0781 18.2969 11.9219C18.3698 11.7656 18.4583 11.6354 18.5625 11.5312C18.6667 11.4167 18.8021 11.3594 18.9688 11.3594C18.9792 11.3594 19.0052 11.3646 19.0469 11.375C19.0885 11.3854 19.1146 11.3906 19.125 11.3906C19.3021 12.0365 19.4062 12.6771 19.4375 13.3125C19.4688 13.9479 19.4583 14.5677 19.4062 15.1719C19.3542 15.7656 19.276 16.3438 19.1719 16.9062C19.0677 17.4583 18.9792 17.9688 18.9062 18.4375C18.8438 18.9062 18.8021 19.3281 18.7812 19.7031C18.7708 20.0781 18.8281 20.3958 18.9531 20.6562C18.9323 20.4896 18.9167 20.2917 18.9062 20.0625C18.9062 19.8229 18.9271 19.5781 18.9688 19.3281C19.0208 19.0781 19.099 18.8281 19.2031 18.5781C19.3177 18.3281 19.4792 18.1042 19.6875 17.9062C19.8958 17.7083 20.1615 17.5521 20.4844 17.4375C20.8177 17.3229 21.2292 17.2656 21.7188 17.2656C22.2292 17.2656 22.6667 17.3542 23.0312 17.5312C23.4062 17.7083 23.7135 17.9531 23.9531 18.2656C24.1927 18.5677 24.3698 18.9271 24.4844 19.3438C24.6094 19.75 24.6719 20.1875 24.6719 20.6562C24.6719 20.875 24.6667 21.125 24.6562 21.4062C24.6562 21.6771 24.6198 21.9323 24.5469 22.1719C24.4844 22.401 24.3646 22.599 24.1875 22.7656C24.0208 22.9219 23.7708 23 23.4375 23C23.4375 22.8333 23.4479 22.6094 23.4688 22.3281C23.4896 22.0365 23.5 21.7292 23.5 21.4062C23.5104 21.0833 23.5 20.7552 23.4688 20.4219C23.4479 20.0885 23.3802 19.7917 23.2656 19.5312C23.151 19.2604 22.9896 19.0417 22.7812 18.875C22.5833 18.6979 22.3073 18.6094 21.9531 18.6094C21.8281 18.6094 21.6719 18.6198 21.4844 18.6406C21.3073 18.651 21.125 18.6979 20.9375 18.7812C20.75 18.8646 20.5677 18.9948 20.3906 19.1719C20.2135 19.3385 20.0729 19.5729 19.9688 19.875C19.8646 20.1667 19.8021 20.5417 19.7812 21C19.7708 21.4479 19.8281 22 19.9531 22.6562C19.8802 22.8438 19.7865 22.9531 19.6719 22.9844C19.5677 23.0156 19.4323 23.0312 19.2656 23.0312C18.9323 23.0312 18.6562 22.9167 18.4375 22.6875C18.2292 22.4479 18.0677 22.1302 17.9531 21.7344C17.8385 21.3385 17.7604 20.8802 17.7188 20.3594C17.6875 19.8385 17.6771 19.2969 17.6875 18.7344C17.6979 18.1615 17.724 17.5833 17.7656 17C17.8177 16.4062 17.8646 15.849 17.9062 15.3281C17.9583 14.7969 18.0052 14.3177 18.0469 13.8906C18.099 13.4531 18.125 13.1042 18.125 12.8438ZM25.2969 16.4375C25.2969 16.3438 25.3021 16.25 25.3125 16.1562C25.3229 16.0521 25.3438 15.9635 25.375 15.8906C25.4062 15.8073 25.4531 15.7396 25.5156 15.6875C25.5885 15.6354 25.6875 15.6094 25.8125 15.6094C25.9167 15.6094 26.0312 15.6927 26.1562 15.8594C26.2917 16.0156 26.4271 16.2188 26.5625 16.4688C26.6979 16.7083 26.8281 16.974 26.9531 17.2656C27.0885 17.5573 27.2031 17.8281 27.2969 18.0781C27.401 18.3177 27.4844 18.526 27.5469 18.7031C27.6094 18.8802 27.6458 18.974 27.6562 18.9844C27.7917 18.6198 27.9427 18.224 28.1094 17.7969C28.276 17.3698 28.4792 16.974 28.7188 16.6094C28.9688 16.2344 29.2604 15.9219 29.5938 15.6719C29.9375 15.4219 30.3542 15.2969 30.8438 15.2969C31.0938 15.2969 31.3281 15.3385 31.5469 15.4219C31.776 15.4948 31.974 15.6094 32.1406 15.7656C32.3177 15.9115 32.4583 16.0885 32.5625 16.2969C32.6667 16.5052 32.7188 16.7448 32.7188 17.0156C32.7188 17.2448 32.625 17.4062 32.4375 17.5C32.2604 17.5938 32.0573 17.6406 31.8281 17.6406H31.6719L31 16.9688C30.9792 16.9688 30.9635 16.9635 30.9531 16.9531C30.9323 16.9531 30.9115 16.9531 30.8906 16.9531C30.8802 16.9427 30.8646 16.9375 30.8438 16.9375C30.4792 16.9375 30.1927 17.0417 29.9844 17.25C29.7865 17.4479 29.6354 17.6979 29.5312 18C29.4271 18.2917 29.3594 18.6042 29.3281 18.9375C29.3073 19.2604 29.2969 19.5573 29.2969 19.8281C29.2969 20.0365 29.3177 20.25 29.3594 20.4688C29.401 20.6771 29.4479 20.8854 29.5 21.0938C29.5521 21.2917 29.599 21.5 29.6406 21.7188C29.6823 21.9271 29.7031 22.1458 29.7031 22.375C29.7031 22.8125 29.4688 23.0312 29 23.0312C28.7396 23.0312 28.4688 22.8958 28.1875 22.625C27.9062 22.3438 27.625 21.9896 27.3438 21.5625C27.0729 21.1354 26.8125 20.6667 26.5625 20.1562C26.3125 19.6354 26.0938 19.1302 25.9062 18.6406C25.7188 18.151 25.5677 17.7083 25.4531 17.3125C25.349 16.9167 25.2969 16.625 25.2969 16.4375ZM33.2812 18.6562C33.2812 18.0938 33.349 17.5312 33.4844 16.9688C33.6198 16.4062 33.8333 15.901 34.125 15.4531C34.4271 15.0052 34.8125 14.6406 35.2812 14.3594C35.7604 14.0781 36.3385 13.9375 37.0156 13.9375C37.401 13.9375 37.7396 14.0104 38.0312 14.1562C38.3229 14.2917 38.5677 14.474 38.7656 14.7031C38.9635 14.9323 39.1094 15.2031 39.2031 15.5156C39.3073 15.8177 39.3594 16.1354 39.3594 16.4688C39.3594 17 39.2344 17.5156 38.9844 18.0156C38.7448 18.5156 38.4167 18.9583 38 19.3438C37.5938 19.7188 37.125 20.0052 36.5938 20.2031C36.0625 20.3906 35.5208 20.4323 34.9688 20.3281C34.9792 20.6302 35.0781 20.875 35.2656 21.0625C35.4635 21.2396 35.6979 21.375 35.9688 21.4688C36.2396 21.5625 36.5208 21.625 36.8125 21.6562C37.1042 21.6771 37.3646 21.6875 37.5938 21.6875C37.8333 21.6875 38.0573 21.6667 38.2656 21.625C38.474 21.5833 38.6823 21.5365 38.8906 21.4844C39.099 21.4323 39.3073 21.3854 39.5156 21.3438C39.7344 21.3021 39.9635 21.2812 40.2031 21.2812C40.2969 21.2812 40.3906 21.2865 40.4844 21.2969C40.5781 21.3073 40.6667 21.3333 40.75 21.375C40.8333 21.4062 40.901 21.4635 40.9531 21.5469C41.0052 21.6198 41.0312 21.7135 41.0312 21.8281C41.0312 22.026 40.9583 22.1927 40.8125 22.3281C40.6667 22.4531 40.4792 22.5625 40.25 22.6562C40.0312 22.75 39.7865 22.8229 39.5156 22.875C39.2448 22.9167 38.9792 22.9531 38.7188 22.9844C38.4688 23.0052 38.2344 23.0156 38.0156 23.0156C37.8073 23.026 37.651 23.0312 37.5469 23.0312C36.8802 23.0312 36.2812 22.9271 35.75 22.7188C35.2188 22.5 34.7708 22.2031 34.4062 21.8281C34.0417 21.4427 33.7604 20.9844 33.5625 20.4531C33.375 19.9115 33.2812 19.3125 33.2812 18.6562ZM34.9375 17.6406C34.9375 18.0052 34.9844 18.2708 35.0781 18.4375C35.1823 18.6042 35.4271 18.6875 35.8125 18.6875C36.0833 18.6875 36.349 18.6406 36.6094 18.5469C36.8698 18.4427 37.1042 18.3021 37.3125 18.125C37.5312 17.9479 37.7031 17.7396 37.8281 17.5C37.9531 17.2604 38.0156 17 38.0156 16.7188C38.0156 16.5625 38 16.401 37.9688 16.2344C37.9479 16.0677 37.8958 15.9167 37.8125 15.7812C37.7292 15.6354 37.6198 15.5208 37.4844 15.4375C37.3594 15.3438 37.1927 15.2969 36.9844 15.2969C36.6719 15.2969 36.3854 15.3698 36.125 15.5156C35.875 15.651 35.6615 15.8333 35.4844 16.0625C35.3073 16.2812 35.1719 16.5312 35.0781 16.8125C34.9844 17.0833 34.9375 17.3594 34.9375 17.6406ZM42 18.6562C42 18.0938 42.0677 17.5312 42.2031 16.9688C42.3385 16.4062 42.5521 15.901 42.8438 15.4531C43.1458 15.0052 43.5312 14.6406 44 14.3594C44.4792 14.0781 45.0573 13.9375 45.7344 13.9375C46.1198 13.9375 46.4583 14.0104 46.75 14.1562C47.0417 14.2917 47.2865 14.474 47.4844 14.7031C47.6823 14.9323 47.8281 15.2031 47.9219 15.5156C48.026 15.8177 48.0781 16.1354 48.0781 16.4688C48.0781 17 47.9531 17.5156 47.7031 18.0156C47.4635 18.5156 47.1354 18.9583 46.7188 19.3438C46.3125 19.7188 45.8438 20.0052 45.3125 20.2031C44.7812 20.3906 44.2396 20.4323 43.6875 20.3281C43.6979 20.6302 43.7969 20.875 43.9844 21.0625C44.1823 21.2396 44.4167 21.375 44.6875 21.4688C44.9583 21.5625 45.2396 21.625 45.5312 21.6562C45.8229 21.6771 46.0833 21.6875 46.3125 21.6875C46.5521 21.6875 46.776 21.6667 46.9844 21.625C47.1927 21.5833 47.401 21.5365 47.6094 21.4844C47.8177 21.4323 48.026 21.3854 48.2344 21.3438C48.4531 21.3021 48.6823 21.2812 48.9219 21.2812C49.0156 21.2812 49.1094 21.2865 49.2031 21.2969C49.2969 21.3073 49.3854 21.3333 49.4688 21.375C49.5521 21.4062 49.6198 21.4635 49.6719 21.5469C49.724 21.6198 49.75 21.7135 49.75 21.8281C49.75 22.026 49.6771 22.1927 49.5312 22.3281C49.3854 22.4531 49.1979 22.5625 48.9688 22.6562C48.75 22.75 48.5052 22.8229 48.2344 22.875C47.9635 22.9167 47.6979 22.9531 47.4375 22.9844C47.1875 23.0052 46.9531 23.0156 46.7344 23.0156C46.526 23.026 46.3698 23.0312 46.2656 23.0312C45.599 23.0312 45 22.9271 44.4688 22.7188C43.9375 22.5 43.4896 22.2031 43.125 21.8281C42.7604 21.4427 42.4792 20.9844 42.2812 20.4531C42.0938 19.9115 42 19.3125 42 18.6562ZM43.6562 17.6406C43.6562 18.0052 43.7031 18.2708 43.7969 18.4375C43.901 18.6042 44.1458 18.6875 44.5312 18.6875C44.8021 18.6875 45.0677 18.6406 45.3281 18.5469C45.5885 18.4427 45.8229 18.3021 46.0312 18.125C46.25 17.9479 46.4219 17.7396 46.5469 17.5C46.6719 17.2604 46.7344 17 46.7344 16.7188C46.7344 16.5625 46.7188 16.401 46.6875 16.2344C46.6667 16.0677 46.6146 15.9167 46.5312 15.7812C46.4479 15.6354 46.3385 15.5208 46.2031 15.4375C46.0781 15.3438 45.9115 15.2969 45.7031 15.2969C45.3906 15.2969 45.1042 15.3698 44.8438 15.5156C44.5938 15.651 44.3802 15.8333 44.2031 16.0625C44.026 16.2812 43.8906 16.5312 43.7969 16.8125C43.7031 17.0833 43.6562 17.3594 43.6562 17.6406ZM52.5781 21.7344C53.0469 21.7344 53.2812 21.9792 53.2812 22.4688C53.1667 22.7708 53.0208 22.9688 52.8438 23.0625C52.6667 23.1667 52.5 23.2031 52.3438 23.1719C52.1979 23.151 52.0625 23.0781 51.9375 22.9531C51.8229 22.8281 51.7604 22.6875 51.75 22.5312C51.7396 22.375 51.7969 22.224 51.9219 22.0781C52.0469 21.9219 52.2656 21.8073 52.5781 21.7344ZM50.5625 27.9219C50.8646 27.9219 51.1406 28 51.3906 28.1562C51.6406 28.3125 51.9062 28.4792 52.1875 28.6562C52.4583 28.8438 52.7552 29.0156 53.0781 29.1719C53.401 29.3281 53.776 29.4062 54.2031 29.4062C54.6302 29.4062 55.0469 29.349 55.4531 29.2344C55.8594 29.1302 56.224 28.9635 56.5469 28.7344C56.8698 28.5156 57.1302 28.224 57.3281 27.8594C57.526 27.5052 57.625 27.0833 57.625 26.5938C57.625 25.7812 57.5573 24.9375 57.4219 24.0625C57.2969 23.1875 57.1302 22.3177 56.9219 21.4531C56.724 20.5781 56.5052 19.7292 56.2656 18.9062C56.0365 18.0833 55.8229 17.3229 55.625 16.625C55.625 16.6146 55.6198 16.5885 55.6094 16.5469C55.599 16.5052 55.5938 16.4792 55.5938 16.4688C55.5938 16.2604 55.6667 16.1198 55.8125 16.0469C55.9583 15.9635 56.1146 15.9219 56.2812 15.9219C56.3229 15.9219 56.3854 15.9271 56.4688 15.9375C56.5521 15.9479 56.6042 15.9531 56.625 15.9531C56.9479 16.7656 57.25 17.599 57.5312 18.4531C57.8229 19.2969 58.0781 20.1562 58.2969 21.0312C58.5156 21.9062 58.6875 22.7812 58.8125 23.6562C58.9375 24.5417 59 25.4167 59 26.2812C59 26.9583 58.8802 27.5729 58.6406 28.125C58.4115 28.6771 58.0885 29.1458 57.6719 29.5312C57.2552 29.9167 56.7552 30.2135 56.1719 30.4219C55.599 30.6302 54.974 30.7344 54.2969 30.7344C53.849 30.7344 53.4062 30.6823 52.9688 30.5781C52.5208 30.4844 52.1198 30.3281 51.7656 30.1094C51.401 29.8906 51.1094 29.599 50.8906 29.2344C50.6719 28.8802 50.5625 28.4427 50.5625 27.9219ZM54.2344 12.1094C54.2344 12.0781 54.2344 12.0156 54.2344 11.9219C54.2344 11.8281 54.2448 11.7344 54.2656 11.6406C54.2865 11.5365 54.3229 11.4479 54.375 11.375C54.4271 11.3021 54.5052 11.2656 54.6094 11.2656C54.7865 11.2656 54.9219 11.2917 55.0156 11.3438C55.1094 11.3854 55.1771 11.4427 55.2188 11.5156C55.2604 11.5781 55.2865 11.6615 55.2969 11.7656C55.3073 11.8594 55.3125 11.9688 55.3125 12.0938C55.3125 12.1771 55.3073 12.2708 55.2969 12.375C55.2865 12.4792 55.2656 12.5781 55.2344 12.6719C55.2031 12.7656 55.151 12.8438 55.0781 12.9062C55.0052 12.9583 54.9062 12.9844 54.7812 12.9844C54.6562 12.9844 54.5573 12.9583 54.4844 12.9062C54.4115 12.8438 54.3542 12.7708 54.3125 12.6875C54.2812 12.6042 54.2604 12.5104 54.25 12.4062C54.2396 12.3021 54.2344 12.2031 54.2344 12.1094ZM61.9688 22.2969C62.1354 22.1823 62.3333 22.0365 62.5625 21.8594C62.8021 21.6719 63.0417 21.474 63.2812 21.2656C63.5208 21.0573 63.7448 20.8385 63.9531 20.6094C64.1615 20.3802 64.3229 20.1615 64.4375 19.9531C64.5625 19.7344 64.625 19.5312 64.625 19.3438C64.625 19.1562 64.5312 19 64.3438 18.875C64.0104 18.875 63.6458 18.8906 63.25 18.9219C62.8542 18.9427 62.4583 18.9531 62.0625 18.9531C61.6667 18.9427 61.2812 18.9062 60.9062 18.8438C60.5417 18.7812 60.2135 18.6667 59.9219 18.5C59.6302 18.3333 59.3958 18.099 59.2188 17.7969C59.0521 17.4844 58.9688 17.0885 58.9688 16.6094C58.9688 16.0469 59.0729 15.5417 59.2812 15.0938C59.5 14.6354 59.7865 14.2344 60.1406 13.8906C60.4948 13.5365 60.8906 13.2292 61.3281 12.9688C61.776 12.6979 62.224 12.4688 62.6719 12.2812C62.9427 12.3542 63.1927 12.4844 63.4219 12.6719C63.651 12.8594 63.849 13.0677 64.0156 13.2969C63.9427 13.526 63.7969 13.7031 63.5781 13.8281C63.3698 13.9531 63.125 14.0625 62.8438 14.1562C62.5729 14.25 62.2865 14.349 61.9844 14.4531C61.6823 14.5573 61.4062 14.6979 61.1562 14.875C60.9167 15.0417 60.7135 15.2656 60.5469 15.5469C60.3802 15.8177 60.2969 16.1771 60.2969 16.625C60.2969 16.9583 60.3802 17.2031 60.5469 17.3594C60.7135 17.5156 60.9323 17.625 61.2031 17.6875C61.474 17.7396 61.7812 17.7604 62.125 17.75C62.4688 17.7292 62.8177 17.7031 63.1719 17.6719C63.5365 17.6406 63.8906 17.625 64.2344 17.625C64.5781 17.6146 64.8854 17.6562 65.1562 17.75C65.4271 17.8333 65.6406 17.974 65.7969 18.1719C65.9635 18.3698 66.0469 18.6615 66.0469 19.0469C66.0469 19.2135 65.9896 19.4271 65.875 19.6875C65.7708 19.9479 65.625 20.2292 65.4375 20.5312C65.2604 20.8229 65.0469 21.1146 64.7969 21.4062C64.5573 21.6979 64.3021 21.9635 64.0312 22.2031C63.7708 22.4323 63.5052 22.625 63.2344 22.7812C62.974 22.9271 62.7292 23 62.5 23C62.2812 23 62.1354 22.9219 62.0625 22.7656C62 22.6094 61.9688 22.4531 61.9688 22.2969Z" fill="#AAAAAA"/>
</svg>
